<?xml version="1.0" encoding="UTF-8" standalone="no"?>
<svg width="430px" height="40px" viewBox="0 0 430 40" version="1.1" xmlns="http://www.w3.org/2000/svg" xmlns:xlink="http://www.w3.org/1999/xlink" xmlns:sketch="http://www.bohemiancoding.com/sketch/ns">
    <!-- Generator: Sketch 3.5.2 (25235) - http://www.bohemiancoding.com/sketch -->
    <title>Shape</title>
    <desc>Created with Sketch.</desc>
    <defs></defs>
    <g id="Page-2" stroke="none" stroke-width="1" fill="none" fill-rule="evenodd" sketch:type="MSPage">
        <path d="M34.9894802,19.6077902 L60.5623984,36.6564024 L65,39.6148034 L69.4376016,36.6564024 L95.0193686,19.6277158 L120.562398,36.6564024 L125,39.6148034 L129.437602,36.6564024 L154.998227,19.6136214 L180.562398,36.6564024 L185,39.6148034 L189.437602,36.6564024 L215.010974,19.6221194 L240.562398,36.6564024 L245,39.6148034 L249.437602,36.6564024 L275.022524,19.6298192 L300.562398,36.6564024 L305,39.6148034 L309.437602,36.6564024 L335.011833,19.6226922 L360.562398,36.6564024 L365,39.6148034 L369.437602,36.6564024 L394.998551,19.6138374 L420.562398,36.6564024 L429.437602,23.3435976 L399.437602,3.34359765 L395,0.385196599 L390.562398,3.34359765 L365.001731,20.3863504 L339.437602,3.34359765 L335,0.385196599 L330.562398,3.34359765 L305.029154,20.4046328 L279.437602,3.34359765 L275,0.385196599 L270.562398,3.34359765 L244.983786,20.3743875 L219.437602,3.34359765 L215,0.385196599 L210.562398,3.34359765 L185.010294,20.3920596 L159.437602,3.34359765 L155,0.385196599 L150.562398,3.34359765 L125.015337,20.3954212 L99.4376016,3.34359765 L95,0.385196599 L90.5623984,3.34359765 L65.0086183,20.3909421 L39.4376016,3.34359765 L35,0.385196599 L30.5623984,3.34359765 L0.56239843,23.3435976 L9.43760157,36.6564024 L34.9894802,19.6077902 Z" id="Shape" fill-opacity="0.5" fill="#CCB57F" sketch:type="MSShapeGroup"></path>
    </g>
</svg>