<?xml version="1.0" encoding="UTF-8" standalone="no"?>
<svg width="310px" height="40px" viewBox="0 0 310 40" version="1.1" xmlns="http://www.w3.org/2000/svg" xmlns:xlink="http://www.w3.org/1999/xlink" xmlns:sketch="http://www.bohemiancoding.com/sketch/ns">
    <!-- Generator: Sketch 3.5.2 (25235) - http://www.bohemiancoding.com/sketch -->
    <title>Shape</title>
    <desc>Created with Sketch.</desc>
    <defs></defs>
    <g id="Page-2" stroke="none" stroke-width="1" fill="none" fill-rule="evenodd" sketch:type="MSPage">
        <path d="M35.020918,19.6287487 L60.5623984,36.6564024 L65,39.6148034 L69.4376016,36.6564024 L95.0208757,19.6287206 L120.562398,36.6564024 L125,39.6148034 L129.437602,36.6564024 L154.993509,19.6104757 L180.562398,36.6564024 L185,39.6148034 L189.437602,36.6564024 L214.998931,19.6140909 L240.562398,36.6564024 L245,39.6148034 L249.437602,36.6564024 L274.959764,19.5879791 L300.562398,36.6564024 L309.437602,23.3435976 L279.437602,3.34359765 L275,0.385196599 L270.562398,3.34359765 L244.988378,20.3774487 L219.437602,3.34359765 L215,0.385196599 L210.562398,3.34359765 L184.996069,20.3825756 L159.437602,3.34359765 L155,0.385196599 L150.562398,3.34359765 L124.986477,20.376181 L99.4376016,3.34359765 L95,0.385196599 L90.5623984,3.34359765 L65.01121,20.3926699 L39.4376016,3.34359765 L35,0.385196599 L30.5623984,3.34359765 L0.56239843,23.3435976 L9.43760157,36.6564024 L35.020918,19.6287487 Z" id="Shape" fill-opacity="0.500084918" fill="#CCB57F" sketch:type="MSShapeGroup"></path>
    </g>
</svg>