<?xml version="1.0" encoding="UTF-8"?>
<svg width="20px" height="20px" viewBox="0 0 20 20" version="1.1" xmlns="http://www.w3.org/2000/svg" xmlns:xlink="http://www.w3.org/1999/xlink">
    <g id="icon-linkedin" stroke="none" stroke-width="1" fill="none" fill-rule="evenodd">
        <path d="M0,1.67078883 C0,0.748037637 0.747521854,0 1.67078883,0 L18.3292112,0 C19.2519624,0 20,0.747521854 20,1.67078883 L20,18.3292112 C20,19.2519624 19.2524781,20 18.3292112,20 L1.67078883,20 C0.748037637,20 0,19.2524781 0,18.3292112 L0,1.67078883 Z M7.91666667,7.625 L7.91666667,17.2083333 L10.8333333,17.2083333 L10.8333333,12.56625 C10.8333333,11.0104167 11.40625,10.0208333 12.7833333,10.0208333 C13.77625,10.0208333 14.1666667,10.93875 14.1666667,12.56625 L14.1666667,17.2083333 L17.0833333,17.2083333 L17.0833333,11.9154167 C17.0833333,9.0575 16.3995833,7.5 13.51875,7.5 C12.0158333,7.5 11.0154167,8.20333333 10.625,8.98583333 L10.625,7.625 L7.91666667,7.625 Z M2.91666667,17.0833333 L5.83333333,17.0833333 L5.83333333,7.5 L2.91666667,7.5 L2.91666667,17.0833333 Z M6.25,4.375 C6.25,3.33958333 5.41041667,2.5 4.375,2.5 C3.33958333,2.5 2.5,3.33958333 2.5,4.375 C2.5,5.41041667 3.33958333,6.25 4.375,6.25 C5.41041667,6.25 6.25,5.41041667 6.25,4.375 Z" id="Shape" fill="#000000" fill-rule="nonzero"></path>
    </g>
</svg>