<?xml version="1.0" encoding="UTF-8"?>
<svg class="twitter" width="20px" height="20px" viewBox="0 0 20 20" version="1.1" xmlns="http://www.w3.org/2000/svg" xmlns:xlink="http://www.w3.org/1999/xlink">
    <g id="icon-twitter" stroke="none" stroke-width="1" fill="none" fill-rule="evenodd">
        <path d="M20,3.89444023 C19.2645116,4.21523789 18.474412,4.43199306 17.6437946,4.5299664 C18.4911477,4.03056248 19.1411962,3.23810556 19.4477231,2.29478704 C18.6549811,2.75777609 17.7767991,3.09418012 16.8422443,3.27452043 C16.0935436,2.49073372 15.027746,2 13.8474412,2 C11.5819607,2 9.74456091,3.80860518 9.74456091,6.04031646 C9.74456091,6.355912 9.78155554,6.66283733 9.85025984,6.9593584 C6.43882674,6.79028937 3.41671805,5.18196597 1.39258346,2.73870164 C1.04025368,3.33694592 0.837664054,4.03056248 0.837664054,4.76926412 C0.837664054,6.17036957 1.56258258,7.40760811 2.66273232,8.13157039 C1.98978244,8.10989487 1.35735048,7.92868755 0.804192724,7.62609732 L0.804192724,7.67811857 C0.804192724,9.63498429 2.21791597,11.2675843 4.0958337,11.6386691 C3.75055052,11.7305733 3.38853167,11.7791265 3.0150621,11.7791265 C2.75081476,11.7791265 2.4927332,11.7548499 2.24257905,11.7080308 C2.76490795,13.3120191 4.27992601,14.480763 6.07592707,14.5119757 C4.67101207,15.5957516 2.90143574,16.241682 0.97947679,16.241682 C0.648286796,16.241682 0.321500925,16.2226076 0,16.1853257 C1.81626002,17.3323941 3.97251828,18 6.28908659,18 C13.8377521,18 17.9644147,11.8458871 17.9644147,6.50850764 C17.9644147,6.3351035 17.9600106,6.15996532 17.9520831,5.98656118 C18.7536334,5.41606156 19.4494847,4.70597161 19.9982384,3.89704129 L20,3.89444023 Z" id="Shape" fill="#000000" fill-rule="nonzero"></path>
    </g>
</svg>