<?xml version="1.0" encoding="UTF-8"?>
<svg width="400px" height="83px" viewBox="0 0 400 83" version="1.1" xmlns="http://www.w3.org/2000/svg" xmlns:xlink="http://www.w3.org/1999/xlink">
    <!-- Generator: Sketch 55.2 (78181) - https://sketchapp.com -->
    <title>client-evisort</title>
    <desc>Created with Sketch.</desc>
    <g id="client-evisort" stroke="none" stroke-width="1" fill="none" fill-rule="evenodd">
        <path d="M154.532,62.6386829 L154.532,66.9263415 L121.932,66.9263415 L121.932,17.8146341 L153.916,17.8146341 L153.916,22.1043171 L126.648,22.1043171 L126.648,39.8116585 L150.43,39.8116585 L150.43,43.8928293 L126.65,43.8928293 L126.65,62.6386829 L154.53,62.6386829 L154.532,62.6386829 Z M163.482,17.8146341 L180.842,60.9098537 L198.06,17.8146341 L203.116,17.8146341 L182.89,66.9263415 L178.722,66.9263415 L158.494,17.8146341 L163.482,17.8146341 L163.482,17.8146341 Z M210.09,66.9263415 L214.804,66.9263415 L214.804,17.8834634 L210.09,17.8834634 L210.09,66.9263415 Z M254.988,30.6816585 C254.668,30.3577561 254.088,29.9204878 253.244,29.3658049 C252.402,28.8131463 251.376,28.2726341 250.17,27.7402195 C248.89642,27.1886035 247.582477,26.7378362 246.24,26.3919756 C244.833514,26.0242741 243.386642,25.8385736 241.934,25.8393171 C239.338,25.8393171 237.4,26.3231463 236.126,27.2908049 C234.85,28.2604878 234.212,29.620878 234.212,31.3719756 C234.212,32.3882195 234.452,33.2303659 234.93,33.8984146 C235.408,34.5664634 236.102,35.1535366 237.014,35.6596341 C237.926,36.1697805 239.074,36.6293171 240.466,37.0443171 C241.854,37.4593171 243.46,37.8986098 245.284,38.3601707 C247.65,39.0059512 249.804,39.6962683 251.742,40.4351707 C253.678,41.1720488 255.318,42.0951707 256.662,43.2004878 C257.979035,44.2743443 259.041141,45.633733 259.77,47.1784146 C260.5,48.7230244 260.864,50.6259512 260.864,52.8851707 C260.864,55.5128293 260.374,57.7619268 259.394,59.6284146 C258.465633,61.438282 257.11785,62.9935198 255.466,64.1610244 C253.826,65.3149268 251.912,66.1550488 249.726,66.685439 C247.486772,67.2213657 245.192962,67.4884013 242.892,67.4811731 C239.246,67.4811731 235.648,66.9263415 232.092,65.8210244 C228.54,64.7136829 225.352,63.1468049 222.526,61.1163415 L226.694,52.8851707 C227.104,53.3001707 227.846,53.8427073 228.914,54.5107561 C229.986,55.1788049 231.25,55.848878 232.708,56.5149024 C234.166,57.1849756 235.784,57.7497805 237.56,58.2113415 C239.338,58.6729024 241.16,58.9036829 243.028,58.9036829 C248.222,58.9036829 250.818,57.2193902 250.818,53.8528293 C250.818,52.7475122 250.522,51.8243902 249.93,51.0875122 C249.336,50.3506341 248.496,49.7028293 247.402,49.1501707 C246.12713,48.526509 244.800725,48.0171139 243.438,47.6278293 C241.713632,47.1188178 239.982119,46.6349385 238.244,46.1763415 C235.92,45.530561 233.904,44.8260732 232.196,44.0649024 C230.488,43.3057561 229.064,42.4170488 227.926,41.4028293 C226.808374,40.4201973 225.930776,39.188911 225.362,37.8054878 C224.792,36.4228293 224.508,34.7850976 224.508,32.8943171 C224.508,30.4043171 224.962,28.1916585 225.874,26.2543171 C226.749175,24.3633672 228.048301,22.7052728 229.668,21.4119756 C231.284,20.1204146 233.164,19.1406098 235.306,18.472561 C237.543308,17.7898303 239.869289,17.4513503 242.206,17.4684634 C245.626,17.4684634 248.768,18.011 251.638,19.0940488 C254.508,20.179122 257.014,21.4585366 259.156,22.9343171 L254.988,30.6816585 L254.988,30.6816585 Z M274.736,42.3704878 C274.736,44.4920488 275.044,46.5447805 275.658,48.5266585 C276.230865,50.4255765 277.133661,52.2058869 278.324,53.784 C279.476181,55.2977642 280.932151,56.5472573 282.596,57.4501707 C284.28,58.3732927 286.194,58.8348537 288.336,58.8348537 C290.522,58.8348537 292.448,58.3611463 294.112,57.4157561 C295.763416,56.4794832 297.195969,55.1937958 298.312,53.6463415 C299.46871,52.0443291 300.347905,50.2549124 300.912,48.3545854 C301.502,46.3949756 301.798,44.4009512 301.798,42.3704878 C301.798,40.2509512 301.478,38.1982195 300.842,36.2143171 C300.247423,34.3177326 299.334026,32.5392002 298.142,30.9569756 C297.001553,29.4541543 295.556516,28.2158293 293.904,27.3252195 C292.242,26.4263902 290.364,25.9769756 288.268,25.9769756 C286.082,25.9769756 284.156,26.4506829 282.492,27.3940488 C280.839973,28.3299497 279.397613,29.6024088 278.256,31.1310732 C277.076534,32.7109977 276.185216,34.4913782 275.624,36.3884146 C275.035878,38.3266757 274.736587,40.3428707 274.736,42.3704878 L274.736,42.3704878 Z M288.198,67.2725122 C284.782,67.2725122 281.66,66.5700488 278.838,65.1630976 C276.068824,63.801416 273.594315,61.8967536 271.558,59.5595854 C269.521467,57.2140964 267.934398,54.5051443 266.878,51.5713415 C265.793807,48.6278748 265.238,45.5118751 265.238,42.3704878 C265.238,39.0970488 265.818,35.9612683 266.98,32.9631463 C268.100669,30.0315157 269.746226,27.3343977 271.834,25.0072927 C273.901948,22.7046381 276.397356,20.8363971 279.178,19.5090488 C282.002,18.1506829 285.078,17.4684634 288.406,17.4684634 C291.822,17.4684634 294.94,18.1952195 297.766,19.6487317 C300.52732,21.0521991 302.989288,22.9911793 305.012,25.3554878 C307.025129,27.724841 308.599046,30.4426616 309.658,33.3781463 C310.752,36.3762683 311.298,39.4209512 311.298,42.5081463 C311.298,45.7836098 310.718,48.9072439 309.554,51.8810732 C308.435271,54.784802 306.802538,57.4575713 304.736,59.7680976 C302.677406,62.0580597 300.193496,63.9153353 297.426,65.2339512 C294.598,66.5923171 291.524,67.2725122 288.198,67.2725122 L288.198,67.2725122 Z M328.04,42.0951707 L339.862,42.0951707 C340.728,42.0951707 341.536,41.8866585 342.288,41.4716585 C343.042,41.0566585 343.69,40.4918537 344.236,39.7772439 C344.784,39.0626341 345.216,38.2204878 345.536,37.2528293 C345.856,36.2831463 346.014,35.2466585 346.014,34.1393171 C346.025122,33.0537208 345.84008,31.975212 345.468,30.9569756 C345.128907,30.034344 344.631239,29.1797043 343.998,28.432561 C343.409851,27.7394436 342.688563,27.1746611 341.878,26.772561 C341.124858,26.3921701 340.295677,26.1913492 339.454,26.1854878 L328.04,26.1854878 L328.04,42.0951707 L328.04,42.0951707 Z M318.61,66.9263415 L318.61,17.8146341 L340.07,17.8146341 C342.210784,17.7946586 344.326722,18.2798428 346.25,19.2317073 C348.102491,20.1471061 349.762893,21.4160149 351.14,22.9687317 C352.507851,24.5159157 353.594587,26.2957735 354.35,28.2260732 C355.126,30.1856829 355.512,32.157439 355.512,34.1393171 C355.512,37.3216585 354.726,40.2165366 353.154,42.8199024 C351.584,45.4273171 349.452,47.3059512 346.766,48.4578293 L358.178,66.9263415 L347.518,66.9263415 L337.336,50.464 L328.04,50.464 L328.04,66.9263415 L318.61,66.9263415 L318.61,66.9263415 Z M399.796,26.1854878 L384.352,26.1854878 L384.352,66.9263415 L374.92,66.9263415 L374.92,26.1854878 L359.406,26.1854878 L359.406,17.8146341 L399.796,17.8146341 L399.796,26.1854878 L399.796,26.1854878 Z M5.908,18.8754146 L11.676,38.9533171 C11.676,38.9533171 0,34.2526829 0,28.9123415 C0,24.8554634 2.25,21.0111463 5.908,18.8754146 L5.908,18.8754146 Z M25.462,2.21468293 L29.682,18.4705366 C29.682,18.4705366 17.49,18.8288537 8.722,14.4622439 C9.332,10.9479024 12.238,7.34246341 25.462,2.21468293 L25.462,2.21468293 Z" id="Shape" fill="#000000" fill-rule="nonzero"></path>
        <path d="M39.454,8.71904878 L30.81,11.158439 L28.726,2.56085366 L37.37,0.121463415 L39.454,8.71904878 L39.454,8.71904878 Z M97.752,38.9674878 L93.23,40.2428537 L92.138,35.7446585 L96.662,34.4692927 L97.752,38.9674878 Z M62.86,47.9213659 L67.95,46.4840488 L66.768,41.6012195 L69.752,40.7590732 L69.028,37.775122 L66.026,38.6213171 L66.706,41.4250976 L61.632,42.8563415 L62.86,47.9213659 Z M56.298,40.6841707 L56.298,40.6821463 L65.408,38.1111707 L63.212,29.05 L54.1,31.6209756 L56.298,40.6841707 Z M48.854,32.8518049 L48.854,32.8538293 L53.514,31.5379756 L52.39,26.902122 L47.73,28.2159512 L48.854,32.8518049 Z M69.006,27.2806829 C73.46,43.0446098 79.2,62.1629512 79.2,62.1629512 C79.2,62.1629512 70.198,67.857561 59.366,68.7118537 C56.834,59.1729268 49.096,34.2547073 49.096,34.2547073 C49.096,34.2547073 23.212,39.5221707 14.068,34.2547073 C11.958,25.2826098 8.722,14.4622439 8.722,14.4622439 C8.722,14.4622439 27.852,24.7137561 64.992,12.4682195 C65.6973734,15.2567809 66.4340878,18.0371237 67.202,20.8087073 L61.152,22.5152683 L62.736,29.05 L69.006,27.2806829 L69.006,27.2806829 Z M40.18,56.1707561 L43.18,55.324561 L42.454,52.3385854 L39.454,53.1847805 L40.18,56.1707561 Z M50.022,49.3566585 L50.02,49.3566585 L59.366,80.5383415 C59.366,80.5383415 31.792,86.5123171 14.208,74.6919024 C9.144,60.8815122 7.10542736e-15,30.5520976 7.10542736e-15,30.5520976 C7.10542736e-15,30.5520976 8.72,47.2087805 46.564,37.8135854 L47.348,40.4290976 L40.53,42.3522683 L42.728,51.4154634 L50.022,49.3566585 Z M97.02,17.596 L87.572,20.262122 L85.294,10.862878 L94.744,8.1967561 L97.022,17.596 L97.02,17.596 Z M41.184,13.9136341 L40.056,9.26158537 L44.732,7.94168293 L45.86,12.5937317 L41.184,13.9136341 Z M91.206,34.9753902 L77.476,38.8520976 L74.164,25.1935366 L87.894,21.3188537 L91.206,34.9753902 Z M98.662,22.2399512 L97.672,18.1567561 L101.776,16.9988049 L102.766,21.0799756 L98.662,22.2399512 Z" id="Shape" fill="#007FBA" fill-rule="nonzero"></path>
    </g>
</svg>