<?xml version="1.0" encoding="UTF-8"?>
<svg width="400px" height="136px" viewBox="0 0 400 136" version="1.1" xmlns="http://www.w3.org/2000/svg" xmlns:xlink="http://www.w3.org/1999/xlink">
    <!-- Generator: Sketch 55.2 (78181) - https://sketchapp.com -->
    <title>client-common-sensing</title>
    <desc>Created with Sketch.</desc>
    <g id="client-common-sensing" stroke="none" stroke-width="1" fill="none" fill-rule="evenodd">
        <path d="M182.526406,7.6039869 C178.970533,7.6039869 176.552444,10.3294474 176.552444,13.9889409 L176.552444,39.8856056 C176.552444,43.6169478 178.899273,46.2705596 182.526406,46.2705596 C186.084655,46.2705596 188.502744,43.5450991 188.502744,39.8856056 L188.502744,38.6665727 C188.502744,37.5888423 189.429123,36.6595992 190.569283,36.6595992 L195.120421,36.6595992 C196.26058,36.6595992 197.18221,37.5912373 197.18221,38.6665727 L197.18221,39.8880006 C197.18221,48.8523228 190.709428,53.8745465 182.526406,53.8745465 C174.34576,53.8745465 167.870603,48.8523228 167.870603,39.8880006 L167.870603,13.986546 C167.870603,5.01982883 174.34576,0 182.526406,0 C190.709428,0 197.18221,5.01982883 197.18221,13.986546 L197.18221,15.2055788 C197.18221,16.2833093 196.26058,17.2149473 195.120421,17.2149473 L190.566908,17.2149473 C189.429123,17.2149473 188.502744,16.2809143 188.502744,15.2031839 L188.502744,13.9889409 C188.502744,10.2575987 186.155915,7.6039869 182.526406,7.6039869 Z M231.897698,39.8832107 C231.897698,48.8499278 225.424916,53.8721516 217.241895,53.8721516 C209.061249,53.8721516 202.586092,48.8499278 202.586092,39.8856056 L202.586092,13.986546 C202.586092,5.01982883 209.061249,0 217.241895,0 C225.424916,0 231.897698,5.01982883 231.897698,13.986546 L231.897698,39.8832107 Z M223.218232,13.9889409 C223.218232,10.2575987 220.871404,7.6039869 217.24427,7.6039869 C213.614762,7.6039869 211.265558,10.2575987 211.265558,13.9889409 L211.265558,39.8856056 C211.265558,43.6169478 213.614762,46.2705596 217.24427,46.2705596 C220.871404,46.2705596 223.218232,43.6169478 223.218232,39.8856056 L223.218232,13.9889409 Z M254.947928,50.4282041 L246.266086,11.9795724 L246.266086,50.4282041 C246.266086,51.5059346 245.342082,52.4399676 244.204298,52.4399676 L240.361009,52.4399676 C239.220849,52.4399676 238.296845,51.5059346 238.296845,50.4282041 L238.296845,3.58764484 C238.296845,2.50991442 239.223225,1.57827634 240.363384,1.57827634 L249.468035,1.57827634 C250.608195,1.57827634 251.318419,2.51230937 251.532199,3.58764484 L258.290021,34.578382 L265.050218,3.58764484 C265.263998,2.50991442 265.974223,1.57827634 267.112007,1.57827634 L276.219033,1.57827634 C277.359193,1.57827634 278.283197,2.51230937 278.283197,3.58764484 L278.283197,50.4282041 C278.283197,51.5059346 277.356817,52.4399676 276.216658,52.4399676 L272.375744,52.4399676 C271.23796,52.4399676 270.313956,51.5059346 270.313956,50.4282041 L270.313956,11.9795724 L261.63449,50.4282041 C261.42071,51.5059346 260.70811,52.4399676 259.570325,52.4399676 L257.009717,52.4375726 C255.869557,52.4375726 255.159332,51.5035396 254.947928,50.4282041 Z M301.970016,50.4282041 L293.285799,11.9795724 L293.285799,50.4282041 C293.285799,51.5059346 292.361795,52.4399676 291.22401,52.4399676 L287.383097,52.4399676 C286.245313,52.4399676 285.318933,51.5059346 285.318933,50.4282041 L285.318933,3.58764484 C285.318933,2.50991442 286.245313,1.57827634 287.383097,1.57827634 L296.490123,1.57827634 C297.627907,1.57827634 298.338132,2.51230937 298.554287,3.58764484 L305.314484,34.578382 L312.072306,3.58764484 C312.286086,2.50991442 312.998686,1.57827634 314.134095,1.57827634 L323.241121,1.57827634 C324.381281,1.57827634 325.305285,2.51230937 325.305285,3.58764484 L325.305285,50.4282041 C325.305285,51.5059346 324.37653,52.4399676 323.241121,52.4399676 L319.397832,52.4399676 C318.260048,52.4399676 317.336044,51.5059346 317.336044,50.4282041 L317.336044,11.9795724 L308.654202,50.4282041 C308.440422,51.5059346 307.727822,52.4399676 306.594789,52.4399676 L304.029429,52.4399676 C302.891645,52.4375726 302.18142,51.5035396 301.970016,50.4282041 Z M361.084923,39.8832107 C361.084923,48.8499278 354.609766,53.8721516 346.42912,53.8721516 C338.248473,53.8721516 331.773316,48.8499278 331.773316,39.8856056 L331.773316,13.986546 C331.773316,5.01982883 338.248473,0 346.42912,0 C354.609766,0 361.084923,5.01982883 361.084923,13.986546 L361.084923,39.8832107 Z M352.405457,13.9889409 C352.405457,10.2575987 350.056253,7.6039869 346.424369,7.6039869 C342.797236,7.6039869 340.448032,10.2575987 340.448032,13.9889409 L340.448032,39.8856056 C340.448032,43.6169478 342.79486,46.2705596 346.424369,46.2705596 C350.053877,46.2705596 352.405457,43.6169478 352.405457,39.8856056 L352.405457,13.9889409 Z M391.249274,3.65949354 C391.249274,2.58176311 392.170903,1.65012503 393.311063,1.65012503 L397.931085,1.65012503 C399.071245,1.65012503 400,2.58415807 400,3.65949354 L400,50.4282041 C400,51.5059346 399.071245,52.4399676 397.931085,52.4399676 L392.099643,52.4399676 C390.674443,52.4399676 390.251634,51.4340859 389.821699,50.4282041 L375.952131,18.6519212 L375.952131,50.4282041 C375.952131,51.5059346 375.025751,52.4399676 373.887967,52.4399676 L369.265569,52.4399676 C368.127785,52.4399676 367.201405,51.5059346 367.201405,50.4282041 L367.201405,3.58764484 C367.201405,2.50991442 368.127785,1.57827634 369.267944,1.57827634 L375.099386,1.57827634 C376.524586,1.57827634 376.949771,2.58415807 377.374955,3.58764484 L391.251649,35.3663227 L391.251649,3.65709858 L391.249274,3.65949354 Z M181.103582,102.999894 L190.353128,109.028 C195.761761,112.543796 196.685765,115.341105 196.685765,122.008664 C196.685765,131.04723 190.638168,136 181.887442,136 C173.493016,136 167.231638,131.193322 167.231638,122.013454 L167.231638,119.070052 C167.231638,117.997112 168.155643,117.063079 169.293427,117.063079 L173.84694,117.063079 C174.9871,117.063079 175.91348,117.997112 175.91348,119.070052 L175.91348,122.011059 C175.91348,125.672948 178.329193,128.396013 181.887442,128.396013 C185.799615,128.396013 187.863779,125.957947 187.863779,122.011059 L187.863779,120.938119 C187.863779,117.997112 186.296059,116.993625 183.809086,115.3435 L172.566636,107.955059 C168.226903,105.085901 167.231638,100.633677 167.231638,96.5454866 C167.231638,87.5117106 173.065456,82.1278484 182.029962,82.1278484 C190.495648,82.1278484 196.685765,86.8626774 196.685765,96.1143944 L196.685765,97.6950657 C196.685765,98.7704012 195.759385,99.7044342 194.623976,99.7044342 L190.070463,99.7044342 C188.930303,99.7044342 188.003924,98.7704012 188.003924,97.6926707 L188.003924,96.1167893 C188.003924,92.4572958 185.942135,89.7318353 182.029962,89.7318353 C178.117789,89.7318353 176.053624,92.172296 176.053624,96.1167893 L176.053624,96.8328813 C176.053624,99.7020392 177.550084,100.705526 181.103582,102.999894 Z M203.866396,132.556053 L203.866396,85.7130983 C203.866396,84.6353679 204.792776,83.7037298 205.932936,83.7037298 L227.843005,83.7037298 C228.911905,83.7037298 229.838285,84.6377628 229.838285,85.782552 L229.838285,89.2264995 C229.838285,90.3760786 228.911905,91.3077167 227.843005,91.3077167 L212.617122,91.3077167 L212.617122,104.003381 L225.707581,104.003381 C226.776481,104.003381 227.702861,104.939809 227.702861,106.086993 L227.702861,109.456697 C227.702861,110.606276 226.776481,111.537914 225.707581,111.537914 L212.619497,111.537914 L212.619497,126.959039 L228.201681,126.959039 C229.26583,126.959039 230.192209,127.890677 230.192209,129.037861 L230.192209,132.479414 C230.192209,133.628993 229.26583,134.56064 228.199305,134.56064 L205.93056,134.56064 C204.792776,134.563026 203.866396,133.628993 203.866396,132.556053 Z M263.128574,83.7755785 L267.753347,83.7755785 C268.891131,83.7755785 269.815136,84.7096115 269.815136,85.782552 L269.815136,132.556053 C269.815136,133.631388 268.888756,134.563026 267.753347,134.563026 L261.919529,134.563026 C260.496705,134.563026 260.069145,133.557144 259.641585,132.556053 L245.769642,100.777375 L245.769642,132.556053 C245.769642,133.631388 244.843262,134.563026 243.705478,134.563026 L239.080705,134.563026 C237.94292,134.563026 237.016541,133.628993 237.016541,132.556053 L237.016541,85.7130983 C237.016541,84.6353679 237.94292,83.7037298 239.08308,83.7037298 L244.914522,83.7037298 C246.339722,83.7037298 246.764906,84.7096115 247.192466,85.7130983 L261.06441,117.494171 L261.06441,85.782552 C261.06441,84.7072166 261.990789,83.7755785 263.128574,83.7755785 Z M290.656306,102.999894 L299.905851,109.028 C305.312109,112.543796 306.236113,115.341105 306.236113,122.008664 C306.236113,131.04723 300.190891,136 291.43779,136 C283.045739,136 276.786737,131.193322 276.786737,122.013454 L276.786737,119.070052 C276.786737,117.997112 277.710742,117.063079 278.848526,117.063079 L283.402039,117.063079 C284.542199,117.063079 285.466203,117.997112 285.466203,119.070052 L285.466203,122.011059 C285.466203,125.672948 287.886668,128.396013 291.440165,128.396013 C295.354714,128.396013 297.421253,125.957947 297.421253,122.011059 L297.421253,120.938119 C297.421253,117.997112 295.853534,116.993625 293.36656,115.3435 L282.12411,107.955059 C277.784377,105.085901 276.789113,100.638467 276.789113,96.5454866 C276.789113,87.5117106 282.62293,82.1278484 291.587436,82.1278484 C300.050747,82.1278484 306.243239,86.8626774 306.243239,96.1143944 L306.243239,97.6950657 C306.243239,98.7704012 305.31686,99.7044342 304.179075,99.7044342 L299.625562,99.7044342 C298.487778,99.7044342 297.566149,98.7704012 297.566149,97.6926707 L297.566149,96.1167893 C297.566149,92.4572958 295.497234,89.7318353 291.587436,89.7318353 C287.675263,89.7318353 285.608723,92.172296 285.608723,96.1167893 L285.608723,96.8328813 C285.603973,99.7020392 287.098057,100.705526 290.656306,102.999894 Z M315.414399,83.7037298 L320.036797,83.7037298 C321.174581,83.7037298 322.09621,84.6377628 322.09621,85.7130983 L322.09621,132.556053 C322.09621,133.631388 321.172206,134.563026 320.036797,134.563026 L315.412024,134.563026 C314.27424,134.563026 313.34786,133.628993 313.34786,132.556053 L313.34786,85.7107033 C313.34786,84.6353679 314.276615,83.7037298 315.414399,83.7037298 Z M356.03259,83.7755785 L360.657363,83.7755785 C361.795147,83.7755785 362.719152,84.7096115 362.719152,85.782552 L362.719152,132.556053 C362.719152,133.631388 361.795147,134.563026 360.654988,134.563026 L354.823546,134.563026 C353.398346,134.563026 352.973161,133.557144 352.547977,132.556053 L338.676033,100.777375 L338.676033,132.556053 C338.676033,133.631388 337.749654,134.563026 336.609494,134.563026 L331.987096,134.563026 C330.849312,134.563026 329.920557,133.628993 329.920557,132.556053 L329.920557,85.7130983 C329.920557,84.6353679 330.849312,83.7037298 331.987096,83.7037298 L337.818538,83.7037298 C339.246113,83.7037298 339.668922,84.7096115 340.096482,85.7130983 L353.970801,117.494171 L353.970801,85.782552 C353.970801,84.7072166 354.894806,83.7755785 356.03259,83.7755785 Z M399.570065,107.013841 L399.570065,132.484204 C399.570065,133.631388 398.64131,134.565421 397.577161,134.565421 L392.812243,134.565421 C391.743343,134.565421 390.814588,133.628993 390.814588,132.484204 L390.814588,131.478322 C388.610279,134.634875 385.199301,136 381.712313,136 C375.807236,136 370.184823,132.055507 370.184823,122.013454 L370.184823,96.1119994 C370.184823,87.1452823 376.65998,82.1230585 384.843001,82.1230585 C393.021272,82.1230585 399.498805,87.1452823 399.498805,96.1096045 L399.498805,97.3334273 C399.498805,98.4087627 398.57005,99.3404008 397.434641,99.3404008 L392.883503,99.3404008 C391.743343,99.3404008 390.814588,98.4063678 390.814588,97.3334273 L390.814588,96.1096045 C390.814588,92.3806572 388.47251,89.7270454 384.843001,89.7270454 C381.211118,89.7270454 378.864289,92.3806572 378.864289,96.1119994 L378.864289,122.008664 C378.864289,125.740006 381.208742,128.393618 384.843001,128.393618 C388.470135,128.393618 390.819339,125.740006 390.819339,122.008664 L390.819339,112.469552 L386.546115,112.469552 C385.484341,112.469552 384.555586,111.535519 384.555586,110.388335 L384.555586,107.018631 C384.555586,105.871447 385.484341,104.937414 386.546115,104.937414 L397.577161,104.937414 C398.64606,104.937414 399.570065,105.871447 399.570065,107.013841 Z M88.4291324,73.2177199 C88.3101198,73.5721334 88.2064273,73.9092048 88.1170116,74.2346096 C87.8470165,75.2436597 87.6723789,76.218404 87.4093401,78.0140253 C87.396299,78.1030495 87.3852522,78.1786942 87.3611757,78.3437102 C87.0180386,80.6951777 86.826927,81.745122 86.4588527,82.9746816 C85.9574483,84.6496333 85.2447273,85.975566 84.1939966,87.0205841 C82.3345435,88.8523606 80.2371334,89.4784516 75.7679307,90.0690535 C75.6757766,90.0812316 75.5979462,90.0914764 75.4284571,90.1137601 C73.3753593,90.3837363 72.4694133,90.5316678 71.4452076,90.8035999 C70.4470228,91.071013 69.7314089,91.3444824 67.6331545,92.2135434 C64.2839616,93.6007216 62.5854035,94.1086894 60.5170942,94.0666591 C59.8184992,94.0524629 59.1403368,93.9568582 58.4787008,93.7734941 C55.876821,93.052416 54.2105566,91.478303 51.5581732,87.9473806 C51.5142611,87.8889236 51.0220957,87.2318636 50.8786184,87.0415516 C50.0171494,85.8988777 49.439473,85.1912718 48.8326447,84.5691798 C48.14871,83.8752803 47.4162562,83.2557382 46.0802977,82.2036021 C45.972574,82.1187642 45.59303,81.8204346 45.5936261,81.8209035 C43.867031,80.462892 42.9953914,79.7173972 42.1237167,78.7777743 C40.9510877,77.5137372 40.169939,76.2257944 39.7919931,74.7891094 C39.4114536,73.3554892 39.4729009,71.8452679 39.9001416,70.1344439 C40.2110965,68.8892696 40.5606648,67.9453854 41.4940501,65.6578718 C42.0595804,64.2718864 42.3211541,63.599615 42.5857357,62.8117046 C42.7050814,62.4562994 42.8090209,62.1183336 42.8986068,61.7920834 C43.1774832,60.7764833 43.3590057,59.7783351 43.6206612,57.9945582 C43.6365147,57.8864805 43.6444977,57.8318058 43.67916,57.5941386 C44.0189304,55.2644543 44.2091585,54.220086 44.5744788,53.0025157 C45.0721742,51.3437546 45.7799633,50.0336462 46.8208715,49.0088403 C48.6803246,47.1770638 50.7777347,46.5509729 55.2469374,45.9603745 C55.3390915,45.9481928 55.416922,45.9379481 55.586411,45.9156644 C57.6395088,45.6456882 58.5454549,45.4977567 59.5696606,45.2258246 C60.5678454,44.9584115 61.2834593,44.6849421 63.3817136,43.8158811 C66.7309065,42.4287028 68.4294646,41.9207351 70.4977739,41.9627654 C71.1963689,41.9769616 71.8745313,42.0725663 72.5361673,42.2559304 C75.1380471,42.9770085 76.8043115,44.5511214 79.4566949,48.0820439 C79.500607,48.1405009 79.9927725,48.7975609 80.1362498,48.9878729 C80.9977187,50.1305468 81.5753952,50.8381527 82.1822234,51.4602447 C82.8661582,52.1541442 83.598612,52.7736863 84.9345705,53.8258224 C85.0422941,53.9106603 85.4218382,54.2089899 85.421242,54.208521 C87.1478371,55.5665325 88.0194768,56.3120273 88.8911514,57.2516502 C90.0637804,58.5156873 90.8449292,59.8036301 91.222875,61.2403151 C91.6034145,62.6739353 91.5419672,64.1841566 91.1147265,65.8949806 C90.8037716,67.1401549 90.4542033,68.084039 89.520818,70.3715527 C88.9552877,71.7575381 88.693714,72.4298095 88.4291324,73.2177199 Z M86.4207107,73.7733195 L86.4221934,73.7678515 C86.5209368,73.4082517 86.6345255,73.0389112 86.7639876,72.6533797 C87.0443257,71.8185474 87.3153148,71.1220774 87.8947859,69.7019263 C89.6255224,65.4602874 90.0611897,63.7157202 89.5243651,61.693313 C88.9825657,59.6337839 87.671719,58.2207549 84.3379201,55.5986361 C84.3390978,55.5995624 83.9588707,55.3006959 83.8503733,55.2152487 C82.4592077,54.1196342 81.6841488,53.4640547 80.9302956,52.6992013 C80.2550784,52.007019 79.6386247,51.2519142 78.7353593,50.0538003 C78.5899018,49.8608618 78.0964038,49.2020229 78.0539623,49.1455236 C75.6273454,45.9151473 74.1726082,44.5408632 72.0688382,43.9578299 C71.5510851,43.8143412 71.0178231,43.7391639 70.4622344,43.7278738 C68.7187156,43.6924436 67.1774937,44.1533587 64.051534,45.4480776 C61.875197,46.3494791 61.1236907,46.6366646 60.0205739,46.9321867 C58.8966215,47.2306045 57.943379,47.386259 55.8144878,47.6662018 C55.6451131,47.6884706 55.5677581,47.6986527 55.4761264,47.7107618 C51.3821996,48.2517713 49.5416506,48.8011875 48.0510742,50.2695778 C46.5820176,51.7159088 46.0577229,53.4633223 45.4179408,57.8500794 C45.3831961,58.0883109 45.3751843,58.1431833 45.3592303,58.2519457 C45.0875788,60.1038689 44.8962034,61.1561952 44.5926748,62.261573 C44.4939313,62.6211727 44.3803426,62.9905133 44.2508805,63.3760448 C43.9705425,64.2108771 43.6995534,64.9073471 43.1200822,66.3274982 C41.3893458,70.5691371 40.9536785,72.3137043 41.4905031,74.3361115 C42.0323025,76.3956406 43.3431491,77.8086696 46.676948,80.4307884 C46.6757704,80.4298621 47.0559975,80.7287286 47.1644948,80.8141758 C48.5556604,81.9097902 49.3307193,82.5653698 50.0845725,83.3302231 C50.7597897,84.0224055 51.3762434,84.7775103 52.2795088,85.9756242 C52.4249664,86.1685627 52.9184643,86.8274016 52.9609058,86.8839009 C55.3875228,90.1142772 56.84226,91.4885613 58.9460299,92.0715946 C59.463783,92.2150833 59.9970451,92.2902605 60.5526338,92.3015507 C62.2961526,92.3369809 63.8373744,91.8760658 66.9633341,90.5813469 C69.1396711,89.6799454 69.8911775,89.3927599 70.9942942,89.0972378 C72.1182466,88.79882 73.0714892,88.6431655 75.2003803,88.3632227 C75.3697551,88.3409539 75.4471101,88.3307718 75.5387418,88.3186627 C79.6326686,87.7776532 81.4732175,87.228237 82.9606167,85.7629908 C84.4470921,84.2845769 84.9759056,82.5180648 85.6224151,78.0876308 C85.646505,77.9225232 85.657613,77.8464593 85.6707213,77.7569764 C85.9435426,75.8945758 86.1272958,74.8692644 86.4207107,73.7733195 Z M130.58779,68 C130.58779,68.8007493 130.605725,69.6391675 130.640467,70.5593558 C130.677987,71.5531043 130.720734,72.3717044 130.821438,74.1324252 C131.040671,77.9655084 131.100144,79.6156576 131.037641,81.6830551 C130.954196,84.4431327 130.606032,86.819559 129.900542,89.0166856 C128.606245,93.0243978 126.661373,95.915879 122.047378,101.527258 L121.674641,101.980459 C121.528727,102.157897 121.41396,102.297573 121.303154,102.432614 C119.893061,104.151121 119.018114,105.258232 118.177216,106.417498 C117.241421,107.711867 116.482259,108.866041 114.966936,111.249897 C114.851904,111.430876 114.851904,111.430876 114.736751,111.612033 C110.794107,117.813769 108.678724,120.537387 105.301587,123.001594 C103.403521,124.391153 101.229441,125.483898 98.6205732,126.430483 C96.662114,127.141079 95.0303143,127.609107 91.3882445,128.564826 C91.2570376,128.599256 91.2570376,128.599256 91.1258905,128.633678 C88.4773658,129.328922 87.1406841,129.701636 85.6386749,130.189034 C84.0896939,130.698187 83.0737424,131.087698 79.90527,132.350526 C73.2042925,135.021272 69.8103167,136 65.5367232,136 C61.2655627,136 57.904023,135.02921 51.1811872,132.35056 C48.0595244,131.106763 46.9956278,130.699738 45.4334901,130.188612 C43.8698127,129.671958 42.5240819,129.295062 39.6835226,128.548138 L39.5456035,128.511875 C35.9322885,127.561849 34.3255686,127.100483 32.3875983,126.397035 C29.8034783,125.459047 27.6505768,124.376988 25.7729783,123.002411 C22.3947222,120.537387 20.2793389,117.813769 16.3366949,111.612033 C16.2215421,111.430876 16.2215421,111.430876 16.1065107,111.249897 C14.5911869,108.866041 13.8320254,107.711867 12.895246,106.416133 C12.0478277,105.239287 11.1604151,104.114386 9.73734168,102.381546 C9.6204185,102.239172 9.49938048,102.092019 9.3449086,101.904391 L8.95100566,101.426011 C4.39002157,95.8852886 2.45543814,93.0056269 1.17321021,89.0176299 C0.458835526,86.8140576 0.106515649,84.4324807 0.0230733504,81.6709064 C-0.0394245843,79.6024987 0.0218674884,77.9492604 0.245880988,74.1296901 C0.330843673,72.6810231 0.368007062,72.007752 0.404935611,71.1900649 C0.458259928,70.0093359 0.485656079,68.9792293 0.485656079,68 C0.485656079,67.0207707 0.458259928,65.9906641 0.404935611,64.8099351 C0.368007062,63.992248 0.330843673,63.3189769 0.245880988,61.8703099 C0.0218674884,58.0507396 -0.0394245843,56.3975013 0.0230733504,54.3290936 C0.106515649,51.5675193 0.458835526,49.1859424 1.17290468,46.9833144 C2.46720115,42.9756022 4.41207317,40.084121 9.02606813,34.4727422 L9.39880558,34.0195405 C9.54471923,33.8421027 9.65948648,33.7024273 9.77029228,33.5673862 C11.1803856,31.8488794 12.0553322,30.7417683 12.8962303,29.5825024 C13.8320254,28.2881325 14.5911869,27.133959 16.1065107,24.7501034 C16.2215421,24.5691239 16.2215421,24.5691239 16.3366949,24.3879669 C20.2793389,18.186231 22.3947222,15.4626127 25.7718597,12.9984062 C27.6699255,11.608847 29.8440053,10.5161018 32.4528732,9.5695165 C34.4113324,8.85892142 36.0431321,8.39089306 39.6852019,7.43517361 C39.8164087,7.40074417 39.8164087,7.40074417 39.9475558,7.36632239 C42.5960805,6.67107772 43.9327622,6.29836429 45.4347715,5.81096575 C46.9837525,5.30181334 47.9997039,4.9123022 51.1681763,3.6494739 C57.8691538,0.978728255 61.2631296,0 65.5367232,0 C69.8078837,0 73.1694233,0.97079018 79.8922591,3.64944028 C83.0139219,4.89323719 84.0778185,5.30026249 85.6399563,5.81138804 C87.2036336,6.32804163 88.5493645,6.70493801 91.3899237,7.4518617 L91.5278428,7.48812488 C95.1411578,8.43815121 96.7478777,8.89951726 98.6858481,9.60296476 C101.269968,10.5409527 103.42287,11.623012 105.300468,12.9975887 C108.678724,15.4626127 110.794107,18.186231 114.736751,24.3879669 C114.851904,24.5691239 114.851904,24.5691239 114.966936,24.7501034 C116.482259,27.133959 117.241421,28.2881325 118.1782,29.5838666 C119.025619,30.7607132 119.913031,31.8856136 121.336105,33.6184538 C121.453028,33.7608282 121.574066,33.9079811 121.728538,34.0956094 L122.122441,34.5739891 C126.683425,40.1147114 128.618008,42.9943731 129.900236,46.9823701 C130.614611,49.1859424 130.966931,51.5675193 131.050373,54.3290936 C131.112871,56.3975013 131.051579,58.0507396 130.827565,61.8703099 C130.742603,63.3189769 130.705439,63.992248 130.668511,64.8099351 C130.615186,65.9906641 130.58779,67.0207707 130.58779,68 Z M128.830445,68 C128.830445,66.9913482 128.858527,65.9354399 128.912971,64.7299164 C128.950375,63.9017083 128.987839,63.2229867 129.073262,61.7664685 C129.509206,54.3333588 129.414035,51.1836147 128.228622,47.5270612 C127.036483,43.8192667 125.190056,41.0708283 120.768189,35.6991063 L120.374361,35.2208172 C120.219471,35.032681 120.09801,34.8850147 119.980558,34.7419962 C118.535522,32.9824127 117.628915,31.833181 116.755341,30.6200073 C115.792413,29.2881089 115.019653,28.1132604 113.485833,25.7003075 C113.370733,25.5192206 113.370733,25.5192206 113.255697,25.3382468 C109.430353,19.3210229 107.408395,16.7176921 104.266619,14.4252199 C101.145957,12.1406077 98.1604656,11.0569293 91.0829066,9.19607091 L90.9449467,9.15979701 C88.0698709,8.40379722 86.7000342,8.02014955 85.0933312,7.48927598 C83.4852936,6.9631362 82.402946,6.54905192 79.2443784,5.29055062 C72.7233571,2.69231162 69.5139957,1.76546949 65.5367232,1.76546949 C61.5566705,1.76546949 58.3157668,2.70005598 51.8162258,5.290517 C48.6109805,6.56800152 47.577851,6.96409863 45.978089,7.4899362 C44.4314756,7.99181551 43.071631,8.37098758 40.391825,9.07444368 C40.2605404,9.10890153 40.2605404,9.10890153 40.129326,9.14333297 C32.9860225,11.0178149 29.9628403,12.1147274 26.805709,14.4260375 C23.6650515,16.7176921 21.6430932,19.3210229 17.8177494,25.3382468 C17.7027131,25.5192206 17.7027131,25.5192206 17.5876135,25.7003075 C16.0537936,28.1132604 15.2810331,29.2881089 14.317292,30.6211311 C13.4499403,31.816868 12.557026,32.9467145 11.1263092,34.6903556 C11.0150385,34.8259632 10.899899,34.9660917 10.7536173,35.143977 L10.3809333,35.5971137 C5.90570652,41.0397275 4.04792785,43.8017253 2.84416722,47.5290968 C1.6594114,51.1836147 1.56424037,54.3333588 2.00018389,61.7664685 C2.08560704,63.2229867 2.12307128,63.9017083 2.16047498,64.7299164 C2.21491907,65.9354399 2.24300143,66.9913482 2.24300143,68 C2.24300143,69.0086518 2.21491907,70.0645601 2.16047498,71.2700836 C2.12307128,72.0982917 2.08560704,72.7770133 2.00018389,74.2335315 C1.56424037,81.6666412 1.6594114,84.8163853 2.8448244,88.4729388 C4.03696362,92.1807333 5.88339005,94.9291717 10.3052573,100.300894 L10.6990857,100.779183 C10.8539757,100.967319 10.9754361,101.114985 11.0928882,101.258004 C12.5379243,103.017587 13.4445313,104.166819 14.3181058,105.379993 C15.2810331,106.711891 16.0537936,107.88674 17.5876135,110.299693 C17.7027131,110.480779 17.7027131,110.480779 17.8177494,110.661753 C21.6430932,116.678977 23.6650515,119.282308 26.8068276,121.57478 C29.9274892,123.859392 32.9129807,124.943071 39.9905397,126.803929 L40.1284996,126.840203 C43.0035754,127.596203 44.3734121,127.97985 45.9801152,128.510724 C47.5881527,129.036864 48.6705003,129.450948 51.829068,130.709449 C58.3500892,133.307688 61.5594506,134.234531 65.5367232,134.234531 C69.5167759,134.234531 72.7576795,133.299944 79.2572205,130.709483 C82.4624658,129.431998 83.4955953,129.035901 85.0953573,128.510064 C86.6419707,128.008184 88.0018154,127.629012 90.6816213,126.925556 C90.8129059,126.891098 90.8129059,126.891098 90.9441204,126.856667 C98.0874238,124.982185 101.110606,123.885273 104.267737,121.573963 C107.408395,119.282308 109.430353,116.678977 113.255697,110.661753 C113.370733,110.480779 113.370733,110.480779 113.485833,110.299693 C115.019653,107.88674 115.792413,106.711891 116.756154,105.378869 C117.623506,104.183132 118.51642,103.053285 119.947137,101.309644 C120.058408,101.174037 120.173547,101.033908 120.319829,100.856023 L120.692513,100.402886 C125.16774,94.9602725 127.025518,92.1982747 128.228517,88.4732645 C129.398231,84.8303886 129.493269,81.6868568 129.066987,74.2337007 C128.965635,72.4616573 128.922477,71.6351965 128.884385,70.6262718 C128.848848,69.6850475 128.830445,68.8247259 128.830445,68 Z M104.515161,45.0943327 C104.982919,46.04691 105.299166,46.6837257 105.625195,47.3250064 C106.005937,48.0739048 106.360911,48.7519315 107.003309,49.9649499 C107.681529,51.2456127 107.81746,51.5031515 108.113086,52.0714866 C110.752527,57.1457704 112.009601,60.4835865 112.308334,64.1599993 C112.501648,66.479067 112.271789,68.8630264 111.668184,71.5039218 C111.212285,73.4985697 110.688643,75.1830067 109.559933,78.4902397 C108.905356,80.4082135 108.72189,80.9535465 108.432877,81.8626719 C108.188458,82.6315198 107.970389,83.3506139 107.596069,84.6093377 C107.537496,84.8063496 107.537496,84.8063496 107.478834,85.0037129 C107.431219,85.1638921 107.395946,85.2824731 107.361222,85.3990662 C107.271804,85.6993027 107.196558,85.9509154 107.123972,86.1920982 C105.329845,92.1534332 103.883447,95.4868591 101.324938,98.5245294 C99.8353071,100.29207 97.9799083,101.818322 95.6476951,103.281924 C93.882578,104.389638 92.2903228,105.230371 89.0065638,106.856476 C88.8390835,106.939401 88.8390835,106.939401 88.6716599,107.02229 C88.5042746,107.105172 88.4359659,107.139004 88.3369857,107.188058 C87.3887919,107.657979 86.7549066,107.975688 86.1165769,108.303224 C85.3711246,108.685726 84.696218,109.042342 83.4887816,109.687708 C82.2140119,110.369065 81.9576583,110.505624 81.3919385,110.802616 C76.341005,113.45426 73.0185485,114.717145 69.3590533,115.017258 C67.0506573,115.211466 64.6776681,114.980545 62.0489253,114.374149 C60.0634561,113.916143 58.3867705,113.39008 55.0947563,112.256152 C53.1856084,111.598549 52.6427849,111.414234 51.7378429,111.123885 C50.9725331,110.878337 50.256748,110.65926 49.0038165,110.283209 C48.8077112,110.224365 48.8077112,110.224365 48.6112561,110.165432 C48.4518139,110.117597 48.3337787,110.082161 48.217722,110.047276 C47.9188671,109.957445 47.6684123,109.881851 47.4283394,109.808929 C41.4944366,108.006509 38.1763501,106.553424 35.1526582,103.983087 C33.3932514,102.486569 31.8740221,100.622593 30.4171561,98.2795984 C29.3145386,96.5063211 28.4776749,94.906705 26.8590529,91.6077654 C26.7765088,91.4395108 26.7765088,91.4395108 26.6940012,91.2713132 C26.6115013,91.1031541 26.5778245,91.0345296 26.5289961,90.9350918 C26.0612378,89.9825145 25.7449907,89.3456988 25.4189621,88.7044181 C25.0382204,87.9555197 24.6832458,87.277493 24.0408486,86.0644746 C23.3626278,84.7838118 23.2266969,84.526273 22.9310714,83.9579379 C20.2916298,78.8836541 19.034556,75.545838 18.7358236,71.8694252 C18.5425097,69.5503575 18.7723678,67.1663981 19.3759735,64.5255027 C19.8318723,62.5308548 20.3555146,60.8464178 21.4842247,57.5391848 C22.138801,55.621211 22.3222675,55.075878 22.6112804,54.1667525 C22.8556987,53.3979047 23.0737681,52.6788106 23.4480885,51.4200868 C23.5066611,51.2230749 23.5066611,51.2230749 23.5653229,51.0257116 C23.6129385,50.8655324 23.6482116,50.7469514 23.6829357,50.6303583 C23.772353,50.3301218 23.847599,50.0785091 23.9201855,49.8373263 C25.7143118,43.8759913 27.1607105,40.5425654 29.7192191,37.5048951 C31.2088502,35.7373546 33.0642489,34.211102 35.3964621,32.747501 C37.1615793,31.6397861 38.7538345,30.7990537 42.0375934,29.1729488 C42.2050737,29.0900231 42.2050737,29.0900231 42.3724973,29.0071341 C42.5398826,28.9242528 42.6081914,28.8904203 42.7071716,28.8413661 C43.6553654,28.3714455 44.2892507,28.0537364 44.9275804,27.7262005 C45.6730326,27.3436986 46.3479392,26.987083 47.5553756,26.341716 C48.8301453,25.6603599 49.0864989,25.5238005 49.6522188,25.2268084 C54.7031523,22.5751647 58.0256088,21.3122795 61.6851039,21.0121661 C63.9934999,20.8179585 66.3664891,21.0488793 68.9952319,21.6552754 C70.9807011,22.1132818 72.6573868,22.6393449 75.9494009,23.7732729 C77.8585488,24.4308753 78.4013723,24.61519 79.3063143,24.905539 C80.0716242,25.1510873 80.7874092,25.3701648 82.0403408,25.7462156 C82.2364461,25.805059 82.2364461,25.805059 82.4329012,25.863992 C82.5923433,25.9118278 82.7103786,25.9472639 82.8264352,25.9821485 C83.1252901,26.0719792 83.375745,26.1475731 83.6158179,26.2204951 C89.5497206,28.0229156 92.8678072,29.4760009 95.891499,32.0463374 C97.6509059,33.542855 99.1701351,35.4068312 100.627001,37.7498261 C101.729619,39.5231034 102.566482,41.1227195 104.185104,44.4216591 C104.267648,44.5899137 104.267648,44.5899137 104.350156,44.7581113 C104.432656,44.9262704 104.466333,44.9948949 104.515161,45.0943327 Z M105.451874,50.7941819 C104.805109,49.572916 104.446623,48.8881832 104.060167,48.1280442 C103.729593,47.4778236 103.410232,46.8347386 102.939152,45.8753959 C102.890207,45.7757209 102.856441,45.7069146 102.77385,45.5385703 C102.691309,45.3703045 102.691309,45.3703045 102.608847,45.2022159 C99.3974573,38.6570314 97.6614248,35.8650688 94.7561551,33.3939022 C91.9675196,31.0233792 88.82503,29.6471928 83.1072201,27.9104104 C82.8689723,27.8380427 82.620061,27.7629148 82.3227018,27.6735337 C82.2069879,27.638752 82.0892128,27.603394 81.9300349,27.5556376 C81.7336644,27.4967299 81.7336644,27.4967299 81.5372939,27.4378069 C80.2743855,27.0587617 79.5503806,26.8371684 78.7716722,26.5873212 C77.8501668,26.2916579 77.3017724,26.1054516 75.3794423,25.4433086 C68.8096019,23.1803395 65.6460597,22.4505763 61.8299212,22.7716299 C58.4643919,23.0476371 55.3233289,24.2415735 50.466118,26.7915165 C49.9059056,27.0856174 49.6509425,27.221436 48.3807918,27.9003233 C47.1651458,28.5500782 46.483564,28.9102211 45.7269229,29.2984641 C45.0796943,29.6305661 44.4395686,29.9514029 43.4846405,30.4246611 C43.3854242,30.4738322 43.3169346,30.5077544 43.1493649,30.5907269 C42.9818734,30.6736495 42.9818734,30.6736495 42.8145583,30.7564935 C36.2994927,33.982729 33.5203779,35.7267871 31.0605828,38.6454877 C28.7009682,41.447015 27.3311145,44.6040322 25.6023244,50.3482753 C25.5302897,50.5876245 25.4555074,50.8376865 25.3665376,51.1364204 C25.331916,51.2526692 25.2967207,51.3709889 25.2491841,51.5309026 C25.1905475,51.7281809 25.1905475,51.7281809 25.1318956,51.9254592 C24.7545946,53.194206 24.534021,53.921558 24.2853236,54.7038662 C23.9910208,55.6296318 23.8056714,56.1805613 23.1465754,58.1117784 C20.8940198,64.7119909 20.1676147,67.890158 20.4871909,71.7239383 C20.7619279,75.1050264 21.9503703,78.2606104 24.4885793,83.140276 C24.7813268,83.7030783 24.9165204,83.9592201 25.5922837,85.2352426 C26.2390486,86.4565084 26.5975342,87.1412413 26.9839906,87.9013803 C27.3145644,88.5516009 27.6339248,89.1946859 28.1050052,90.1540286 C28.1539501,90.2537036 28.1877161,90.3225099 28.2703068,90.4908542 C28.3528479,90.65912 28.3528479,90.65912 28.4353106,90.8272086 C31.6467,97.372393 33.3827324,100.164356 36.2880022,102.635522 C39.0766377,105.006045 42.2191272,106.382232 47.9369371,108.119014 C48.1751849,108.191382 48.4240962,108.26651 48.7214554,108.355891 C48.8371693,108.390672 48.9549445,108.42603 49.1141223,108.473787 C49.3104928,108.532695 49.3104928,108.532695 49.5068633,108.591618 C50.7697718,108.970663 51.4937767,109.192256 52.272485,109.442103 C53.1939905,109.737767 53.7423848,109.923973 55.664715,110.586116 C62.2345554,112.849085 65.3980975,113.578848 69.214236,113.257795 C72.5797653,112.981787 75.7208283,111.787851 80.5780392,109.237908 C81.1382517,108.943807 81.3932148,108.807988 82.6633654,108.129101 C83.8790114,107.479346 84.5605933,107.119203 85.3172344,106.73096 C85.9644629,106.398858 86.6045886,106.078022 87.5595167,105.604763 C87.658733,105.555592 87.7272227,105.52167 87.8947923,105.438698 C88.0622838,105.355775 88.0622838,105.355775 88.229599,105.272931 C94.7446645,102.046696 97.5237793,100.302637 99.9835744,97.3839367 C102.343189,94.5824095 103.713043,91.4253923 105.441833,85.6811492 C105.513868,85.4418 105.58865,85.191738 105.67762,84.8930041 C105.712241,84.7767552 105.747437,84.6584356 105.794973,84.4985219 C105.85361,84.3012436 105.85361,84.3012436 105.912262,84.1039653 C106.289563,82.8352185 106.510136,82.1078665 106.758834,81.3255583 C107.053136,80.3997927 107.238486,79.8488632 107.897582,77.9176461 C110.150137,71.3174336 110.876543,68.1392665 110.556966,64.3054862 C110.282229,60.9243981 109.093787,57.7688141 106.555578,52.8891485 C106.26283,52.3263462 106.127637,52.0702044 105.451874,50.7941819 Z" id="Shape" fill="#000000" fill-rule="nonzero"></path>
    </g>
</svg>