<?xml version="1.0" encoding="UTF-8"?>
<svg width="400px" height="124px" viewBox="0 0 400 124" version="1.1" xmlns="http://www.w3.org/2000/svg" xmlns:xlink="http://www.w3.org/1999/xlink">
    <!-- Generator: Sketch 49.3 (51167) - http://www.bohemiancoding.com/sketch -->
    <title>client-mlg</title>
    <desc>Created with Sketch.</desc>
    <defs></defs>
    <g id="Client-Logos" stroke="none" stroke-width="1" fill="none" fill-rule="evenodd">
        <g id="client-mlg" fill="#111111" fill-rule="nonzero">
            <path d="M261.451282,124 L200.030769,124 C183.035897,124 169.230769,109.56249 169.230769,92.6141079 L169.230769,0.57626556 L200,0.57626556 L200,93.1286307 L261.451282,93.1286307 L261.451282,124 Z M107.820513,0.57626556 C120.012745,0.53935372 131.718373,5.37221708 140.353562,14.0080759 C148.988751,22.6439348 153.843484,34.3727176 153.846154,46.6054772 L153.846154,124 L123.076923,124 L123.076923,46.6054772 C123.097387,42.5319653 121.499223,38.6181735 118.636018,35.7300144 C115.772814,32.8418554 111.880599,31.2174166 107.820513,31.2160996 C99.3137843,31.1987701 92.3865714,38.0708599 92.3076923,46.6054772 L92.3076923,124 L61.6410256,124 L61.6410256,46.6054772 C61.6410254,38.0521678 54.7301388,31.1183407 46.2051282,31.1183407 C37.6801176,31.1183407 30.769231,38.0521678 30.7692308,46.6054772 L30.7692308,124 L-3.67911503e-05,124 L-1.09314277e-14,46.6054772 C-0.0143679388,35.2400901 4.18002867,24.2746204 11.7692308,15.8370124 C28.8553381,-3.10848364 57.960869,-4.71514109 77.0153846,12.2353527 C85.5180799,4.70160551 96.476892,0.553927775 107.820513,0.57626556 Z M323.589744,46.8215768 L400,46.8215768 L400,124 L369.230769,124 L369.466667,99.0765145 C369.466667,99.0765145 359.830769,108.168133 357.435897,110.277676 C351.946926,115.149328 345.497872,118.807917 338.507692,121.015768 C333.523077,122.528465 328.338462,124 323.123077,124 C289.133333,124 261.707692,95.8453112 261.707692,61.9485477 C261.707692,28.0517842 289.133333,0.57626556 323.123077,0.57626556 L353.820513,0.57626556 L353.820513,31.1955187 L323.128205,31.1955187 C312.19313,31.1955185 302.088703,37.048677 296.621166,46.5501658 C291.153628,56.0516547 291.153628,67.7579718 296.621166,77.2594607 C302.088703,86.7609496 312.19313,92.614108 323.128205,92.6141079 C328.609784,92.7983768 333.934005,90.7580695 337.897436,86.9543568 L347.589744,77.6929461 L323.589744,77.6929461 L323.589744,46.8215768 Z" id="Combined-Shape"></path>
        </g>
    </g>
</svg>
