<?xml version="1.0" encoding="UTF-8"?>
<svg width="400px" height="168px" viewBox="0 0 400 168" version="1.1" xmlns="http://www.w3.org/2000/svg" xmlns:xlink="http://www.w3.org/1999/xlink">
    <!-- Generator: Sketch 55.2 (78181) - https://sketchapp.com -->
    <title>client-bevi</title>
    <desc>Created with Sketch.</desc>
    <g id="client-bevi" stroke="none" stroke-width="1" fill="none" fill-rule="evenodd">
        <path d="M395.262992,27.8149083 C392.11816,30.9067166 388.278868,32.4583043 383.750762,32.4583043 C379.222656,32.4583043 375.422887,30.9067166 372.351454,27.8149083 C369.291312,24.7230999 367.755595,20.9038072 367.755595,16.3456633 C367.755595,11.7932028 369.291312,7.92275892 372.351454,4.75706544 C375.422887,1.58000501 379.222656,-4.26325641e-14 383.750762,-4.26325641e-14 C388.278868,-4.26325641e-14 392.11816,1.58000501 395.262992,4.75706544 C398.407823,7.92275892 400,11.7932028 400,16.3456633 C400,20.9038072 398.407823,24.7230999 395.262992,27.8149083 Z M107.025904,133.836654 C104.360984,140.67387 100.67978,146.613098 95.9935864,151.648653 C91.3130376,156.695576 85.768649,160.685373 79.3886494,163.606677 C72.9973579,166.533664 66.0979244,168 58.6621196,168 C51.875607,168 45.693218,166.49388 40.1036609,163.487324 C34.5423339,160.475084 30.6239978,156.695576 28.3599449,152.137432 C28.3599449,157.019533 26.9089185,160.725157 23.9955735,163.242935 C21.0765826,165.766396 18.0164412,167.022443 14.7869193,167.022443 C10.7443709,167.022443 7.26642427,165.561791 4.35872535,162.62912 C1.45667246,159.707816 -5.68434189e-14,156.212481 -5.68434189e-14,152.137432 L-5.68434189e-14,14.9952706 C-5.68434189e-14,10.9315886 1.45667246,7.4760381 4.35872535,4.62293552 C7.26642427,1.78119991 10.7443709,0.360332075 14.7869193,0.360332075 C18.8238217,0.360332075 22.2566002,1.78119991 25.0909009,4.62293552 C27.9139095,7.4760381 29.3254139,10.9315886 29.3254139,14.9952706 L29.3254139,71.3639382 C30.3021749,69.5793285 31.7136792,67.789035 33.5768649,65.9987415 C35.4174665,64.208448 37.6532894,62.5772921 40.2391653,61.1166395 C42.8250412,59.6559876 45.693218,58.4738254 48.8436957,57.5815205 C51.9941733,56.6835319 55.2632174,56.2402213 58.6621196,56.2402213 C66.0979244,56.2402213 72.9973579,57.7008733 79.3886494,60.627861 C85.768649,63.5548486 91.3130376,67.5446457 95.9935864,72.5915684 C100.67978,77.6328073 104.360984,83.5663512 107.025904,90.4035668 C109.679532,97.2294162 111.023284,104.475842 111.023284,112.120111 C111.023284,119.770063 109.679532,127.005122 107.025904,133.836654 Z M79.9984189,100.650866 C78.8692155,97.0702785 77.1641185,93.9386864 74.9057116,91.2560875 C72.6360123,88.5678059 69.886402,86.4592378 66.6625261,84.9076504 C63.4273585,83.3674299 59.7066329,82.5944778 55.5059963,82.5944778 C51.3166513,82.5944778 47.5789878,83.3674299 44.3494659,84.9076504 C41.12559,86.4592378 38.3816256,88.5678059 36.1175727,91.2560875 C33.8478737,93.9386864 32.1484225,97.0702785 31.0248651,100.650866 C29.8900156,104.231453 29.3254139,108.056429 29.3254139,112.120111 C29.3254139,116.189476 29.8900156,120.008769 31.0248651,123.583672 C32.1484225,127.169943 33.8478737,130.301535 36.1175727,132.984134 C38.3816256,135.666732 41.12559,137.786667 44.3494659,139.326888 C47.5789878,140.878475 51.3166513,141.645744 55.5059963,141.645744 C59.7066329,141.645744 63.4273585,140.878475 66.6625261,139.326888 C69.886402,137.786667 72.6360123,135.666732 74.9057116,132.984134 C77.1641185,130.301535 78.8692155,127.169943 79.9984189,123.583672 C81.1106844,120.008769 81.6978703,116.189476 81.6978703,112.120111 C81.6978703,108.056429 81.1106844,104.231453 79.9984189,100.650866 Z M231.330879,118.95619 C229.236207,120.7408 226.808419,121.638788 224.064455,121.638788 L156.425168,121.638788 C157.232548,127.975858 159.982159,133.153501 164.668353,137.131931 C169.354547,141.121728 175.339326,143.110943 182.611396,143.110943 C187.771856,143.110943 192.187041,142.377775 195.81743,140.917123 C199.459112,139.450787 202.643465,137.580925 205.398722,135.301853 C208.950067,132.539686 212.428013,131.158603 215.815623,131.158603 C218.728969,131.158603 221.472933,132.295297 224.064455,134.574369 C227.130242,137.336536 228.671605,140.672734 228.671605,144.571595 C228.671605,147.504266 227.452065,150.027727 225.03557,152.141978 C218.892703,157.836817 211.987624,161.900498 204.309041,164.338708 C196.630457,166.7826 188.997041,167.998863 181.403148,167.998863 C173.797963,167.998863 166.650105,166.538211 159.93699,163.60554 C153.235168,160.684236 147.36331,156.694439 142.366584,151.647517 C137.358567,146.611961 133.400709,140.672734 130.487364,133.835518 C127.585312,127.003985 126.128639,119.768926 126.128639,112.118974 C126.128639,104.474705 127.540143,97.2339629 130.368798,90.4024304 C133.191807,83.5652142 137.110143,77.6316704 142.123806,72.5904314 C147.13747,67.5435087 152.992389,63.5537122 159.699858,60.6324077 C166.407326,57.6997369 173.56083,56.2390849 181.160369,56.2390849 C188.754263,56.2390849 195.81743,57.6201684 202.36681,60.3880184 C208.910544,63.1501859 214.562208,67.0149459 219.333092,71.9766163 C224.098331,76.9382868 227.819057,82.8377301 230.478331,89.6635789 C233.148897,96.500795 234.481357,103.99161 234.481357,112.118974 C234.481357,114.886824 233.436844,117.165896 231.330879,118.95619 Z M197.274103,86.7422749 C192.988776,83.0025509 187.619413,81.1270051 181.160369,81.1270051 C174.690033,81.1270051 169.354547,82.8775144 165.153911,86.3728491 C160.953273,89.8738676 158.209309,94.7105016 156.905079,100.894118 L205.630208,100.894118 C204.342917,95.2049633 201.55943,90.4819989 197.274103,86.7422749 Z M346.266289,76.0044925 L308.443619,159.216195 C307.314416,161.495267 305.694009,163.365129 303.604982,164.825781 C301.499018,166.292117 299.15592,167.025284 296.581337,167.025284 C293.989815,167.025284 291.641072,166.292117 289.540753,164.825781 C287.434789,163.365129 285.820027,161.495267 284.69647,159.216195 L246.8738,76.0044925 C246.060774,74.0493788 245.659906,72.2590853 245.659906,70.6336125 C245.659906,66.8938885 246.907676,63.7225115 249.414508,61.113798 C251.92134,58.5221349 255.037941,57.2149369 258.753021,57.2149369 C261.338897,57.2149369 263.721516,57.9481047 265.906525,59.4087567 C268.091533,60.8694087 269.74017,62.7449544 270.87502,65.0240259 L296.581337,121.875789 L322.259423,65.0240259 C323.399919,62.7449544 325.054202,60.8694087 327.233564,59.4087567 C329.412927,57.9481047 331.795546,57.2149369 334.375776,57.2149369 C338.102148,57.2149369 341.207458,58.5221349 343.719935,61.113798 C346.22112,63.7225115 347.468891,66.8938885 347.468891,70.6336125 C347.468891,72.2590853 347.056732,74.0493788 346.266289,76.0044925 Z M394.162018,162.755861 C391.271257,165.597597 387.787664,167.024148 383.750762,167.024148 C379.708214,167.024148 376.26979,165.597597 373.452427,162.755861 C370.618126,159.908442 369.206622,156.452892 369.206622,152.383526 L369.206622,72.0988113 C369.206622,68.0351294 370.618126,64.5341109 373.452427,61.6071233 C376.26979,58.6801356 379.708214,57.2137999 383.750762,57.2137999 C387.787664,57.2137999 391.271257,58.6801356 394.162018,61.6071233 C397.081009,64.5341109 398.537681,68.0351294 398.537681,72.0988113 L398.537681,152.383526 C398.537681,156.452892 397.081009,159.908442 394.162018,162.755861 Z" id="Combined-Shape" fill="#3B67B2" fill-rule="nonzero"></path>
    </g>
</svg>