<?xml version="1.0" encoding="UTF-8"?>
<svg width="399px" height="100px" viewBox="0 0 399 100" version="1.1" xmlns="http://www.w3.org/2000/svg" xmlns:xlink="http://www.w3.org/1999/xlink">
    <!-- Generator: Sketch 49.3 (51167) - http://www.bohemiancoding.com/sketch -->
    <title>client-harvard</title>
    <desc>Created with Sketch.</desc>
    <defs></defs>
    <g id="Client-Logos" stroke="none" stroke-width="1" fill="none" fill-rule="evenodd">
        <g id="client-harvard" transform="translate(200.000000, 49.000000) scale(-1, 1) rotate(-180.000000) translate(-200.000000, -49.000000) translate(-0.000000, -2.000000)" fill-rule="nonzero">
            <path d="M0.943716897,0.588965796 L0.946364793,32.2350261 C2.48555278,58.7943869 13.8159269,75.7819449 23.0405681,85.3603011 C33.0469942,95.7426205 42.8263827,99.8956007 42.9260066,99.9388527 L43.066817,99.9951721 L43.1999458,99.9158112 C80.4815381,76.3342863 84.5071268,44.71575 84.5071268,32.2172273 L84.5071268,0.588965796 L0.943716897,0.588965796 Z M377.010609,12.2646516 C373.08412,12.2646516 368.045252,12.6588741 366.242323,12.6588741 C365.120467,12.6588741 361.080499,12.505277 359.841755,12.505277 L359.841755,13.5292358 C361.995334,13.9231568 363.205894,14.7041441 363.205894,16.680473 L363.205894,45.3618041 C363.205894,47.3981878 361.979931,48.2788251 359.749603,48.679365 L359.749603,49.700768 C360.98832,49.700768 364.754127,49.5446151 365.865981,49.5446151 C367.685689,49.5446151 372.342709,49.8543651 376.275884,49.8543651 C389.904684,49.8543651 398.253422,41.7708249 398.253422,30.8680395 C398.253422,19.6444028 390.226233,12.2657395 377.011265,12.2657395 L377.010609,12.2646516 Z M173.764912,12.318389 C173.764912,12.318389 173.17586,14.7529534 172.671685,15.9380587 L160.771751,44.563031 C159.913675,46.5994147 158.621449,48.1200508 156.270852,48.674201 L156.265608,49.6240546 L161.649751,49.5445626 C162.411022,49.5445626 165.658561,49.6239235 166.890489,49.6239235 L166.898354,48.674201 C164.818313,48.1200115 164.276674,47.2977382 164.276674,46.2628354 C164.276674,45.5951684 164.607098,44.6011715 164.88088,43.9000956 L167.359153,37.6999842 L181.217351,37.6999842 L183.918467,43.8668046 C184.302438,44.7614792 184.617407,45.6230987 184.617407,46.3908876 C184.617407,47.2922596 184.037924,48.2235936 182.208214,48.674332 L182.202971,49.6240546 C183.568604,49.6240546 187.604417,49.5446937 188.562641,49.5446937 C189.527576,49.5446937 193.760514,49.6240546 195.119461,49.6240546 L195.129948,48.674332 C192.629128,48.0433768 191.657009,46.6163223 190.76223,44.6399672 L178.178169,15.9415975 C177.680692,14.7564791 177.084941,12.3168162 177.084941,12.3168162 L173.756588,12.3168162 L173.753967,12.3168162 L173.764912,12.318389 Z M291.656592,12.318389 C291.656592,12.318389 291.063202,14.7529534 290.555697,15.9380587 L278.653141,44.563031 C277.801751,46.5994147 276.50533,48.1200508 274.154864,48.674201 L274.146999,49.6240546 L279.531142,49.5445626 C280.299084,49.5445626 283.542442,49.6239235 284.7745,49.6239235 L284.7745,48.674201 C282.697737,48.1200115 282.157933,47.2977382 282.157933,46.2628354 C282.157933,45.5951684 282.484254,44.6011715 282.764708,43.9000956 L285.242981,37.6999842 L299.095936,37.6999842 L301.809767,43.8668046 C302.18704,44.7614792 302.501025,45.6230987 302.501025,46.3908876 C302.501025,47.2922596 301.93233,48.2235936 300.089342,48.674332 L300.089342,49.6240546 C301.451567,49.6240546 305.493017,49.5446937 306.441278,49.5446937 C307.40953,49.5446937 311.646885,49.6240546 313.005701,49.6240546 L313.005701,48.674332 C310.514975,48.0433768 309.536302,46.6163223 308.648208,44.6399672 L296.051038,15.9415975 C295.566028,14.7567543 294.963041,12.3165541 294.963041,12.3165541 L291.63731,12.3165541 L291.656592,12.318389 Z M216.213835,12.3567876 C214.183868,12.3567876 209.028336,12.6563013 207.212036,12.6563013 C206.113579,12.6563013 202.194273,12.5027042 200.952252,12.5027042 L200.952252,13.5292188 C203.286071,13.9264689 204.239576,15.0301949 204.239576,16.7828191 L204.239576,45.2570647 C204.239576,47.2534731 203.016418,48.2823468 200.94963,48.6796101 L200.94963,49.7010131 C202.191677,49.7010131 206.155368,49.547416 207.140202,49.547416 C208.298775,49.547416 212.342269,49.7010131 213.58429,49.7010131 L213.58429,48.6796101 C211.354027,48.2055548 210.143336,47.1665758 210.143336,45.2570647 L210.143336,32.493394 C210.764359,32.5634754 211.29698,32.6405426 211.861322,32.7340194 C214.719346,33.2080747 216.278459,34.4903135 217.570685,36.1361184 C219.590689,38.7200988 223.122091,43.9511028 225.138687,46.4114873 C227.482599,49.2458052 229.887597,50.3077078 232.919307,50.3077078 C234.32492,50.3077078 236.16665,50.0973195 237.315208,49.8469296 L237.315208,49.0124016 C234.914536,48.9023055 232.668543,46.5277697 230.922243,44.4046199 C229.169388,42.2780623 224.844796,36.0854217 223.272313,34.2392159 C221.980166,32.7336524 220.699266,31.986441 220.699266,31.986441 C226.361962,30.6110269 230.054336,27.2718399 230.054336,22.3176489 C230.054336,16.0314267 225.104998,12.3571022 216.213179,12.3571022 L216.213835,12.3567876 Z M333.362269,12.3567876 C331.335579,12.3567876 326.187781,12.6563013 324.368204,12.6563013 C323.259732,12.6563013 319.353849,12.5027042 318.10842,12.5027042 L318.10842,13.5292188 C320.435554,13.9264689 321.385519,15.0301949 321.385519,16.7828191 L321.385519,45.2570647 C321.385519,47.2534731 320.164145,48.2823468 318.100686,48.6796101 L318.100686,49.7010131 C319.342733,49.7010131 323.297379,49.547416 324.298992,49.547416 C325.464237,49.547416 329.499224,49.7010131 330.737968,49.7010131 L330.737968,48.6796101 C328.507574,48.2055548 327.291901,47.1665758 327.291901,45.2570647 L327.291901,32.493394 C327.922939,32.5634754 328.449123,32.6405426 329.020112,32.7340194 C331.871451,33.2080747 333.427024,34.4903135 334.71925,36.1361184 C336.755902,38.7200988 340.274982,43.9511028 342.294986,46.4114873 C344.628805,49.2458052 347.045731,50.3077078 350.080718,50.3077078 C351.472961,50.3077078 353.326095,50.0973195 354.461283,49.8469296 L354.461283,49.0124016 C352.073981,48.9023055 349.829693,46.5277697 348.073561,44.4046199 C346.327391,42.2780623 342.001096,36.0854217 340.418519,34.2392159 C339.136413,32.7336524 337.848093,31.986441 337.848093,31.986441 C343.514067,30.6110269 347.19556,27.2718399 347.19556,22.3176489 C347.19556,16.0314267 342.263919,12.3571022 333.362269,12.3571022 L333.362269,12.3567876 Z M111.227371,12.5026649 L111.227371,13.5317484 C113.053764,14.0057905 114.189607,14.79012 114.189607,16.6829856 L114.189607,45.5176647 C114.189607,47.4906121 112.966934,48.2844832 111.227371,48.6817465 L111.227371,49.6237885 C112.138864,49.6237885 116.078265,49.5495523 117.036488,49.5495523 C118.141631,49.5495523 122.270278,49.6237885 123.178428,49.6237885 L123.178428,48.6817465 C121.358982,48.2085956 120.149077,47.4916606 120.149077,45.5177958 L120.149077,31.8894779 L141.629808,31.8894779 L141.629808,45.5177958 C141.629834,47.4907432 140.402272,48.2846143 138.672815,48.6818775 L138.672815,49.6239196 C139.577636,49.6239196 143.636965,49.5496834 144.735449,49.5496834 C145.690343,49.5496834 149.718213,49.6239196 150.616269,49.6239196 L150.616269,48.6818775 C148.796562,48.2078223 147.584953,47.4140429 147.584953,45.5177958 L147.584953,16.6831167 C147.584953,14.7101693 148.876759,13.9257349 150.616269,13.5318794 L150.616269,12.5026649 C149.718134,12.5027959 145.690265,12.6589488 144.735449,12.6589488 C143.636965,12.6589488 139.577688,12.5027959 138.672815,12.5027959 L138.672815,13.5318794 C140.489115,13.9258005 141.629808,14.7101431 141.629808,16.6831167 L141.629808,28.7274932 L120.149077,28.7274932 L120.149077,16.6831167 C120.149077,14.7101693 121.438301,13.9257349 123.177773,13.5318794 L123.177773,12.5027959 C122.26961,12.5027959 118.140871,12.6589488 117.035833,12.6589488 C116.077596,12.6589488 112.138143,12.5027959 111.226716,12.5026649 L111.227371,12.5026649 Z M236.103205,12.5794621 L236.103205,13.6264624 C238.219949,14.0938332 239.46682,15.4039893 240.281507,17.2001277 L255.000926,49.8803045 L258.019397,49.8803045 L271.348015,18.4269122 C272.610091,15.4790905 273.990406,14.1791708 276.250818,13.5682688 L276.250818,12.5801437 C274.935259,12.5801437 271.469923,12.7362966 270.628495,12.7362966 C269.69696,12.7362966 266.784326,12.5801437 265.582286,12.5801437 L265.582286,13.6015466 C267.088179,13.9120175 268.163068,14.7009605 268.163068,15.8594331 C268.163068,16.9043494 267.631745,18.255857 266.923918,20.0218501 L257.855529,41.8444595 L248.270013,20.0598594 C247.268348,17.8064292 246.73135,16.6041542 246.73135,15.7362304 C246.73135,14.5043604 248.098031,13.8315687 249.296663,13.6012845 L249.296663,12.5798815 C247.947809,12.5798815 243.718516,12.7360344 242.793718,12.7360344 C241.792079,12.7360344 237.422684,12.5798815 236.103848,12.5798815 L236.103205,12.5794621 Z M375.3406,14.7166361 C385.724285,14.7166361 391.820476,21.5146738 391.820476,31.1799272 C391.820476,40.4973295 386.042426,47.1766208 374.940793,47.1766208 C372.977549,47.1766208 370.489968,47.0261562 369.144391,46.7823983 L369.144391,15.1088139 C370.573338,14.8784642 373.223331,14.7171473 375.340206,14.7171473 L375.3406,14.7166361 Z M214.47435,14.7192574 C220.56438,14.7192574 223.908857,17.8140049 223.908857,22.8316323 C223.908857,26.3670261 221.721983,30.3653475 214.773877,30.3653475 C213.047632,30.3653475 211.31077,30.2893288 210.132194,30.1324026 L210.132194,15.1082241 C211.390914,14.8745453 213.218959,14.7191133 214.47435,14.7191133 L214.47435,14.7192574 Z M331.635893,14.7192574 C337.712552,14.7192574 341.057553,17.8140049 341.057553,22.8316323 C341.057553,26.3670261 338.876578,30.3653475 331.925195,30.3653475 C330.202358,30.3653475 328.472837,30.2893288 327.28089,30.1324026 L327.28089,15.1082241 C328.546309,14.8745453 330.367131,14.7191133 331.635893,14.7191133 L331.635893,14.7192574 Z M174.033634,20.9935525 L179.94775,34.7791505 L168.518801,34.7791505 L174.033503,20.9935525 L174.033634,20.9935525 Z M291.912206,20.9935525 L297.836546,34.7791505 L286.405106,34.7791505 L291.912206,20.9935525 Z M291.999246,66.7725376 C287.982571,66.7725376 285.47323,68.8174407 285.47323,72.1124581 C285.47323,75.6444441 289.130866,77.1847403 290.990555,78.1128237 C293.491375,79.3647206 295.581115,80.4498745 295.581115,82.5363256 C295.581115,84.5526561 293.95148,85.8283285 291.377252,85.8283285 C290.211982,85.8283285 288.769992,85.5193518 287.851749,84.8683696 C286.970314,84.287495 286.33904,83.2873118 286.051966,82.1855649 L285.511756,82.1855649 L285.568122,86.2787786 C287.01057,86.4557187 288.653314,87.2361817 291.39782,87.2361817 C296.008698,87.2361817 298.530623,84.9001795 298.530623,81.6786905 C298.530623,78.2735771 295.583331,76.7408828 292.86229,75.5323166 C290.44497,74.4540175 288.310137,73.3545119 288.310137,71.1778868 C288.310137,69.6522701 289.292192,68.157192 291.909834,68.157192 C294.250338,68.157192 296.387531,68.9753498 297.101939,71.3288757 L297.64983,71.3288757 L297.685747,67.3354037 C295.892781,67.4189325 294.650498,66.7722231 291.999456,66.7722231 L291.999246,66.7725376 Z M257.351131,66.8877322 C256.970515,67.0513035 256.313378,67.0950797 255.932802,67.0950797 L243.725607,67.0950797 L243.725607,67.6454551 C244.960982,67.8524357 245.461421,68.4325108 245.461421,69.3605943 L245.461421,84.3533167 C245.461421,85.4082466 244.821496,85.9502337 243.722986,86.1605958 L243.722986,86.7032907 C244.347352,86.7032907 246.503539,86.6162492 247.084503,86.6162492 L253.180432,86.6162492 C255.303992,86.6162492 256.425285,86.6179531 258.298343,86.7852074 L258.84111,82.71244 L258.298343,82.5844402 C257.674004,84.0666738 256.94477,85.1136348 254.427303,85.1136348 L248.659084,85.1136348 L248.659084,77.0116142 L252.747724,77.0116142 C253.325332,77.0116142 254.062234,77.0798738 254.376049,77.1600866 C255.260853,77.3804229 255.622828,77.974509 255.886661,78.7522852 L256.426871,78.7522852 C256.426871,78.101303 256.385973,76.6679311 256.385973,76.2641145 C256.385973,75.8568247 256.386929,74.4996943 256.426871,73.8987533 L255.886661,73.8987533 C255.69634,74.6832663 255.290963,75.1934304 254.376049,75.3937004 C254.062221,75.4670978 253.342045,75.5165754 252.747724,75.5165754 L248.659084,75.5165754 L248.659084,68.6073931 L253.958809,68.6073931 C256.319369,68.6073931 256.807657,69.6038672 257.271825,70.852435 L257.812035,70.852435 L257.896453,66.8871424 L257.351118,66.8871424 L257.351131,66.8877322 Z M312.987101,66.9670931 L312.997587,71.0065695 L313.54291,71.0065695 C314.0404,69.2172466 315.042248,68.8025515 316.331066,68.8025515 L320.527326,68.8025515 L320.527326,84.3536182 C320.527326,85.408548 319.953283,85.9312683 318.747992,86.158407 L318.747992,86.7036708 C319.409101,86.7036708 321.635641,86.6166293 322.15316,86.6166293 C322.767512,86.6166293 324.86188,86.7036708 325.509697,86.7036708 L325.509697,86.158407 C324.331094,85.9080171 323.730363,85.3618752 323.730363,84.3536182 L323.730363,68.8025515 L327.895818,68.8025515 C329.23471,68.8025515 330.194113,69.2573006 330.691577,71.0065695 L331.231787,71.0065695 L331.242274,66.9670931 C329.880049,67.0506219 328.811977,67.1770095 322.11765,67.1770095 C315.423322,67.1770095 314.353415,67.0504908 312.987913,66.9670931 L312.987101,66.9670931 Z M271.928979,66.9773163 C270.85721,66.9773163 268.135409,67.1385939 267.177185,67.1385939 C266.592891,67.1385939 264.523783,67.0566772 263.869412,67.0566772 L263.869412,67.5993721 C265.101444,67.8096948 265.600114,68.389783 265.600114,69.3145112 L265.600114,84.3544177 C265.600114,85.4093475 264.956859,85.9513347 263.861678,86.1616967 L263.861678,86.7043916 C264.522761,86.7043916 266.612082,86.6173502 267.136156,86.6173502 C267.743809,86.6173502 269.884331,86.7043916 270.538703,86.7043916 L270.538703,86.1616967 C269.3601,85.91132 268.718339,85.3626091 268.718339,84.3544177 L268.718339,77.6141804 C269.052223,77.6508791 269.330829,77.6955204 269.624667,77.7421801 C271.137114,77.99257 271.964647,78.6686908 272.645759,79.5366147 C273.714185,80.89866 275.52515,83.6009937 276.593615,84.8996028 C277.832306,86.3917975 279.099154,86.9552533 280.695102,86.9552533 C281.439659,86.9552533 282.414661,86.8421821 283.022367,86.712059 L283.022367,86.2717535 C281.753618,86.2116332 280.569523,84.9589892 279.648003,83.8373202 C278.716468,82.7156118 276.481276,79.5072688 275.656627,78.5358023 C274.972159,77.7412758 274.292043,77.3480101 274.292043,77.3480101 C277.28705,76.6235781 279.233253,74.8574802 279.233253,72.2436165 C279.233253,68.9185848 276.619963,66.9778799 271.928861,66.9778799 L271.928979,66.9773163 Z M159.62921,67.0950666 L159.629341,67.6352057 C160.751184,67.8822534 161.298564,68.5021597 161.298564,69.3401216 L161.298564,80.1480147 C161.298564,84.5213181 164.118967,86.9957267 169.557903,86.9957267 C175.40084,86.9957267 178.106544,84.3203928 178.106544,79.6667377 L178.106544,69.3017191 C178.106544,68.4704546 178.640633,67.9223729 179.852583,67.6352057 L179.852583,67.0950666 C179.391836,67.0950666 177.60292,67.1769833 177.105456,67.1769833 C176.524492,67.1769833 174.814895,67.0950666 174.36082,67.0950666 L174.36082,67.6352057 C175.609539,67.8822534 176.10948,68.5104955 176.10948,69.3017191 L176.10948,80.2554894 C176.10948,83.7908832 173.509298,85.2908108 170.167181,85.2908108 C166.287489,85.2908108 164.434879,83.3789405 164.434879,80.007249 L164.434879,69.3401216 C164.434879,68.4521184 164.978747,67.8421601 166.017063,67.6352057 L166.017063,67.0950666 C165.39604,67.0950666 163.400234,67.1769833 162.896085,67.1769833 C162.315121,67.1769833 160.250286,67.0950666 159.62921,67.0950666 Z M184.594283,67.0950666 L184.594283,67.6377615 C185.729484,67.9448902 186.394066,68.5054625 186.394066,69.7573726 L186.394066,84.4971363 C186.394066,85.2816492 185.892133,85.9214383 184.630069,86.158538 L184.630069,86.7038018 C185.090829,86.7038018 186.818516,86.6167604 187.325942,86.6167604 C187.910236,86.6167604 189.553452,86.7038018 190.014212,86.7038018 L190.014212,86.158538 C188.765506,85.9115035 188.306581,85.288373 188.306581,84.4971363 L188.306581,71.5081618 L199.745755,84.8297836 C201.144683,86.3620847 202.059912,86.8826817 202.544136,86.9929088 L203.314765,86.9929088 L203.314765,69.3015225 C203.314765,68.470258 203.906164,67.9246666 205.124904,67.6376304 L205.124904,67.0947521 C204.657459,67.0949356 202.895428,67.1768523 202.388002,67.1768523 C201.800352,67.1768523 200.157215,67.0949356 199.699732,67.0949356 L199.699732,67.6376304 C200.948451,67.8813228 201.44577,68.5103513 201.44577,69.3015225 L201.44577,82.1189306 L188.665083,67.0947521 C188.140865,67.1615044 187.362724,67.1715441 186.8653,67.1715441 C186.314393,67.1715441 185.235402,67.1380827 184.594283,67.0947521 L184.594283,67.0950666 Z M220.02497,67.0949356 L220.02497,67.6428862 C221.140154,67.8899208 221.796832,68.584771 222.224166,69.5295917 L229.984206,86.7727298 L231.579235,86.7727298 L238.614774,70.1770613 C239.289201,68.624707 240.013047,67.966621 241.208271,67.6427551 L241.208271,67.0949356 C240.507116,67.0949356 238.682414,67.1794081 238.238432,67.1794081 C237.754287,67.1794081 236.194833,67.0949356 235.560387,67.0949356 L235.560387,67.6299499 C236.358347,67.7902052 236.914746,68.2152677 236.914746,68.8228668 C236.914746,69.3737009 236.640964,70.0911864 236.267008,71.019283 L231.48454,82.536247 L226.428107,71.0423507 C225.890558,69.8505479 225.611389,69.2152806 225.611389,68.7513044 C225.611389,68.1003091 226.333937,67.7535852 226.96837,67.6300679 L226.96837,67.0950535 C226.253857,67.0950535 224.14469,67.179526 223.660597,67.179526 C223.133063,67.179526 220.719597,67.0950535 220.02497,67.0949356 Z M332.687606,67.0950666 L332.687711,67.6377615 C333.675992,68.0016421 334.357196,68.7715149 335.245421,70.2437612 L340.24811,78.263865 L340.24811,84.4562434 C340.24811,85.1172522 339.700218,85.9515837 338.558306,86.158538 L338.558306,86.7063576 C339.276135,86.7063576 341.262044,86.6142046 341.766324,86.6142046 C342.367318,86.6142046 344.441486,86.7063576 345.079341,86.7063576 L345.079341,86.158538 C343.937455,85.9515575 343.433057,85.117226 343.433057,84.4562434 L343.433057,78.2407973 L347.839182,70.876027 C348.703943,69.4272155 349.592299,68.1802467 351.011283,67.599359 L351.011283,67.0950666 C350.393576,67.0950666 348.878678,67.1769833 348.461307,67.1769833 C348.043962,67.1769833 346.7251,67.0950666 346.100747,67.0950666 L346.100747,67.6377615 C346.731785,67.7212903 346.999393,68.0302801 346.999393,68.4108455 C346.999393,68.8281488 346.735075,69.463521 346.364448,70.0978053 L342.664866,76.4591287 C342.664866,76.4591287 339.126778,70.5852424 338.829611,70.0978053 C338.525771,69.6037361 338.220267,69.0348017 338.220267,68.5875234 C338.220267,68.090099 338.533846,67.7546468 339.198284,67.6378008 L339.198284,67.095106 C338.447029,67.095106 336.371852,67.1770227 335.877665,67.1770227 C335.326772,67.1770227 333.398736,67.095106 332.687606,67.0950666 Z M210.776996,67.1181082 L210.776996,67.6582472 C211.952255,67.908624 212.551217,68.4599168 212.551217,69.4681476 L212.551217,84.3533954 C212.551217,85.4083252 211.976401,85.9310455 210.774374,86.1581842 L210.774374,86.7034479 C211.428785,86.7034479 213.63987,86.6164065 214.164074,86.6164065 C214.775083,86.6164065 216.862831,86.7034479 217.520611,86.7034479 L217.520611,86.1581842 C216.342008,85.9077943 215.741277,85.3616524 215.741277,84.3533954 L215.741277,69.4681476 C215.741277,68.4132178 216.352049,67.9087157 217.520611,67.6582472 L217.520611,67.1181082 C216.859528,67.1181082 214.681594,67.2000249 214.164074,67.2000249 C213.549736,67.2000249 211.427959,67.1181082 210.776865,67.1181082 L210.776996,67.1181082 Z M303.365537,67.1181082 L303.365537,67.6582472 C304.540797,67.908624 305.149983,68.4599168 305.149983,69.4681476 L305.149983,84.3533954 C305.149983,85.4083252 304.567472,85.9310455 303.365537,86.1581842 L303.365537,86.7034479 C304.023277,86.7034479 306.236931,86.6164065 306.757859,86.6164065 C307.372184,86.6164065 309.462515,86.7034479 310.116886,86.7034479 L310.116886,86.1581842 C308.934941,85.9077943 308.337552,85.3616524 308.337552,84.3533954 L308.337552,69.4681476 C308.337552,68.4132178 308.944982,67.9087157 310.116886,67.6582472 L310.116886,67.1181082 C309.455803,67.1181082 307.275379,67.2000249 306.757859,67.2000249 C306.140178,67.2000249 304.023316,67.1181082 303.365537,67.1181082 Z M271.019256,68.2265394 C274.231207,68.2265394 276.001496,69.8626453 276.001496,72.5066544 C276.001496,74.3761901 274.843041,76.4899031 271.170265,76.4899031 C270.265445,76.4899031 269.341906,76.4480011 268.717553,76.3644723 L268.717553,68.433887 C269.38865,68.3103304 270.354792,68.2265394 271.019256,68.2265394 Z" id="Shape" fill="#000000" transform="translate(199.598570, 50.292069) scale(-1, 1) rotate(-180.000000) translate(-199.598570, -50.292069) "></path>
            <path d="M2.37698934,98.4223714 L2.37698934,68.0096489 C3.87559374,42.1895044 14.879429,25.664612 23.8485438,16.3536319 C32.9317891,6.91822592 41.8157868,2.77966307 43.0200115,2.24316328 C79.1921964,25.183335 83.1019943,55.8721713 83.1019943,68.0089499 L83.1019943,98.4223714 L2.37698934,98.4223714 Z" id="Shape" fill="#A51C30"></path>
            <path d="M73.3113325,18.6723541 C71.0278498,20.5551276 67.7323987,19.6834028 67.7323987,19.6834028 C64.7082915,19.6132821 63.7028775,19.8165666 63.7028775,19.8165666 C63.0317275,20.7546111 61.8821211,19.8831485 61.8821211,19.8831485 C61.6894277,19.6127578 60.7430014,19.6118403 60.7430014,19.6118403 C54.6266233,20.0156569 53.0116688,18.9410409 53.0116688,18.9410409 C52.813732,18.6706502 51.7362217,18.7388049 51.7362217,18.7388049 C51.5998944,19.0093266 51.1319246,19.6118403 51.1319246,19.6118403 C50.8618916,19.815387 48.7763457,19.6834028 48.7763457,19.6834028 C47.6319826,19.6134131 47.4353566,20.3515809 47.4353566,20.3515809 L47.3687922,23.1111908 C47.4355795,24.7168892 47.0308446,24.4525276 47.0308446,24.4525276 C46.6969606,24.9232145 44.880281,24.787875 44.880281,24.787875 C43.4012605,24.9247479 43.5361459,27.1430129 43.5361459,27.1430129 C43.8065853,28.6185621 46.0221535,28.1490549 46.0221535,28.1490549 C47.5714349,28.2859409 47.3022671,29.0910969 47.3022671,29.0910969 C47.2321765,29.7587901 47.3688315,38.4986731 47.3688315,38.4986731 C47.3020442,39.7772945 46.2909674,39.3101596 46.2909674,39.3101596 C43.1357762,39.2367098 43.5361066,41.3862565 43.5361066,41.3862565 C43.5995381,43.4059947 45.8864422,43.1371769 45.8864422,43.1371769 C47.3688708,43.1371769 47.3022802,44.0101075 47.3022802,44.0101075 C47.435881,44.2805112 47.1640259,47.3713136 47.1640259,47.3713136 C47.3676911,48.9203912 48.8487171,48.4439112 48.8487171,48.4439112 L60.1393728,48.7178145 C63.4314157,51.1415003 64.1691562,48.7792454 64.1691562,48.7792454 C64.299362,48.5155261 64.7810562,48.5821342 64.7810562,48.5821342 C65.6524894,48.852538 75.8711534,48.6512457 76.1383026,48.6512457 C78.0180467,49.051838 77.9509317,47.3713005 77.9509317,47.3713005 L78.0815045,44.0100944 C78.221725,43.4058112 79.1619248,43.2677193 79.1619248,43.2677193 C82.2569484,43.7417615 81.990979,41.1891322 81.990979,41.1891322 C81.9175196,39.236238 79.7660908,39.3767415 79.7660908,39.3767415 C78.1567729,39.4434938 78.2223149,38.2350324 78.2223149,38.2350324 C78.2890759,37.3570426 78.3528876,29.6977393 78.3528876,29.6977393 C78.2894561,29.2236971 78.7599689,28.5534612 78.7599689,28.5534612 C82.4527354,28.8873013 81.8476518,26.533723 81.8476518,26.533723 C82.1214469,24.4539563 79.9018414,24.8569864 79.9018414,24.8569864 C77.9519673,24.8569864 78.3529532,23.7152773 78.3529532,23.7152773 C78.6859064,21.0872585 78.0199999,20.0819767 78.0199999,20.0819767 C77.6857357,19.6814368 75.6644209,19.8823621 75.6644209,19.8823621 C74.9972035,20.349746 74.0507772,18.8046004 74.0507772,18.8046004 L73.3114636,18.6715677 L73.3113325,18.6723541 Z M33.3149913,18.6749099 C31.0312463,20.55113 27.7388102,19.6809518 27.7388102,19.6809518 C24.7137854,19.6141602 23.7039145,19.8140632 23.7039145,19.8140632 C23.0361596,20.7554499 21.8937759,19.8831799 21.8937759,19.8831799 C21.6905958,19.6126582 20.7520346,19.6117407 20.7520346,19.6117407 C14.6291023,20.0155573 13.0205709,18.938451 13.0205709,18.938451 C12.8168664,18.6747447 11.7379142,18.7387053 11.7379142,18.7387053 C11.6076167,19.009227 11.1387294,19.6117407 11.1387294,19.6117407 C10.8649605,19.8120107 8.77816921,19.6782977 8.77816921,19.6782977 C7.63962627,19.6115415 7.43914645,20.354104 7.43914645,20.354104 L7.37258069,23.1059809 C7.43934569,24.7217715 7.03718925,24.4575409 7.03718925,24.4575409 C6.69663309,24.9248724 4.88151334,24.7877635 4.88151334,24.7877635 C3.40249289,24.9246365 3.54511226,27.1377899 3.54511226,27.1377899 C3.80889253,28.6200235 6.02849809,28.1515124 6.02849809,28.1515124 C7.57764846,28.2883853 7.3009302,29.0858739 7.3009302,29.0858739 C7.23748555,29.7568962 7.37261609,38.5011831 7.37261609,38.5011831 C7.29915663,39.7764623 6.29475192,39.3101138 6.29475192,39.3101138 C3.13628363,39.2333218 3.54500346,41.3913223 3.54500346,41.3913223 C3.6084481,43.4076527 5.89022678,43.1346407 5.89022678,43.1346407 C7.37265541,43.1346407 7.30095248,44.0101271 7.30095248,44.0101271 C7.44134341,44.2801246 7.17052393,47.3706779 7.17052393,47.3706779 C7.3741891,48.9197555 8.84997177,48.4432756 8.84997177,48.4432756 L20.1457397,48.7120672 C23.4377826,51.1390297 24.1781448,48.7786229 24.1781448,48.7786229 C24.3150358,48.5149035 24.7823633,48.5815116 24.7823633,48.5815116 C25.6571522,48.8485339 35.871674,48.653192 36.1421002,48.653192 C38.0285297,49.0504422 37.9573511,47.3706779 37.9573511,47.3706779 L38.09048,44.0094718 C38.2273841,43.4085047 39.168331,43.2670968 39.168331,43.2670968 C42.2568005,43.7411389 41.9947636,41.1909999 41.9947636,41.1909999 C41.9280025,39.2312902 39.772497,39.3759879 39.772497,39.3759879 C38.159902,39.4360689 38.2287211,38.2342788 38.2287211,38.2342788 C38.2954822,37.356289 38.3567377,29.6969856 38.3567377,29.6969856 C38.2932931,29.2262857 38.7689313,28.5527076 38.7689313,28.5527076 C42.4616978,28.8865477 41.8566142,26.5329694 41.8566142,26.5329694 C42.1270667,24.4564793 39.9083131,24.8562328 39.9083131,24.8562328 C37.9584391,24.8562328 38.3568033,23.7145237 38.3568033,23.7145237 C38.6976216,21.0931892 38.0264717,20.0812231 38.0264717,20.0812231 C37.6856533,19.6772754 35.6761361,19.8816084 35.6761361,19.8816084 C34.9944994,20.352269 34.0585598,18.8089584 34.0585598,18.8089584 L33.3153137,18.6733043 L33.3149913,18.6749099 Z M28.745404,58.0512855 C28.2833855,58.042373 27.8672463,58.8781331 27.8672463,58.8781331 C27.1994914,59.9530899 25.0484166,59.3491607 25.0484166,59.3491607 C23.3622835,59.8165446 23.6352003,60.6904975 23.6352003,60.6904975 L23.7043209,63.9210301 C23.5707725,64.7923486 22.3576952,64.4534887 22.3576952,64.4534887 C20.2075248,63.9794334 19.4671626,65.4595306 19.4671626,65.4595306 C19.0631749,66.1305529 19.3340337,66.9417642 19.3340337,66.9417642 C19.6712472,68.2170303 21.2823348,68.1500421 21.2823348,68.1500421 C21.8866712,68.5506344 22.8287324,68.2857224 22.8287324,68.2857224 C23.703495,68.2857224 23.4995153,69.2917643 23.4995153,69.2917643 C23.5696059,69.8292427 23.435507,77.8315477 23.435507,77.8315477 C23.435507,78.5025701 23.2998088,78.9067012 23.2998088,78.9067012 C23.2998088,79.5142741 21.1492452,79.1754928 21.1492452,79.1754928 C19.7402236,79.3090236 19.2649131,80.6577264 19.2649131,80.6577264 C18.8609123,81.6625887 20.2736436,82.6672414 20.2736436,82.6672414 C20.3437473,82.9376976 22.9644043,83.0742691 22.9644043,83.0742691 C23.5687407,83.1410476 23.5686227,84.1443109 23.5686227,84.1443109 C23.4350744,84.5516008 23.7708853,87.9790611 23.7708853,87.9790611 C23.9712209,88.857064 26.5922056,88.5857559 26.5922056,88.5857559 C26.5922056,88.5857559 38.9616824,88.3774384 39.2321086,88.4475198 C39.4992184,88.5142721 40.1691493,88.3784083 40.1691493,88.3784083 L41.1113153,89.1207834 C42.3233046,90.132317 43.7995854,88.7879918 43.7995854,88.7879918 L45.146211,88.5166444 C45.5535545,88.6535305 56.9770638,88.4475329 56.9770638,88.4475329 C57.9186137,88.7145945 58.3902801,88.3195332 58.3902801,88.3195332 L60.2694999,88.1812971 C61.5515929,88.1812971 61.4830491,86.5634095 61.4830491,86.5634095 L61.4830491,84.2133831 C61.5531528,82.9381432 62.289517,82.8771579 62.289517,82.8771579 L64.0355555,82.5955741 L64.8445926,82.1987958 C65.9196909,81.8616267 65.3822466,79.9153514 65.3822466,79.9153514 C64.7745807,78.7702869 62.691486,78.9707535 62.691486,78.9707535 C61.2791873,79.1042843 61.4164846,78.1643917 61.4164846,78.1643917 L61.6110657,69.360902 C61.6811825,68.6197852 62.1564012,68.0169438 62.1564012,68.0169438 C62.620504,68.0803801 64.035621,67.6815965 64.035621,67.6815965 C65.4479197,67.4078637 65.3822466,66.0688205 65.3822466,66.0688205 C65.5825823,65.1307366 63.9690304,64.3895936 63.9690304,64.3895936 L62.015617,64.3895936 C61.3418454,64.2506629 61.6079459,61.8298605 61.6079459,61.8298605 L61.6079459,60.6241515 C61.745584,59.6804711 60.2669568,59.2073203 60.2669568,59.2073203 L57.7143587,59.2738759 C57.4439193,58.8766127 56.508491,58.6748617 56.508491,58.6748617 C56.0377029,58.4645389 55.3589501,58.4649452 55.3589501,58.4649452 C53.4757978,59.8136218 49.1093907,59.4837793 49.1093907,59.4837793 L44.6724605,59.1433073 C44.4687953,59.3469981 43.0569816,59.4837793 43.0569816,59.4837793 C42.9267759,59.8142771 42.4553324,60.0136821 42.4553324,60.0136821 L42.0508204,59.9522511 C41.6468196,59.4848803 40.1664883,59.2738759 40.1664883,59.2738759 C40.0329399,59.0068013 33.9835195,59.4837924 33.9835195,59.4837924 C30.4877722,59.613981 29.2061642,58.4009585 29.2061642,58.4009585 C29.0559157,58.1480783 28.8967667,58.0532253 28.7427561,58.0502501 L28.745404,58.0512855 Z" id="Shape" fill="#000000" transform="translate(42.762213, 54.084672) scale(-1, 1) rotate(-180.000000) translate(-42.762213, -54.084672) "></path>
            <path class="do-not-touch" d="M13.2251929,19.8842824 C13.2251929,19.8842824 12.4116203,19.9552472 12.4750387,20.4961019 L12.2780195,42.0709952 C12.2780195,42.0709952 12.2115363,43.0730658 13.8910077,43.2767042 C13.8910077,43.2767042 15.8456008,43.4803426 16.3130463,43.2767042 C16.3130463,43.2767042 17.5876413,43.208982 20.8830268,43.3458157 C20.8830268,43.3458157 21.6918411,44.1517843 21.7586284,43.1435797 C21.7586284,43.1435797 22.2953255,25.6658322 22.0248861,22.0365946 C22.0248861,22.0365946 21.9591344,20.4939393 20.8138931,20.4238186 C20.8138931,20.4238186 15.7084346,20.824424 15.237712,20.4238186 L13.2257042,19.8835615 L13.2251929,19.8842824 Z M53.2136692,19.8918843 C53.2136692,19.8918843 52.4095345,19.9567767 52.4763218,20.4908985 L52.2744525,42.0723452 C52.2744525,42.0723452 52.2079929,43.0726333 53.8874408,43.2729426 C53.8874408,43.2729426 55.8342999,43.4765809 56.3017454,43.2729426 C56.3017454,43.2729426 57.5914806,43.2044733 60.8768381,43.344623 C60.8768381,43.344623 61.6882217,44.1580231 61.7549959,43.1398312 C61.7549959,43.1398312 62.28759,25.6712583 62.0238229,22.0354674 C62.0238229,22.0354674 61.9521855,20.4877005 60.8102737,20.4175798 C60.8102737,20.4175798 55.7056017,20.8281856 55.231471,20.4175798 L53.2140886,19.891478 L53.2136692,19.8918843 Z M32.5810521,19.9226024 C32.4148376,19.9407617 32.1991914,20.0015255 31.9153946,20.1350747 C31.9153946,20.1350747 32.0445647,20.6758428 25.6607229,20.4755467 C25.6607229,20.4755467 23.2392087,20.4066475 23.1056341,21.4815886 C23.1056341,21.4815886 22.9038828,31.6315268 22.9673799,31.9720381 L22.8393633,40.5067099 L22.565424,43.4583325 C22.565424,43.4583325 22.9673406,44.0704141 23.3078967,43.6631243 C23.3078967,43.6631243 25.4570184,43.1274939 26.8025954,43.327777 C26.8025954,43.327777 31.1054267,43.7358925 31.976873,43.0615542 C31.976873,43.0615542 32.6529255,43.394136 32.8499184,42.3191792 C32.8499184,42.3191792 33.1191911,23.5045511 32.9856166,23.1637776 C32.9856166,23.1637776 33.2556758,20.4767787 33.1187455,20.2096647 C33.1187455,20.2096647 33.0797349,19.8684718 32.5810914,19.9229563 L32.5810521,19.9226024 Z M72.5747717,20.0096386 C72.4083999,20.0284191 72.1902893,20.0911306 71.9039888,20.2246666 C71.9039888,20.2246666 72.033159,20.765212 65.6493171,20.5548892 C65.6493171,20.5548892 63.23108,20.4902956 63.0942284,21.5686117 C63.0942284,21.5686117 62.8942991,31.7193362 62.9610995,32.0565709 L62.8273938,40.5916359 L62.5534283,43.5458799 C62.5534283,43.5458799 62.9620171,44.1546192 63.2959011,43.7506716 C63.2959011,43.7506716 65.4476444,43.206784 66.7932214,43.420449 C66.7932214,43.420449 71.1019515,43.8191015 71.9699896,43.1414211 C71.9699896,43.1414211 72.6434728,43.4757854 72.8404658,42.4041707 C72.8404658,42.4041707 73.1048884,23.5908533 72.9812762,23.2540118 C72.9812762,23.2540118 73.2410191,20.5558722 73.1041674,20.292166 C73.1041674,20.292166 73.0732972,19.9542367 72.5741949,20.0105822 L72.5747717,20.0096386 Z M9.49716479,20.5319395 C9.2236712,20.5380996 8.8262246,20.7089188 8.24777725,21.2384677 L8.18118659,23.9948009 C8.18118659,23.9948009 8.18025367,25.5394223 6.7679703,25.4693016 C6.7679703,25.4693016 5.1511806,25.400675 4.41003182,26.1451078 C4.41003182,26.1451078 4.00934745,27.6230162 5.55189119,27.3559415 C5.55189119,27.3559415 7.97261888,27.3553373 8.10960163,28.3568587 L7.97390351,38.5094182 C7.97390351,38.5094182 8.51365487,40.1886451 6.62727787,40.1886451 C6.62727787,40.1886451 4.34667894,40.0582468 4.41012358,41.473715 C4.41012358,41.473715 4.88146222,42.6822419 6.83465271,42.2749652 C6.83465271,42.2749652 8.24813117,42.5464437 8.18127835,43.8851199 L8.18127835,46.444984 C8.18127835,46.444984 8.03910467,47.4541454 9.38458988,47.5175817 L19.8764198,47.5175817 C19.8764198,47.5175817 20.4140739,47.5826694 20.4140739,46.9083311 C20.4140739,46.9083311 20.3431705,46.3784283 19.5384723,46.3784283 L10.8048716,46.2381869 C10.8048716,46.2381869 9.3835281,46.7085854 9.25336172,44.6254109 C9.25336172,44.6254109 9.38592694,25.6744734 9.32248754,25.3336999 C9.25572254,25.0032021 9.38393315,25.6024916 9.38393315,25.6024916 C9.38393315,25.6024916 9.19172472,22.3186148 10.0598283,20.9665305 C10.0598283,20.9665305 9.95240501,20.5210871 9.4965736,20.5313497 L9.49716479,20.5319395 Z M49.4935061,20.5319395 C49.2200125,20.5387811 48.8199966,20.7101771 48.2415493,21.2384677 L48.1724287,23.992966 C48.1724287,23.992966 48.1707246,25.5400776 46.761703,25.470088 C46.761703,25.470088 45.1500256,25.3996789 44.4088768,26.1407826 C44.4088768,26.1407826 44.004876,27.6238026 45.5507362,27.3567279 C45.5507362,27.3567279 47.9697598,27.3561237 48.1033343,28.3576451 L47.9709395,38.5100735 C47.9709395,38.5100735 48.5124736,40.1970333 46.6294262,40.1970333 C46.6294262,40.1970333 44.3396514,40.0572245 44.4096502,41.469298 C44.4096502,41.469298 44.8825487,42.6737226 46.8290671,42.273104 C46.8290671,42.273104 48.243332,42.5389073 48.1732021,43.8909916 L48.1732021,46.4381423 C48.1732021,46.4381423 48.0353542,47.4549842 49.3841951,47.5184205 L59.8709128,47.5184205 C59.8709128,47.5184205 60.4059976,47.5852907 60.4059976,46.9142815 C60.4059976,46.9142815 60.3376242,46.3766983 59.5329521,46.3766983 L50.7975163,46.2390782 C50.7975163,46.2390782 49.3846933,46.7128189 49.2511187,44.6263022 C49.2511187,44.6263022 49.3844573,25.674054 49.3176831,25.3372125 C49.2509221,25.0067147 49.3842476,25.6111157 49.3842476,25.6111157 C49.3842476,25.6111157 49.1835973,22.3168847 50.0550305,20.9649315 C50.0550305,20.9649315 49.9501633,20.5209036 49.4943319,20.5323064 L49.4935061,20.5319395 Z M36.505444,20.6804118 C35.7382358,20.6149165 35.7399399,21.435579 35.7399399,21.435579 C36.0070366,21.6459017 36.2110294,22.6489685 36.2110294,22.6489685 C36.3012152,24.9858882 36.1933593,27.5034178 36.1828726,29.9037737 C36.1494855,37.9726344 35.8065174,45.2988711 35.8065174,45.2988711 C35.8065174,46.9079772 34.9334719,46.4431491 34.9334719,46.4431491 L25.5144332,46.5148295 C24.5795554,46.5148295 24.5799487,47.047288 24.5799487,47.047288 C24.713497,47.7850757 25.660369,47.5157467 25.660369,47.5157467 C26.5318152,47.7160167 35.8731212,47.5848582 35.8731212,47.5848582 C37.2854199,47.7851675 37.1506787,45.90301 37.1506787,45.90301 C37.3543438,42.7515107 37.619199,42.4087712 37.619199,42.4087712 C37.9597552,42.1417096 39.5009094,42.2065352 39.5009094,42.2065352 C41.9916359,42.3434213 40.847535,40.6629624 40.847535,40.6629624 C40.5145818,40.1255889 38.8353961,40.1950542 38.8353961,40.1950542 C37.216509,40.2579662 37.355458,38.5776909 37.355458,38.5776909 L37.5551514,28.8347149 C37.3548157,28.0268196 38.0287971,27.6238812 38.0287971,27.6238812 L39.572573,27.6238812 C41.7227434,27.7607542 41.1778273,26.4156033 41.1778273,26.4156033 C41.1143958,25.7412388 39.2986075,25.4735612 39.2986075,25.4735612 C37.4855851,25.7406228 37.6882409,24.7311862 37.6882409,24.7311862 L37.6213881,22.3785385 C37.8914211,20.8329997 36.886007,20.7685149 36.886007,20.7685149 C36.7431255,20.7180542 36.6172849,20.6907923 36.5071743,20.6814866 L36.505444,20.6804118 Z M76.496542,20.6804118 C75.7293337,20.6171525 75.7310378,21.435579 75.7310378,21.435579 C76.0014902,21.6425595 76.2072396,22.6489685 76.2072396,22.6489685 C76.2974254,24.9858882 76.1835134,27.5026314 76.1765135,29.906264 C76.1431265,37.9751247 75.8001584,45.29874 75.8001584,45.29874 C75.8001584,46.9111228 74.9220006,46.4378933 74.9220006,46.4378933 L65.515677,46.5070048 C64.5707844,46.5070048 64.5709548,47.0471439 64.5709548,47.0471439 C64.7078589,47.7916029 65.6513751,47.5181715 65.6513751,47.5181715 C66.5194656,47.7151254 75.8692396,47.5847271 75.8692396,47.5847271 C77.2781301,47.7917077 77.1416717,45.9055003 77.1416717,45.9055003 C77.3453369,42.7440399 77.6127613,42.4137517 77.6127613,42.4137517 C77.9499748,42.1400189 79.4997151,42.2064042 79.4997151,42.2064042 C81.9904416,42.3432902 80.8387378,40.6653216 80.8387378,40.6653216 C80.5015243,40.1245272 78.8263367,40.194294 78.8263367,40.194294 C77.2103335,40.2577303 77.3465297,38.581518 77.3465297,38.581518 L77.5462231,28.8334305 C77.3458874,28.0255352 78.0173126,27.6225968 78.0173126,27.6225968 L79.5688225,27.6225968 C81.7146671,27.7589061 81.1785337,26.4089189 81.1785337,26.4089189 C81.1077483,25.7417893 79.2961679,25.4704812 79.2961679,25.4704812 C77.4832765,25.7430999 77.6864567,24.7273328 77.6864567,24.7273328 L77.6122107,22.3850394 C77.8826501,20.8326852 76.8748634,20.7646615 76.8748634,20.7646615 C76.7317066,20.7145849 76.6055514,20.6892221 76.4959521,20.6801851 L76.496542,20.6804118 Z M34.3831945,20.8544684 C34.2030983,20.8698229 34.0039424,21.0026787 33.7892269,21.3050103 L33.7226624,42.5417515 C33.7226624,42.5417515 34.2603689,44.4297676 35.1385004,44.226221 C35.1385004,44.226221 35.2688503,43.8236496 35.3356376,43.1459429 L35.6070207,22.9144835 C35.6070207,22.9144835 35.1636292,20.7872705 34.3832339,20.8537214 L34.3831945,20.8544684 Z M74.3769141,20.8544684 C74.197683,20.8696001 74.0009129,21.0032947 73.7880587,21.3050103 L73.7214943,42.5391301 C73.7214943,42.5391301 74.2581914,44.4289812 75.1295983,44.2287113 C75.1295983,44.2287113 75.2624912,43.8253403 75.3292916,43.1509889 L75.6006748,22.9155975 C75.6006748,22.9155975 75.1535605,20.7893021 74.3768879,20.8548354 L74.3769141,20.8544684 Z M51.4647468,21.1002185 C50.1892998,20.9700693 50.056905,23.4600749 50.056905,23.4600749 L49.9186507,43.6194476 C49.9887675,44.5575315 50.325732,44.4283783 50.325732,44.4283783 C51.5978233,43.6872353 51.4010269,42.2088944 51.4010269,42.2088944 C51.4010269,42.2088944 51.5981641,23.1216475 51.5981641,22.784806 C51.5981641,22.4442816 51.4650352,21.1003365 51.4650352,21.1003365 L51.4647468,21.1002185 Z M11.4710272,21.1053302 C10.1923031,20.9717732 10.0629232,23.4574536 10.0629232,23.4574536 L9.92476071,43.6246903 C9.99488146,44.5627479 10.3292727,44.4259405 10.3292727,44.4259405 C11.6080362,43.6881528 11.4045677,42.2064566 11.4045677,42.2064566 C11.4045677,42.2064566 11.6068302,23.1165883 11.6068302,22.7797469 C11.6068302,22.4425777 11.4711321,21.1056316 11.4711321,21.1056316 L11.4710272,21.1053302 Z M52.4242815,43.7051652 C52.2081502,43.6832509 51.7203081,43.7447212 51.2670591,44.5960127 C51.2670591,44.5960127 50.9994249,45.5371373 52.0044064,45.3434993 L58.9272131,45.3434993 L60.8038112,45.7479581 C60.8038112,45.7479581 62.7536853,45.2741912 60.8038112,44.1992737 C60.8038112,44.1992737 54.6258237,44.2595906 54.0883794,44.132718 C54.0883794,44.132718 52.8106646,43.7950246 52.5368695,43.7282592 C52.5368695,43.7282592 52.4962597,43.7125181 52.424216,43.7052177 L52.4242815,43.7051652 Z M12.2313143,43.8689986 C12.0134527,43.8472416 11.522268,43.9111628 11.0715226,44.7649577 C11.0715226,44.7649577 10.804675,45.7099618 11.8063138,45.4996522 L18.7291205,45.4996522 L20.6134526,45.9015552 C20.6134526,45.9015552 22.5700119,45.4354557 20.6134526,44.3604726 C20.6134526,44.3604726 14.4286487,44.4281948 13.8876651,44.2913612 C13.8876651,44.2913612 12.6168584,43.9554371 12.3463798,43.892014 C12.3463798,43.892014 12.303788,43.8762204 12.2311688,43.8689724 L12.2313143,43.8689986 Z M73.5366659,43.9125128 C73.1370957,43.8838747 72.566343,43.9995542 72.566343,43.9995542 C71.4344985,44.8041073 64.7090387,44.1992213 64.7090387,44.1992213 C64.3050379,44.1992213 63.7028643,44.8699159 63.7028643,44.8699159 C63.4958565,46.0784035 65.5820842,45.6122909 65.5820842,45.6122909 C65.986085,45.6122909 73.5803037,45.5380547 73.5803037,45.5380547 C74.7923061,45.8819083 74.8604174,45.2743878 74.8604174,45.2743878 C74.8604174,44.8036617 73.8516869,43.9995542 73.8516869,43.9995542 C73.7840738,43.9486479 73.6699652,43.9220676 73.5367708,43.9125128 L73.5366659,43.9125128 Z M33.3436987,44.0763462 C32.946488,44.0477081 32.3784881,44.1633876 32.3784881,44.1633876 C31.2366025,44.9679407 24.5134498,44.3604989 24.5134498,44.3604989 C24.109449,44.3604989 23.5072754,45.0311935 23.5072754,45.0311935 C23.3036103,46.2430364 25.3889858,45.7735685 25.3889858,45.7735685 C25.789644,45.7735685 33.389696,45.7070128 33.389696,45.7070128 C34.5983558,46.044182 34.6646974,45.4331096 34.6646974,45.4331096 C34.6646974,44.9657388 33.6559669,44.1634007 33.6559669,44.1634007 C33.5891927,44.1124944 33.4760279,44.0859141 33.34362,44.0763593 L33.3436987,44.0763462 Z M62.9883387,45.5226675 C62.9099112,45.5022211 62.8313132,45.5046458 62.7553632,45.5380285 C62.7553632,45.5380285 61.4801521,45.5398634 61.5469263,47.222498 C61.5469263,47.222498 61.6811694,48.4973316 63.0267332,48.4973316 C63.0267332,48.4973316 64.2348031,48.295751 64.1045974,46.9537588 C64.1045974,46.9537588 63.5373053,45.6659103 62.9883387,45.5227723 L62.9883387,45.5226675 Z M22.7953715,45.6916256 C22.7175863,45.6718214 22.6426325,45.6753209 22.5675082,45.7095424 C22.5675082,45.7095424 21.2871849,45.7086223 21.353959,47.3811674 C21.353959,47.3811674 21.4882021,48.6662373 22.833766,48.6662373 C22.833766,48.6662373 24.0426093,48.4562029 23.9090609,47.1175529 C23.9090609,47.1175529 23.3398419,45.8303466 22.7953584,45.691678 L22.7953715,45.6916256 Z M55.2307893,59.4261075 C52.2024874,60.965093 52.0037641,60.090275 50.9987433,60.2939134 C49.9870897,60.4975387 46.3578464,60.2927967 46.0908283,60.1659137 C45.8170333,60.0223825 44.137415,60.2273446 44.137415,60.2273446 C43.0589741,60.3642176 42.7907894,61.1668309 42.7907894,61.1668309 L42.7242249,65.608289 L42.5245316,66.6194425 L42.053442,66.952234 L41.64893,65.6082758 L41.7154944,61.4407472 C41.318192,59.9585137 39.9719465,60.2273577 39.9719465,60.2273577 C39.0938412,59.9602831 35.6681976,60.2273577 35.6681976,60.2273577 C34.1223243,60.430983 32.5063211,60.1659268 32.5063211,60.1659268 C30.2860208,60.4964246 29.8872634,59.7512185 29.8872634,59.7512185 C28.745404,59.3472709 28.745404,60.022566 28.745404,60.022566 C28.9457003,60.5633866 28.8785329,61.6378323 28.8785329,61.6378323 C29.0120944,62.1753107 28.8119685,66.8165406 28.8119685,66.8165406 C28.6784332,67.2839246 28.8119685,72.3202945 28.8119685,72.3202945 C29.0123172,72.6641611 28.6788396,81.8712577 28.6788396,81.8712577 C28.8791752,83.0830613 31.2314378,83.0129668 31.2314378,83.0129668 C31.4985476,83.2833443 40.1026766,83.0846472 40.1026766,83.0846472 C41.5183835,83.685575 41.5824835,83.0129668 41.5824835,83.0129668 C41.9196839,80.9965053 41.5389374,77.0728918 41.649048,76.2216135 C41.8559902,74.6793513 41.7873022,73.0703762 41.7873022,73.0703762 L42.3940768,72.99614 L42.5246496,76.423797 C42.7917594,79.5184134 42.5246496,82.6776457 42.5246496,82.6776457 C42.5246496,83.5489773 42.860041,83.6145631 42.860041,83.6145631 C44.4693589,82.8801307 45.9502146,82.9464373 45.9502146,82.9464242 C55.2321395,83.2134727 53.7512839,83.0129799 53.7512839,83.0129799 C56.1017505,82.879436 55.9659476,81.3977136 55.9659476,81.3977136 L55.8283094,78.0358522 C56.0353172,77.2980645 56.0331281,66.8158853 56.0331281,66.8158853 C55.759333,65.7442707 56.0331281,60.0219106 56.0331281,60.0219106 C56.0331281,59.4877744 55.2292163,59.4254522 55.2292163,59.4254522 L55.2307893,59.4261075 Z M59.7572499,60.2580798 C59.4300381,60.2847912 59.1274308,60.3707185 59.1274308,60.3707185 C59.1274308,60.3707185 59.2629716,60.3716727 58.9891765,60.301607 C58.7220667,60.2348285 58.7229187,60.7700657 58.7229187,60.7700657 C59.5977076,61.6480686 59.3296933,63.0535102 59.3296933,63.0535102 C59.2629323,81.0044086 59.3296933,81.6767809 59.3296933,81.6767809 L59.1274308,82.3449197 C59.1274308,82.3449197 59.0608663,84.15849 59.0608663,84.7025479 C59.0608663,85.2366841 58.7229187,85.6369095 58.7229187,85.6369095 L57.919007,85.9057011 C57.3781152,86.3764273 53.9558142,86.1104929 53.9558142,86.1104929 C53.9558142,86.1104929 46.0881542,86.309806 45.5505789,86.1796044 C45.0096871,86.0360601 44.2039532,86.448396 44.2039532,86.448396 C43.9368434,87.3898352 45.0104211,87.5235494 45.0104343,87.5235494 C46.8267338,87.3900318 58.3901752,87.451869 58.3901752,87.451869 C60.2064747,87.588742 60.4025763,86.7146187 60.4025763,86.7146187 C60.7431325,86.4475572 60.4691408,84.8996067 60.4691408,84.8996067 C60.6026891,84.5657667 60.8096576,82.6776326 60.8096576,82.6776326 C60.6026498,81.8730926 63.431337,81.9403823 63.431337,81.9403823 C64.9038033,81.8736038 64.3683777,80.5298422 64.3683777,80.5298422 C64.3683777,79.9289406 62.289517,79.9973836 62.289517,79.9973836 C60.6033838,80.0641621 60.6023352,78.9862301 60.6023352,78.9862301 C60.6023352,78.9862301 60.8108636,69.8435397 60.674025,68.5648528 C60.5376977,67.2948162 61.6112754,67.0837988 61.6112754,67.0837988 L63.2267543,66.9532432 C64.4354009,67.1568816 64.4351912,65.9420897 64.4351912,65.9420897 C64.4351912,65.4079535 62.6942649,65.2048394 62.6942649,65.2048394 C61.8829207,65.4084777 61.485828,65.0026034 61.485828,65.0026034 C60.4708317,65.0026034 60.6025449,63.0519374 60.6025449,63.0519374 C61.0766625,62.1071691 60.5359805,60.4996751 60.5359805,60.4996751 C60.4358192,60.2626409 60.0848812,60.2297825 59.7576694,60.2564808 L59.7572499,60.2580798 Z M25.245462,60.3732743 C24.4408162,60.5034629 24.5081147,63.9340951 24.5081147,63.9340951 C24.4413274,65.6099142 22.9643387,65.3446351 22.9643387,65.3446351 C21.0144647,65.0742183 20.345281,66.2841214 20.345281,66.2841214 C20.20839,67.4191723 22.1579101,67.4207189 22.1579101,67.4207189 C22.4984794,67.2971623 23.5686358,67.3541632 23.5686358,67.3541632 C24.713851,67.4209417 24.5082457,69.1767771 24.5082457,69.1767771 L24.3111086,79.1168774 C24.6449925,80.4622773 22.9644829,80.1971555 22.9644829,80.1971555 C20.6740527,80.0669407 20.3454252,81.0700861 20.3454252,81.0700861 C20.4122125,82.482199 22.7623514,82.0761281 22.7623514,82.0761281 C24.4417993,82.2697529 24.3112396,83.2229619 24.3112396,83.2229619 C24.4414454,83.556802 24.4418124,85.3707523 24.4418124,85.3707523 C24.4418124,87.3237775 24.974341,87.3904905 24.974341,87.3904905 C25.1780062,87.7877668 28.5407426,87.5901575 28.5407426,87.5901575 C33.5823632,87.7871246 39.1606416,87.2522544 39.1606416,87.2522544 C39.9051986,87.3891405 39.9056705,86.9169071 39.9056705,86.9169071 C40.3063286,86.3794287 39.2323315,86.177101 39.2323315,86.177101 C38.4911171,85.9734626 26.6616408,86.2411009 26.6616408,86.2411009 C25.4530073,86.6517198 25.5863459,85.0353919 25.5863459,85.0353919 L25.5863459,81.4079892 C25.5195848,80.8638395 25.5863459,79.2577086 25.5863459,79.2577086 C25.5863459,79.2577086 25.7196845,70.7855556 25.6529103,70.4515976 C25.5861492,70.1144284 25.6529103,67.2235552 25.6529103,67.2235552 L25.7194748,62.7258696 C25.6526875,62.3853582 26.4619475,60.905746 26.4619475,60.905746 C26.9327356,60.431717 25.245829,60.3732874 25.245829,60.3732874 L25.245462,60.3732743 Z M57.3479265,60.5678298 C57.1284002,60.5344471 56.907563,60.6370461 56.907563,61.1745245 L56.7744342,81.8122908 L56.7078697,82.2730689 C56.7078697,82.2730689 57.514862,83.8205737 57.9188628,84.0343436 C57.9188628,84.0343436 58.6568393,84.8990956 58.4565168,83.3534126 L58.5896457,63.9909256 C58.5896457,63.9909256 58.3893363,63.3218169 58.5896457,62.2502284 L57.7857339,60.7706162 C57.7857339,60.7706162 57.567466,60.601776 57.3479396,60.5683802 L57.3479265,60.5678298 Z M27.5341881,60.7700657 C26.5930052,61.4450593 26.5261524,62.9890253 26.5261524,62.9890253 L26.2547693,83.6910143 C26.2547693,84.8327496 26.8615438,84.0954731 26.8615438,84.0954731 C28.0067459,83.2241415 27.8037099,81.8759892 27.8037099,81.8759892 L27.9387264,61.5816178 C28.0054874,60.7704065 27.5342144,60.7701312 27.5342144,60.7701312 L27.5341881,60.7700657 Z M28.473798,83.1536407 L27.9387133,83.6272241 C26.6566072,85.1696173 27.4650676,85.3090723 27.4650676,85.3090723 L28.6760606,85.2348361 L39.705597,85.3679475 C40.9074797,85.6350221 41.0497321,84.8354889 41.0497321,84.8354889 C41.109821,84.2979974 40.0973284,84.2262383 40.0973284,84.2262383 L30.9623486,84.093127 C29.4131982,84.1565633 28.4738505,83.1536407 28.4738505,83.1536407 L28.473798,83.1536407 Z M56.2373831,83.3456272 C56.0858763,83.3189158 55.9685561,83.3507389 55.9685561,83.3507389 C55.5011238,83.9616671 53.8845831,83.9599894 53.8845831,83.9599894 C53.8845831,83.9599894 55.0303357,83.6911453 53.1472358,84.0316698 C51.2608064,84.362207 45.1465256,83.9599894 45.1465256,83.9599894 C44.672408,83.8197873 43.4644561,84.6332398 43.4644561,84.6332398 C43.2641205,85.7716199 45.3487882,85.4370458 45.3487882,85.4370458 C45.6826722,85.3702936 56.6394439,85.3704902 56.6394439,85.3704902 C57.7879492,85.4372424 57.7121827,84.7714759 57.7121827,84.7714759 L56.7085776,83.6911978 C56.5733645,83.4574927 56.3889949,83.3723124 56.237488,83.3456141 L56.2373831,83.3456272 Z M42.1248828,85.1682411 C41.1799771,85.3685242 40.8425932,86.4490251 41.0495879,87.3236334 C41.2499235,88.1949649 41.9870742,88.3907524 42.6548422,88.2605507 C43.3292823,88.12702 43.2667422,87.5231038 43.2667422,86.4481601 C43.2667422,85.3698479 42.1248828,85.1682149 42.1248828,85.1682149 L42.1248828,85.1682411 Z" id="Shape" fill="#FFFFFF" transform="translate(42.800625, 54.090350) scale(-1, 1) rotate(-180.000000) translate(-42.800625, -54.090350) "></path>
            <path d="M66.6771728,31.2748371 C66.6771728,31.2748371 65.3291052,31.3389287 65.5327442,31.8764071 L66.1369626,33.217744 L66.1369626,39.8760646 C66.1369626,39.8760646 65.9350146,41.0824944 65.2639171,41.4196374 C65.2639171,41.4196374 65.0615366,42.0985761 65.665873,42.1620124 L67.6116835,42.0980125 C67.6116835,42.0980125 68.3567124,42.2276768 68.3567124,41.6167486 C68.3567124,41.6167486 67.8194647,41.0154407 67.6859295,40.6849428 C67.6859295,40.6849428 67.6125224,34.2993721 67.6859295,33.5581898 L67.9521872,32.6801476 C67.9521872,32.6801476 68.7609229,32.2787819 68.2901348,31.5409943 C68.2901348,31.5409943 67.8187568,31.3385617 67.3479688,31.405314 L66.6771859,31.2747584 L66.6771728,31.2748371 Z M28.7860401,31.3055591 C28.7204588,31.2803681 28.6450461,31.2739065 28.5607329,31.3081804 C28.5607329,31.3081804 26.2709581,31.6477219 26.0005319,31.377305 L24.1827905,31.579541 C24.1827905,31.579541 23.9201244,32.2517429 24.728126,32.5855829 C24.728126,32.5855829 24.9329447,32.7221545 24.9329447,32.9926106 L24.8612549,40.1167424 L24.6641177,40.6492009 C24.6641177,40.6492009 23.9893105,41.5237043 24.4567429,41.5937988 C24.4567429,41.5937988 23.8565487,41.9988212 28.7578701,42.0622575 C28.7578701,42.0622575 30.6444306,42.3954946 30.1737081,39.9785587 C30.1737081,39.9785587 29.97332,39.1069781 29.2955503,40.3855864 C29.2955503,40.3855864 29.0921867,41.4574501 26.6816049,41.120281 C26.6816049,41.120281 26.1413947,40.6509441 26.1413947,40.1168079 L26.1413947,37.1575834 C26.1413947,37.1575834 26.0681843,36.4159948 27.2166897,36.4894446 C27.2166897,36.4894446 28.4902753,37.2958719 28.694006,36.9553475 C28.694006,36.9553475 29.1647941,35.8838508 28.694006,35.2095387 C28.694006,35.2095387 28.0874543,35.1446869 28.020667,35.4117747 C28.020667,35.4117747 27.6153947,36.2178219 26.476891,35.747122 C26.476891,35.747122 25.9389749,34.6711297 26.2695162,33.796456 C26.2695162,33.796456 26.1407131,32.1167048 27.2859282,32.2502618 C27.2859282,32.2502618 28.6278348,32.5187913 28.7580012,32.9260681 C28.7580012,32.9260681 29.0925668,33.7376988 29.4364656,32.7929567 L29.0908365,31.6461229 C29.0908365,31.6461229 28.982902,31.381237 28.7861711,31.3056508 L28.7860401,31.3055591 Z M54.9281164,31.3490733 C54.6259548,31.340685 54.3061754,31.3733599 54.2394144,31.5436287 C54.2394144,31.5436287 54.106587,32.1475579 54.5773619,32.2143233 C54.5773619,32.2143233 55.1124467,32.8166274 55.1124467,33.1538096 L55.0484384,35.97738 L55.1124467,39.8760908 C55.1124467,39.8760908 55.0483466,40.7505286 54.5107975,41.0843687 C54.5107975,41.0843687 54.1067967,41.7562167 54.5107975,41.9598551 L56.6540204,42.1603872 C56.6540204,42.1603872 57.3319605,41.7565968 56.9279597,41.2157893 L56.3237413,40.2123162 L56.4568701,38.1311077 C56.4568701,38.1311077 56.8625357,37.6584549 57.0662009,37.9288718 L59.4831271,41.6944187 C59.4831271,41.6944187 60.5601392,42.4355355 60.8272622,41.6944187 C60.8272622,41.6944187 60.8982179,41.4213412 60.5610044,41.1542797 L58.6075911,38.0618914 L58.7484015,36.986738 C58.7484015,36.986738 60.8287041,36.1793407 60.6249996,34.2297494 C60.6249996,34.2297494 61.027257,32.2801319 58.3361424,31.4088004 L55.5148221,31.4088004 C55.5148221,31.4088004 55.2306976,31.3582741 54.9285359,31.3499252 L54.9281164,31.3490733 Z M13.6353547,31.3805293 C12.7005949,31.444752 13.2334512,32.1826576 13.2334512,32.1826576 L14.1064967,32.7867966 C14.2400581,33.0605556 16.863848,41.32658 16.863848,41.32658 C18.0091025,42.404879 18.1414055,41.0577884 18.1414055,41.0577884 C18.949394,39.7123884 20.4225288,33.1988966 20.4225288,33.1988966 L21.0293034,31.9163825 C20.8289677,31.3822462 19.4163151,31.5119237 19.4163151,31.5119237 C18.8119787,31.5787022 19.2166218,32.2542987 19.2166218,32.2542987 L19.6211338,33.6622174 L18.2745082,38.4364539 C17.8037201,39.5781892 17.4014627,38.0319951 17.4014627,38.0319951 C15.989164,33.9391745 15.8576868,32.8635099 15.8576868,32.8635099 C16.9294424,32.1157087 16.1265138,31.445368 16.1265138,31.445368 L13.635394,31.3813681 L13.6353547,31.3805293 Z M57.4305094,32.2304183 C57.7998647,32.1966162 58.2016109,32.2153194 58.3368371,32.4172933 C58.6072896,32.8178987 60.2843517,34.2999357 58.6082203,35.9090418 C58.6082203,35.9090418 57.8702962,37.3243003 56.5882163,36.3160695 C56.5882163,36.3160695 56.5876552,34.2989527 56.524208,32.8167191 L56.7264705,32.3508162 C56.7264705,32.3508162 57.0611803,32.2642991 57.4305357,32.230497 L57.4305094,32.2304183 Z M42.2273905,69.2095836 C41.8836621,69.1454658 41.7604169,69.8058717 41.5822083,70.1593062 C41.5822083,70.1593062 39.4342663,78.8990974 39.0937102,79.3697581 C39.0937102,79.3697581 38.8945412,80.1764868 38.1566695,80.3066754 C38.1566695,80.3066754 37.755369,80.7750161 38.3563628,80.9184949 C38.3563628,80.9184949 39.635218,81.3192969 40.0358107,80.7751341 C40.0358107,80.7751341 40.5065725,81.0489587 40.0358107,79.3697056 C40.0358107,79.3697056 40.3730242,77.3601906 41.17767,77.3601906 C41.17767,77.3601906 41.6485499,77.6171076 41.715324,77.8875245 C41.7854409,78.1612573 42.5243612,77.8875245 42.5243612,77.8875245 C42.5243612,77.8875245 42.997168,77.2822321 43.2642647,77.4190658 C43.2642647,77.4190658 43.864957,78.2946308 43.9350476,78.8320961 C43.9350476,78.8320961 44.2031405,80.1768407 43.865927,80.5139443 C43.865927,80.5139443 43.5341404,80.7749375 44.3421288,80.9184031 C44.3421288,80.9184031 45.886298,81.1860414 46.3570206,80.982403 C46.3570206,80.982403 47.5022357,80.6491003 46.3570206,80.2451527 C46.3570206,80.2451527 45.747952,79.7004525 45.4174107,79.0394437 C45.4174107,79.0394437 44.2744109,73.8569344 42.9289126,70.294803 C42.9289126,70.294803 42.8620335,69.6274899 42.3912585,69.2836494 C42.3324149,69.2419178 42.2765076,69.2185748 42.2274036,69.2094132 L42.2273905,69.2095836 Z M32.3756435,69.9570703 L31.9685623,70.0236259 L31.3617877,71.6415136 L31.3617877,72.1816526 C31.8359053,73.2566095 32.0428082,72.2482083 32.0428082,72.2482083 L33.0438572,71.3036104 L33.8528943,71.234499 C34.3269857,71.4381373 34.1933981,72.1816657 34.1933981,72.1816657 C34.05323,72.5155189 34.0525877,78.161585 34.0525877,78.161585 C34.1226914,79.3700726 33.788886,79.8434332 33.788886,79.8434332 C32.8439934,81.0485786 33.788886,81.0491422 33.788886,81.0491422 C34.1928868,80.9823899 35.8677467,81.1182537 35.8677467,81.1182537 C36.679091,81.1850322 36.3413924,80.2427673 36.3413924,80.2427673 C35.9373917,79.9723504 35.6706096,79.2341695 35.6706096,79.2341695 L35.7346179,78.1615719 C35.9382699,77.4905627 35.7346179,72.5144311 35.7346179,72.5144311 C35.8013789,70.9720379 36.67934,71.4367218 36.67934,71.4367218 C36.9430941,72.1811808 37.4832518,72.3787639 37.4832518,72.3787639 C38.3546849,72.1817968 38.159147,70.6329551 38.159147,70.6329551 C38.2893527,70.0253429 37.8211994,69.9571489 37.8211994,69.9571489 L36.67934,70.5024127 L33.5174636,70.5024127 C32.9799013,70.3622106 32.3756042,69.9571489 32.3756042,69.9571489 L32.3756435,69.9570703 Z M52.4223152,70.3743343 C52.2598498,70.352433 52.0188388,70.4215838 51.6644926,70.7020011 C51.6644926,70.7020011 50.7903067,71.0324989 50.5866415,70.7020011 C50.5866415,70.7020011 48.0394178,70.5000273 47.9726961,73.2542634 C47.9726961,73.2542634 47.696489,75.143197 50.5277848,76.3517633 C50.5277848,76.3517633 52.610447,77.3548038 52.4735953,78.6300961 C52.4735953,78.6300961 52.198686,80.9186522 49.9850972,79.7769299 C49.9850972,79.7769299 48.9113884,79.234353 48.9814921,78.6300961 C48.9814921,78.6300961 48.6430202,77.8890711 48.2390194,78.0259572 C48.2390194,78.0259572 47.7657538,78.1592389 47.9727616,80.3759835 C47.9727616,80.3759835 47.9731784,81.2539733 48.9814921,80.3759835 L49.5114646,80.5142196 C49.5114646,80.5142196 51.3305168,81.9956667 52.873113,80.1763165 C52.873113,80.1763165 54.5595083,78.6306466 53.3442026,76.7511498 C53.3442026,76.7511498 52.473202,75.4100751 50.9272763,74.7390134 C50.9272763,74.7390134 49.4493046,74.0606645 49.1120255,72.9188899 C49.1120255,72.9188899 49.5861169,70.8992827 51.3957704,71.974292 C51.3957704,71.974292 52.0696469,72.78203 52.4736346,72.9188899 C52.4736346,72.9188899 53.0099122,72.9181021 52.8730344,71.7029445 L52.747587,70.7020273 C52.747587,70.7020273 52.6932265,70.4108757 52.4224332,70.3743605 L52.4223152,70.3743343 Z M42.0533109,73.2567537 L42.3912585,73.6586567 C42.3912585,73.6586567 43.1286059,75.6781327 43.1286059,76.008683 C43.1286059,76.3525365 43.0581876,76.6793776 42.6575163,76.6793776 C42.2568712,76.6793776 41.1777093,76.6179467 41.1777093,76.6179467 L40.7783096,75.9421404 C40.7783096,75.9421404 41.2484292,74.0572699 41.3185197,73.7201663 L42.0533109,73.2568192 L42.0533109,73.2567537 Z" id="Shape" fill="#000000" transform="translate(40.759801, 56.198200) scale(-1, 1) rotate(-180.000000) translate(-40.759801, -56.198200) "></path>
        </g>
    </g>
</svg>
