<?xml version="1.0" encoding="UTF-8"?>
<svg width="400px" height="184px" viewBox="0 0 400 184" version="1.1" xmlns="http://www.w3.org/2000/svg" xmlns:xlink="http://www.w3.org/1999/xlink">
    <!-- Generator: Sketch 49.3 (51167) - http://www.bohemiancoding.com/sketch -->
    <title>client-blizzard</title>
    <desc>Created with Sketch.</desc>
    <defs></defs>
    <g id="Client-Logos" stroke="none" stroke-width="1" fill="none" fill-rule="evenodd">
        <path d="M181.767128,178.849752 C182.300169,179.906457 183.014064,181.248758 183.699403,182.305464 L184.270519,183.152732 L164.091093,183.152732 L163.938795,182.886175 C163.643719,182.391142 163.36768,182.048427 163.053566,181.620033 L158.322823,181.620033 L158.180044,181.334437 C157.304333,179.992136 156.99022,179.992136 156.695143,179.982616 C156.51429,179.982616 156.219213,180.039735 155.828951,180.039735 C155.115056,180.049255 154.286938,179.67798 153.335078,178.487997 L139.504557,178.487997 C137.210575,178.354719 136.629941,177.069536 136.220641,176.422185 C133.374581,176.184189 115.241653,176.146109 105.751612,176.146109 C102.220213,176.146109 99.8596007,176.165149 99.8596007,176.165149 L99.5550056,176.165149 L99.3836708,175.879553 C98.8887038,174.889487 95.766604,173.851821 95.2050068,173.823262 L89.9412227,173.823262 C89.4272184,174.127897 87.6472408,175.270281 85.7720772,176.641142 C83.5542441,178.22144 81.241225,180.268212 80.9175927,181.248758 L80.7652952,181.677152 L80.2988839,181.620033 C80.2988839,181.620033 79.1376151,181.401076 77.509935,181.201159 C75.8632178,181.020281 73.731052,180.820364 71.7797397,180.820364 C69.8474645,180.820364 68.0770054,181.048841 67.3631107,181.524834 L66.8681436,181.81995 L66.5825857,181.334437 C66.2303976,180.753725 65.9543583,180.42053 65.2975751,179.935017 L64.8121267,179.601821 L65.1928706,179.125828 C65.6592818,178.554636 65.9543583,178.297599 66.0876187,178.116722 C66.1923233,177.926325 66.3446208,177.621689 66.4969184,176.650662 L66.5635485,176.403146 L70.8183614,174.089818 C72.4365229,172.51904 72.2651881,173.175911 75.882255,169.882036 L75.882255,163.208609 L76.1297385,163.037252 C76.5009638,162.808775 77.3386003,162.304222 77.3386003,161.552152 C77.3386003,160.952401 76.919782,160.619205 76.1011827,160.057533 L75.882255,159.895695 L75.882255,147.995861 L76.1297385,147.824503 C76.5961497,147.519868 76.9007448,147.215232 77.3386003,146.862997 L77.3386003,141.779387 L77.557528,141.59851 C78.1857554,141.141556 78.5760179,140.88452 78.6997597,140.722682 C78.83302,140.570364 78.785427,140.656043 78.8235014,140.437086 C78.8235014,140.237169 78.7568712,139.884934 78.7568712,139.323262 C78.7568712,137.447848 77.3766747,136.400662 76.1011827,135.477235 L75.882255,135.315397 L75.8536992,115.485513 L76.1868501,115.342715 C76.7103729,115.104719 76.8531518,115.00952 76.919782,114.904801 C76.9959308,114.819123 77.1006354,114.600166 77.3005259,114.238411 C77.0435238,112.382036 76.967375,110.611341 76.967375,109.097682 C76.967375,105.908526 77.3386003,103.766556 77.3386003,103.737997 L77.3576375,103.49048 L77.557528,103.385762 C78.0429765,103.052566 78.3570902,102.76697 78.7568712,102.405215 L78.7568712,86.7640728 L78.9948362,86.611755 C79.3470242,86.4308775 80.6701092,84.593543 80.603479,83.1941225 C80.603479,83.1179636 80.5844419,83.0322848 80.5844419,82.9656457 C80.5082931,81.7566225 79.423173,80.3762417 79.0043548,80.1192053 L78.7568712,79.9383278 L78.7568712,58.0616722 C78.3570902,57.6903974 78.0524951,57.4428808 77.557528,57.0906457 L77.3386003,56.9383278 L77.3386003,45.0480132 L77.557528,44.8861755 C78.6807225,44.0865066 79.1566523,43.3344371 80.2227352,42.3538907 C80.2988839,41.5256623 80.5273303,38.450745 80.5273303,35.718543 C80.5273303,34.214404 80.4607001,32.7959437 80.2703282,31.986755 C79.8229541,31.5964404 79.518359,31.3203642 78.9948362,30.977649 L78.5189063,30.6444536 L78.880613,30.1779801 C79.518359,29.4259106 81.3554482,24.6469371 81.2983366,23.2570364 C81.2983366,23.218957 81.288818,23.1808775 81.288818,23.142798 C81.1174833,21.1531457 80.5082931,19.1444536 79.9276587,17.6498344 C79.3660614,16.1456954 78.83302,15.1841887 78.83302,15.1841887 L78.8235014,15.1461093 L78.8044642,15.1175497 C78.7283154,14.879553 78.3666088,14.6129967 77.7859743,14.4701987 C77.2053399,14.3178808 76.4819266,14.2702815 75.9298479,14.2702815 C75.5015111,14.2702815 75.196916,14.2893212 75.0350998,14.2893212 L74.8447279,14.2893212 L74.7114675,14.232202 C74.2736121,13.9942053 74.0642029,13.5753311 73.969017,13.2421358 C73.826238,12.9184603 73.731052,12.5376656 73.4074197,12.004553 C72.7696738,10.9288079 71.3038098,9.19619205 67.4582966,6.40687086 L66.9823668,6.06415563 L67.3631107,5.59768212 C67.8200033,4.99793046 68.1150798,4.75993377 68.2388216,4.57905629 C68.3816006,4.38865894 68.5053423,4.07450331 68.6671585,3.11299669 L68.7623444,2.66556291 L71.3323656,2.66556291 L71.513219,2.95115894 C71.8082955,3.46523179 72.055779,3.79842715 72.3698927,4.22682119 L83.9445066,4.22682119 L84.1158413,4.47433775 C85.7720772,7.1589404 86.7905671,7.48261589 87.4283131,7.49213576 C87.9327987,7.50165563 88.3611356,7.27317881 88.9988816,7.24461921 C89.2273279,7.24461921 89.4557742,7.28269868 89.7032577,7.39693709 L89.7794065,7.48261589 L89.8460367,7.55877483 C89.8460367,7.55877483 90.9787497,8.93915563 92.3113533,10.490894 C93.6725127,12.0711921 95.3097113,13.8228477 96.2234967,14.4701987 L96.451943,14.6510762 L96.451943,29.2450331 L96.2234967,29.4163907 C95.1954882,30.1970199 95.0527092,30.2350993 95.0146348,31.3108444 L95.0146348,31.3965232 L94.9955976,31.4346026 C94.9955976,31.5583609 95.176451,32.5484272 97.6703234,34.357202 L97.8987697,34.5190397 L97.8987697,41.3352649 L97.6703234,41.5161424 C97.1848749,41.830298 96.8802798,42.0968543 96.451943,42.4586093 L96.451943,73.1506623 C97.1087262,73.7123344 97.5656188,73.9979305 97.9749185,74.321606 C98.4603669,74.6928808 98.907741,75.1307947 99.2884849,75.8923841 C99.9643053,77.339404 100.107084,81.0997517 100.116603,85.7549669 C100.116603,95.0463576 99.3360779,107.365066 99.3360779,107.365066 L99.3265593,107.641142 L99.0981129,107.8125 C98.6317017,108.136175 98.3080694,108.374172 97.8987697,108.764487 L97.8987697,119.169702 C98.3556624,119.540977 98.6983319,119.864652 99.0981129,120.140728 L99.2884849,120.274007 L99.3265593,120.483444 C99.450301,121.083195 99.4598196,122.139901 99.4788568,123.358444 C99.4788568,125.80505 99.3360779,128.813328 99.3360779,128.822848 L99.3265593,129.260762 L98.8887038,129.35596 C97.8892511,129.536838 97.6132118,129.850993 97.2895795,130.488825 C97.0325774,131.079056 96.8612427,131.973924 96.5185732,133.00207 C96.9278728,133.601821 97.1848749,133.887417 97.3752469,134.106374 C97.584656,134.287252 97.8226209,134.563328 97.8702139,134.934603 C97.8987697,135.163079 97.8987697,135.391556 97.9178069,135.743791 C97.9178069,135.87707 97.8987697,136.029387 97.8987697,136.200745 C97.8892511,137.105132 97.9273255,137.581126 97.6132118,138.057119 C97.3181353,138.475993 97.0325774,138.637831 96.451943,139.161424 L96.451943,145.853891 L96.2234967,146.034768 C95.7475668,146.348924 95.4429717,146.61548 95.0146348,146.967715 L95.0146348,156.773179 L94.7766699,156.944536 C93.8628846,157.610927 93.9104776,157.887003 93.5487709,158.991308 C93.4535849,159.219785 93.4345477,159.391142 93.4345477,159.467301 C93.4535849,159.57202 93.4250292,159.467301 93.5297337,159.59106 C93.6058825,159.667219 93.8628846,159.848096 94.1198867,160.152732 C94.5958166,160.742964 94.9670419,161.71399 95.0146348,163.741722 C97.6703234,163.779801 99.640673,164.112997 102.077434,164.112997 C103.333889,164.112997 104.714085,164.027318 106.389358,163.770281 C107.588701,161.913907 108.197892,161.74255 110.396688,160.30505 L110.463318,160.238411 L110.558504,160.238411 C110.767913,160.181291 110.996359,160.162252 111.205768,160.152732 C113.690122,160.190811 118.087714,162.370861 122.980273,162.370861 C125.312329,162.370861 127.672941,161.894868 129.995479,160.457368 C130.090665,160.000414 130.480927,159.800497 130.804559,159.638659 C131.213859,159.467301 131.746901,159.314983 132.413202,159.181705 C133.736287,158.943709 135.563858,158.734272 137.819765,158.600993 C142.274469,158.305877 148.195036,158.220199 154.248864,158.220199 C167.09897,158.220199 180.377412,158.648593 180.377412,158.648593 L180.919972,158.677152 L180.919972,177.069536 C180.919972,177.079056 180.93901,177.107616 180.93901,177.117136 C180.977084,177.202815 181.053233,177.345613 181.129382,177.51697 C181.27216,177.850166 181.491088,178.307119 181.767128,178.849752 Z M101.944173,11.357202 C101.515837,10.9097682 101.477762,10.5289735 100.116603,9.51986755 L99.6597102,9.19619205 L100.011898,8.72971854 C100.54494,8.03476821 101.239797,7.13990066 101.411132,6.84478477 L101.620541,6.4544702 L102.029841,6.58774834 C103.495705,7.00662252 110.158723,7.30173841 116.440997,7.29221854 C122.218785,7.30173841 127.929943,7.02566225 129.024582,6.59726821 L129.481474,6.4259106 L129.709921,6.84478477 C130.261999,7.73965232 130.728411,8.17756623 131.470861,9.11051325 L131.604122,9.26283113 L131.604122,12.2235099 L131.185303,12.3472682 C127.672941,13.2706954 123.846465,16.5169702 123.932132,19.2301325 C123.932132,20.7628311 124.15106,21.1817053 124.246246,21.2388245 C124.198653,21.2959437 124.731695,21.343543 125.112438,22.0004139 C125.30281,22.4288079 125.369441,22.9714404 125.388478,23.8948675 C125.388478,25.2942881 124.62699,26.0558775 124.08443,26.4652318 C123.494277,26.9317053 123.246793,27.0649834 123.208719,27.7884934 C123.208719,32.4341887 123.865502,44.924255 123.865502,55.5198675 C123.865502,60.6415563 123.713205,65.3158113 123.256312,68.4859272 C123.484758,68.7239238 123.560907,69.0190397 123.637056,69.285596 C123.760798,69.6949503 123.846465,70.1899834 123.932132,70.7040563 C124.065393,71.6750828 124.274802,72.7508278 124.427099,72.884106 L124.617471,72.9983444 L125.417034,77.5678808 L125.131476,77.7773179 C124.550841,78.1771523 124.246246,78.3865894 123.789353,78.8530629 C122.970754,79.7479305 122.713752,81.0616722 122.713752,82.3849338 C122.713752,83.7462748 122.970754,85.031457 122.980273,85.8406457 C122.970754,86.2595199 122.856531,86.5641556 122.856531,87.5066225 C122.856531,88.3062914 122.942198,89.486755 123.303905,91.2384106 C123.446684,91.8381623 123.380054,92.7806291 123.40861,93.7040563 C123.399091,94.5703642 123.54187,95.4461921 123.665612,95.5509106 L123.884539,95.6746689 L123.932132,95.950745 C124.065393,96.8741722 124.122504,97.8356788 124.122504,98.7305464 C124.122504,100.520281 123.932132,101.948262 123.932132,101.957781 L123.894058,102.195778 L123.684649,102.338576 C123.113533,102.728891 122.827975,102.966887 122.333008,103.442881 C121.362111,104.432947 121.095591,105.175497 121.086072,106.013245 C121.067035,107.717301 122.466268,110.106788 122.485306,114.324089 L122.485306,114.790563 C122.513861,115.047599 122.894605,116.41846 123.313424,117.608444 C123.732242,118.826987 124.322395,120.140728 124.474692,120.321606 L124.703139,120.483444 L123.913095,131.440811 L123.684649,131.593129 C123.094496,132.012003 122.742308,132.173841 122.380601,132.659354 C121.923708,133.221026 121.771411,133.735099 121.752374,134.334851 C121.752374,135.258278 122.161673,136.343543 122.466268,137.638245 C123.113533,140.227649 123.275349,140.570364 124.389025,141.341474 C125.588368,142.131623 127.853794,143.140728 132.279942,146.301325 L132.479832,146.453642 L133.17469,151.746689 L132.289461,151.413493 C131.261452,150.985099 130.776004,150.94702 130.176332,150.94702 C129.890774,150.94702 129.557623,150.96606 129.176879,150.96606 L128.90084,150.96606 L128.796135,150.813742 C128.748542,150.813742 128.700949,150.804222 128.615282,150.804222 C128.310687,150.804222 127.625348,150.92798 126.435523,151.518212 L126.149965,151.67053 L125.873926,151.489652 C125.674036,151.356374 124.912548,151.146937 123.913095,151.032699 C122.894605,150.9375 121.609595,150.880381 120.210361,150.880381 C115.926992,150.870861 110.529948,151.394454 109.073603,151.984685 C107.027104,153.983858 106.465507,154.459851 105.684982,154.574089 L105.675463,154.574089 C105.370868,154.574089 105.161459,154.374172 105.075792,154.298013 C104.561788,154.193295 104.47612,153.907699 104.181044,153.650662 C103.905004,153.355546 103.552816,152.993791 103.086405,152.651076 L102.610475,152.317881 L102.962663,151.870447 C105.123385,149.147765 105.485091,148.367136 106.03717,147.681705 C106.627323,146.977235 107.226995,146.61548 109.578088,145.025662 C110.691764,141.61755 110.815506,129.850993 110.815506,126.319123 L110.815506,124.995861 L111.034434,124.834023 C111.653142,124.37707 112.043405,124.081954 112.148109,123.910596 C112.309926,123.729719 112.290888,123.729719 112.309926,123.501242 C112.309926,123.253725 112.243295,122.825331 112.243295,122.15894 C112.262333,121.606788 111.967256,121.197434 111.586512,120.464404 C111.224805,119.788493 110.815506,118.846026 110.815506,117.484685 C110.825024,115.552152 111.434215,112.753311 112.709707,111.344371 L112.243295,49.7603477 L112.471742,49.5794702 C113.109488,49.0653974 113.537825,48.8083609 113.718678,48.7036424 C113.718678,48.656043 113.699641,48.6084437 113.690122,48.5513245 C113.671085,48.3894868 113.642529,48.3799669 113.423601,48.2371689 C113.223711,48.1038907 112.871523,48.0086921 112.500297,47.7516556 L112.271851,47.580298 L110.415725,16.1552152 C109.882683,14.1750828 107.160365,14.2131623 105.332794,13.2421358 C104.866383,12.9850993 104.438046,12.5376656 104.304785,11.9664735 C103.676558,11.9474338 103.248221,11.9379139 102.91507,11.8712748 C102.524808,11.8331954 102.144064,11.6237583 101.944173,11.357202 Z M384.370464,75.5687086 L384.370464,61.3174669 C383.58042,60.6415563 383.180639,59.4325331 382.742784,58.0616722 C382.314447,56.5099338 381.981296,54.7773179 381.695738,53.5206954 C381.495848,52.7019868 381.295957,52.035596 381.238845,51.9879967 C380.334579,50.6932947 379.030531,49.8460265 377.859743,48.7798013 C376.812698,47.8278146 375.879875,46.6092715 375.746615,44.8004967 C374.137972,44.6576987 373.138519,43.8199503 372.472218,43.1059603 C371.672655,42.2396523 371.225281,41.6875 370.530424,41.7065397 C367.760512,41.7065397 366.342241,41.4971026 364.276706,41.4971026 C363.619922,41.4971026 362.925065,41.5161424 362.058873,41.5637417 L361.497275,46.9615066 L361.887538,48.7893212 L361.906575,48.8369205 C361.906575,48.8369205 362.515765,64.5351821 362.515765,70.4089404 C362.515765,70.9325331 362.515765,71.3133278 362.477691,71.656043 C362.515765,71.6846026 362.515765,71.6846026 362.525284,71.7131623 C362.696619,71.9987583 362.829879,72.3509934 362.991695,72.6937086 C363.315327,73.3886589 363.610404,74.0931291 363.610404,74.0931291 L363.667515,74.1883278 L363.667515,74.2930464 C363.667515,75.6353477 364.524189,79.7955298 365.46653,81.9470199 C365.752088,82.6705298 366.151869,83.1465232 366.228018,83.156043 L366.523094,83.3274007 L366.332723,152.222682 C368.445851,149.623758 373.252743,142.931291 373.252743,136.248344 C373.252743,136.000828 373.233705,135.772351 373.233705,135.515315 L373.224187,135.429636 L373.252743,135.343957 C374.861385,129.850993 376.612807,127.985099 377.174404,124.729305 L377.174404,124.700745 C377.174404,123.463162 377.174404,107.631623 377.602741,98.7210265 C377.755039,95.8555464 377.897818,93.799255 378.164339,92.8948675 C378.15482,92.647351 378.135783,92.3998344 378.135783,92.1808775 C378.135783,88.2206126 380.1918,86.4784768 380.953287,86.0024834 C381.067511,85.317053 381.41018,83.3940397 381.876591,81.3853477 C382.514337,79.0244205 383.152083,76.6063742 384.370464,75.5687086 Z M399.466959,53.5302152 C399.466959,53.5587748 400,61.4221854 400,67.6767384 C400,70.8182947 399.904814,73.531457 399.438403,74.8261589 L399.371773,74.9975166 L399.228994,75.111755 C399.11477,75.1307947 398.667396,75.9399834 398.353283,76.7682119 C398.020132,77.5298013 397.715537,78.3009106 397.249125,78.8530629 C397.211051,79.1767384 397.211051,79.5384934 397.211051,79.8907285 C397.211051,81.6138245 397.477572,83.6796358 397.477572,85.6597682 C397.477572,87.3828642 397.277681,89.0678808 396.525712,90.4673013 C395.278776,93.3327815 393.717726,94.9035596 393.165647,95.4271523 L392.223306,102.462334 L392.204269,102.538493 C391.157223,105.384934 391.395188,106.432119 391.328558,107.203228 C391.328558,107.384106 391.280965,107.612583 391.157223,107.83154 C391.261928,109.440397 391.985341,120.05505 391.985341,128.080298 C391.985341,131.650248 391.842562,134.677566 391.442781,136.295944 L391.433263,136.324503 L391.395188,136.362583 C390.424291,138.647351 390.30055,141.141556 390.30055,143.788079 L390.30055,145.93005 C390.30055,148.662252 390.214882,151.499172 389.091688,154.288493 L387.597268,162.323262 L387.58775,162.370861 C386.340813,165.845613 386.283702,166.616722 384.551317,168.749172 C383.837422,170.262831 383.494753,170.729305 383.066416,171.03394 C382.647598,171.319536 382.571449,171.233858 381.933703,171.957368 C381.828998,172.395281 381.514885,172.699917 381.191252,172.937914 C380.80099,173.24255 380.248911,173.490066 379.620684,173.756623 C378.364229,174.261175 376.688956,174.746689 374.880423,175.260762 C371.291912,176.222268 367.170359,177.259934 365.276158,178.297599 L365.209528,178.326159 L365.161935,178.354719 C365.019156,178.402318 364.876377,178.421358 364.752635,178.421358 C363.895962,178.402318 363.153511,177.888245 362.353949,177.459851 C361.60198,177.021937 360.821455,176.641142 360.535897,176.650662 C360.488304,176.650662 360.469267,176.669702 360.459748,176.679222 C360.202746,177.240894 359.641149,177.459851 359.003403,177.745447 C358.289508,178.031043 357.32813,178.26904 356.347714,178.468957 C354.310735,178.868791 352.016753,179.116308 350.531852,179.116308 C349.884587,179.087748 349.446732,179.087748 349.04695,178.887831 L348.390167,178.554636 L348.923209,178.021523 C351.026819,175.917632 353.178022,172.357202 353.539728,168.120861 C353.577803,167.892384 353.577803,167.644868 353.577803,167.387831 C353.577803,165.759934 353.139947,163.751242 352.71161,162.180464 C352.292792,160.619205 351.873974,159.514901 351.873974,159.505381 L351.664565,158.991308 L352.178569,158.791391 C353.216096,158.353477 354.824739,157.744205 356.138305,157.049255 C357.480427,156.401904 358.356138,155.516556 358.289508,155.24048 C358.289508,154.926325 358.251434,154.735927 358.222878,154.650248 L358.175285,154.602649 C358.175285,154.583609 357.994432,154.593129 357.604169,154.54553 C357.337648,154.53601 356.947386,154.317053 356.833163,153.945778 L355.148371,149.766556 L352.226162,143.00745 L354.872332,116.580298 C352.378459,113.895695 350.084478,107.365066 348.98032,103.871275 C348.618614,102.662252 348.390167,101.957781 348.390167,101.567467 L348.390167,97.2644868 C348.380649,96.5790563 348.152202,96.3029801 347.780977,95.8269868 C347.438308,95.3890728 346.943341,94.7512417 346.962378,93.799255 C346.962378,93.7897351 346.600671,88.620447 346.600671,84.6411424 C346.619708,82.9370861 346.657783,81.5376656 346.857673,80.6523179 C346.505485,80.3191225 346.191371,80.0906457 345.763035,79.7764901 L345.506032,79.6146523 L346.077148,69.5711921 C345.905813,69.2951159 345.886776,69.0190397 345.79159,68.638245 C345.686886,68.1812914 345.601218,67.6196192 345.52507,67.0389073 C345.363253,65.982202 345.134807,64.7731788 345.020584,64.544702 L344.801656,64.401904 L344.801656,34.9474338 L345.04914,34.8046358 C345.52507,34.4809603 345.820146,34.1953642 346.238964,33.8336093 L346.238964,22.4764073 L346.476929,22.3145695 C346.962378,22.0004139 347.257454,21.705298 347.69531,21.3625828 L347.69531,13.2706954 C346.581634,12.2139901 340.461176,6.38783113 337.091593,3.12251656 C335.835138,1.90397351 335.00702,1.12334437 334.845204,0.885347682 L334.112272,0 L342.431526,0 L342.60286,0.276076159 C342.888418,0.780629139 343.126383,1.13286424 343.469053,1.57077815 L348.342574,1.57077815 L348.43776,2.00869205 C348.466316,2.26572848 348.808986,2.64652318 349.551436,3.03683775 C350.265331,3.41763245 351.264784,3.77938742 352.368941,4.19826159 C354.491588,5.00745033 356.966423,5.98799669 358.584585,7.78725166 L363.343883,7.78725166 L363.515218,8.07284768 C364.019703,8.91059603 364.429003,9.33899007 365.095305,10.1386589 L369.845085,10.1386589 L369.997382,10.4147351 C370.28294,10.9288079 370.539942,11.2524834 370.882612,11.6808775 L377.0697,11.6808775 L377.221997,11.9664735 C377.498037,12.4900662 377.736002,12.8137417 378.08819,13.2421358 L384.789282,13.2421358 L384.951098,13.5182119 C386.017181,15.2413079 387.625824,16.7549669 389.072651,17.9639901 C390.50044,19.2301325 391.747376,20.0774007 392.19475,20.9817881 C394.64103,26.1225166 395.621445,28.9023179 396.192561,30.5778146 C396.801751,32.2913907 396.906456,32.5960265 397.791686,33.2338576 L398.02965,33.4147351 L397.610832,48.2942881 C397.76313,48.4846854 397.810723,48.732202 397.915427,49.017798 C398.077243,49.3985927 398.200985,49.8555464 398.362801,50.3791391 C398.657878,51.3501656 398.943436,52.4449503 399.162363,52.968543 C399.200438,53.0542219 399.228994,53.1303808 399.267068,53.1494205 L399.438403,53.2826987 L399.466959,53.5302152 Z M318.86348,51.5691225 C318.815887,51.2168874 318.796849,50.8456126 318.796849,50.4743377 C318.806368,48.9416391 319.13,47.3232616 319.13,47.3042219 L319.263261,46.5997517 L319.615449,46.7711093 C319.653523,46.647351 319.720153,46.4759934 319.767746,46.2951159 C319.958118,45.9238411 320.005711,45.5240066 320.310306,45.1622517 L320.310306,42.2110927 L320.338862,42.1349338 C320.329343,42.1349338 320.500678,41.5256623 320.500678,40.4594371 C320.500678,39.098096 320.21512,37.0418046 318.958665,34.7760762 C318.806368,34.5571192 317.635581,32.8911424 316.036456,30.8729305 C314.31359,28.6928808 312.095757,26.0653974 310.173,24.3423013 C308.916546,23.2094371 307.726721,22.5240066 307.146087,22.5525662 C306.812936,22.5240066 306.508341,22.5240066 306.251339,22.5240066 L305.918188,22.5240066 L305.918188,65.1634934 C306.346525,65.2110927 306.965233,65.2491722 307.622017,65.2491722 C308.221688,65.2491722 308.792804,65.2206126 309.249697,65.1254139 C311.562716,64.7160596 314.056588,62.9929636 314.665778,62.2123344 C315.322561,61.4126656 316.179235,59.2135762 316.950242,57.0240066 C317.692692,54.910596 318.378031,52.759106 318.86348,51.5691225 Z M345.810628,139.247103 L345.686886,139.41846 C345.201437,140.12293 345.134807,140.494205 345.106251,140.90356 C345.087214,141.674669 345.648811,142.912252 345.648811,145.739652 C345.648811,147.472268 345.439402,149.842715 344.754063,153.222268 C344.7731,153.250828 344.792138,153.298427 344.820693,153.336507 C344.915879,153.460265 345.030103,153.660182 345.153844,153.898179 C345.429884,154.374172 345.715442,155.050083 345.715442,155.98303 C345.715442,156.71606 345.534588,157.591887 345.087214,158.648593 C344.325726,160.457368 344.820693,160.98096 341.38448,177.745447 L341.241701,178.373758 L340.670585,178.183361 C340.651548,178.183361 339.328463,177.783526 337.862599,177.212334 C336.358661,176.641142 334.816648,176.041391 334.112272,175.35596 C326.421246,167.911424 324.403303,167.48303 321.147943,167.47351 L318.911073,167.47351 L318.530329,167.49255 L318.378031,167.130795 C318.301882,166.949917 318.282845,166.788079 318.282845,166.616722 C318.301882,165.226821 319.396521,162.266142 320.567308,158.953228 C321.738096,155.668874 322.985032,152.117964 323.356257,150.080712 C323.717964,148.348096 323.994003,140.998758 323.974966,136.029387 C323.994003,133.782699 323.917855,131.954884 323.822669,131.450331 L323.803631,131.393212 L323.822669,131.326573 L323.822669,131.288493 C323.841706,130.146109 321.833282,116.980132 319.044333,110.259106 C318.159103,108.012417 317.054946,106.527318 316.398163,106.422599 L315.912714,106.327401 L315.969826,105.832368 C316.398163,102.386175 317.340504,97.6928808 317.340504,95.8555464 C317.340504,95.6175497 317.311948,95.4271523 317.311948,95.3700331 L317.311948,95.3605132 C315.474859,92.0380795 312.476501,86.0500828 309.925517,83.3940397 C309.382957,82.8133278 308.868953,82.4325331 308.440616,82.223096 C308.516765,82.9561258 308.583395,83.5463576 308.583395,84.1556291 C308.583395,85.5360099 308.202651,86.8592715 306.879566,89.629553 C306.298932,90.7909768 305.480332,91.9619205 305.508888,92.8472682 L305.508888,92.9710265 L305.527925,93.1233444 L305.489851,93.2090232 L305.489851,93.4279801 C305.480332,97.2264073 309.173548,127.480546 309.173548,130.317467 L309.173548,130.726821 L308.935583,130.888659 C308.907027,130.917219 308.868953,130.945778 308.840397,131.012417 C308.764248,131.098096 308.630988,131.231374 308.535802,131.412252 C308.326393,131.726407 308.155058,132.145281 308.174095,132.554636 C308.155058,132.602235 308.174095,132.640315 308.174095,132.687914 C308.155058,132.792632 308.354948,133.135348 308.688099,133.563742 C308.973657,133.982616 309.373438,134.515728 309.43055,135.239238 C309.573329,137.000414 309.697071,139.094785 309.697071,141.236755 C309.697071,144.321192 309.43055,147.481788 308.41206,149.928394 C308.583395,153.10803 309.935036,161.057119 309.935036,164.817467 C309.935036,165.33154 309.887443,165.769454 309.83985,166.131209 L309.830331,166.264487 L309.735145,166.369205 C309.478143,166.75 309.268734,166.997517 309.011732,167.130795 C308.840397,167.264073 308.688099,167.321192 308.440616,167.47351 C308.535802,168.092301 308.688099,168.977649 308.688099,170.37707 C308.688099,172.309603 308.41206,175.213162 307.307903,179.830298 L306.879566,181.648593 L306.251339,179.887417 C300.682959,164.731788 289.774647,160.181291 286.852438,157.534768 C286.43362,157.134934 286.081432,156.725579 286.052876,156.154387 L286.052876,156.068709 L286.081432,155.99255 C286.081432,155.98303 289.003641,145.844371 291.335697,139.942053 C292.106703,138.01904 292.744449,136.600579 293.382195,135.943709 C293.55353,135.600993 293.648716,134.791805 293.648716,133.896937 C293.648716,132.545116 293.477381,130.936258 293.334602,129.908113 C292.896747,129.527318 292.563596,129.260762 292.106703,128.908526 L291.830664,128.746689 L291.830664,128.442053 C291.85922,128.146937 291.85922,123.529801 291.85922,117.589404 C291.85922,106.36548 291.830664,90.3054636 291.830664,88.4871689 C291.545106,88.0016556 291.592699,87.4971026 291.507032,86.9639901 C291.459439,86.3547185 291.392809,85.7264073 291.31666,85.5360099 L291.335697,85.5360099 L291.116769,85.4027318 L290.412393,79.2719371 C290.088761,78.8340232 289.965019,78.3009106 289.746091,77.7773179 C289.536682,77.1870861 289.232087,76.6634934 289.21305,76.6634934 L288.956048,76.5111755 L288.956048,76.2160596 C288.956048,76.2160596 288.927492,74.6928808 288.927492,73.1792219 C288.927492,72.5128311 288.927492,71.8369205 288.937011,71.3038079 C288.784713,71.0562914 288.746639,70.799255 288.689527,70.4850993 C288.594341,70.0947848 288.527711,69.6378311 288.442044,69.1523179 C288.346858,68.2860099 288.166004,67.3340232 288.0613,67.1531457 L287.832853,66.9913079 L287.861409,66.6866722 L287.861409,66.1821192 C287.870928,65.2586921 287.728149,63.1833609 287.052328,61.8315397 C286.814364,61.4602649 286.823882,61.1461093 286.757252,60.6415563 C286.690622,60.1179636 286.662066,59.4610927 286.614473,58.8042219 C286.56688,57.5856788 286.43362,56.1957781 286.328915,55.919702 L286.138543,55.7959437 L286.052876,48.370447 C284.891607,47.1804636 284.577493,46.504553 284.577493,45.8762417 C284.577493,45.6477649 284.615568,45.495447 284.606049,45.4288079 C284.606049,45.3812086 284.615568,45.4002483 284.472789,45.1908113 C284.33001,45.0099338 284.025415,44.7148179 283.425743,44.276904 L283.235371,44.1531457 L283.206815,43.915149 C282.978369,42.1634934 282.864146,39.6978477 282.864146,37.2226821 C282.864146,34.7475166 282.978369,32.2533113 283.206815,30.5016556 L283.216334,30.3112583 L283.359113,30.1875 C285.719725,27.8551325 292.316113,24.5422185 296.761297,18.4114238 C296.628037,18.3543046 296.504295,18.2971854 296.351998,18.2495861 C295.847512,18.0877483 295.228803,17.897351 294.600576,17.7259934 C293.534493,17.4308775 292.420817,17.1833609 292.05911,17.107202 C292.001999,17.1452815 291.906813,17.25 291.830664,17.3832781 C291.621255,17.6498344 291.335697,18.0687086 290.755063,18.2400662 C290.260096,18.3733444 289.841277,18.6303808 289.21305,18.6494205 C288.765676,18.6494205 288.337339,18.4971026 287.78526,18.182947 L287.537777,18.0591887 L287.509221,17.7355132 C287.404517,15.7553808 285.443686,13.2706954 283.159222,11.214404 C280.86524,9.12003311 278.314256,7.36837748 277.162506,6.54966887 C276.924541,6.35927152 276.753207,6.24503311 276.638983,6.1307947 L271.375199,4.9884106 L271.451348,3.89362583 L292.354187,3.30339404 C294.257906,2.43708609 294.63865,2.32284768 296.018847,2.34188742 C296.685149,2.34188742 297.170597,2.38948675 297.570378,2.76076159 C297.855936,3.07491722 298.055827,3.37955298 298.43657,3.89362583 L306.060967,3.89362583 L306.146634,4.04594371 L306.479785,4.18874172 C306.812936,4.30298013 307.26031,4.44577815 307.821907,4.64569536 C308.916546,5.00745033 310.391928,5.50248344 311.838755,5.94039735 C314.456369,6.78766556 317.073983,7.5682947 317.530876,7.71109272 C317.892583,7.71109272 318.339957,7.70157285 318.853961,7.70157285 C319.367965,7.70157285 319.958118,7.71109272 320.586346,7.80629139 C322.92792,8.12044702 325.069605,9.56746689 326.821027,10.9859272 C328.543893,12.4139073 330.028794,13.8228477 330.552317,14.0227649 L330.609428,14.0513245 L330.952098,14.0513245 L338.32901,29.6067881 C338.586012,30.2922185 338.614568,31.4631623 338.614568,32.8721026 C338.614568,35.5186258 338.405159,38.7934603 338.405159,38.8125 L338.386122,39.098096 L338.167194,39.240894 C338.157676,39.2599338 338.138638,39.2789735 338.119601,39.317053 C338.052971,39.3741722 338.024415,39.4979305 337.957785,39.6407285 C337.85308,39.9168046 337.729339,40.2690397 337.624634,40.6498344 C337.396188,41.325745 337.253409,41.9635762 336.948814,42.4490894 C336.967851,43.267798 336.967851,44.1817053 336.967851,45.0289735 C336.967851,46.8948675 336.948814,48.5227649 336.948814,48.5227649 L336.948814,48.5989238 L336.920258,48.656043 C334.207458,59.2706954 329.210194,67.8195364 319.996193,68.1622517 C320.005711,69.4569536 320.024748,70.2471026 320.024748,70.7802152 C320.034267,71.4180464 319.958118,71.9130795 319.615449,72.2557947 C319.463151,72.3985927 319.310854,72.5318709 319.091926,72.7222682 C319.244223,72.7317881 319.367965,72.7413079 319.501226,72.7413079 C320.586346,72.7413079 321.500131,72.3224338 322.689956,72.3129139 C324.403303,72.3224338 326.259429,73.2744205 329.391048,77.0062086 C330.400019,77.4346026 330.828356,78.3865894 330.990172,79.1957781 C331.123432,80.0811258 331.123432,80.9855132 331.256693,81.4995861 C331.323323,81.8613411 331.418509,81.8899007 331.494658,81.9089404 C332.598815,82.3373344 333.236561,82.5753311 333.636342,82.8133278 C334.064679,83.0037252 334.378793,83.4987583 334.321681,83.8605132 C334.321681,84.0604305 334.312162,84.2032285 334.312162,84.3555464 C334.312162,84.6792219 334.350237,85.1456954 334.769055,86.0215232 C335.035576,86.6498344 335.111725,87.6399007 335.264022,88.6585265 C335.368727,89.6771523 335.663803,90.6767384 335.797064,90.7243377 L335.844656,90.7909768 L335.882731,90.848096 C336.149252,91.3050497 336.215882,91.9143212 336.311068,92.8091887 C336.406254,93.6754967 336.482402,94.7702815 336.529995,95.9793046 C336.6347,98.3592715 336.710849,101.120033 336.863146,103.176325 C336.948814,104.537666 337.091593,105.62293 337.24389,105.860927 L337.24389,105.870447 C337.529448,106.089404 337.481855,106.34644 337.58656,106.593957 C337.65319,106.908113 337.729339,107.279387 337.776932,107.679222 C337.938748,108.469371 338.138638,109.373758 338.405159,109.868791 C338.595531,110.201987 338.719273,110.278146 338.87157,110.278146 C338.957238,110.287666 339.157128,110.230546 339.480761,110.040149 L339.966209,109.716474 L340.261285,110.230546 C340.49925,110.735099 340.651548,111.744205 340.946624,113.324503 C341.213145,114.857202 341.51774,116.818295 341.79378,118.769868 C342.355377,122.692053 342.888418,126.652318 342.993123,127.166391 L343.031197,127.375828 L342.888418,127.575745 C342.764676,127.718543 342.460081,129.060844 342.298265,130.250828 C342.145968,131.412252 342.031745,132.564156 342.003189,132.897351 C342.155486,133.059189 342.631416,133.249586 343.497608,133.439983 L343.697499,133.497103 L343.811722,133.6875 C344.392357,134.620447 345.743997,137.600166 345.772553,139.066225 L345.810628,139.247103 Z M46.5554577,30.1970199 L48.6495491,28.7595199 C47.516836,28.3596854 46.6125693,28.4548841 45.6321538,28.3120861 C44.4042548,28.1597682 43.2239488,27.4457781 42.1864217,25.2942881 L41.5010827,25.2942881 L35.14266,26.1986755 L35.542441,25.2942881 C35.6185898,25.1229305 35.6471456,24.9610927 35.6566642,24.8087748 C35.6471456,24.8087748 35.6281084,24.8087748 35.6185898,24.8278146 C35.4377365,24.9039735 35.2664017,24.9896523 35.1236228,25.0562914 C34.8571021,25.7702815 34.8285463,26.2272351 34.8095091,26.5889901 C34.7809533,27.0745033 34.8571021,27.6171358 34.4192466,28.1692881 C34.1717631,28.4548841 33.8576494,28.6738411 33.3817195,28.9499172 L33.3817195,56.567053 C33.9337982,56.3766556 34.4192466,56.3100166 34.8380649,56.3004967 L34.9237322,56.3004967 C35.3996621,56.3004967 35.7994432,56.4337748 36.0850011,56.5765728 C36.2468172,56.6527318 36.3800776,56.709851 36.4371892,56.7764901 C37.8554601,56.2624172 38.3409086,54.4631623 39.3879542,52.4259106 C40.4254813,50.4076987 42.2149775,48.3323675 46.3174928,47.8754139 C46.2984556,47.1614238 46.2508626,45.9904801 46.2508626,44.6481788 C46.2508626,42.9155629 46.3174928,40.9259106 46.5364205,39.240894 C46.7648669,37.7938742 46.9552388,36.584851 47.659615,35.8613411 C47.2979083,34.8522351 46.2794184,31.9962748 46.2508626,30.8919702 C46.2794184,30.7491722 46.2032696,30.4826159 46.5554577,30.2065397 L46.5554577,30.1970199 Z M47.6025034,129.946192 C47.4977988,129.698675 47.4502058,129.432119 47.4502058,129.175083 C47.469243,128.194536 47.9927659,127.337748 47.9356543,126.718957 C47.9261357,126.357202 47.8690241,126.100166 47.2979083,125.719371 L46.6125693,125.271937 L47.2883897,124.795944 C47.6976894,124.500828 47.8023939,124.177152 47.8214311,123.625 C47.8690241,121.949503 45.9272303,118.950745 45.8796373,116.132864 C45.8510816,114.857202 46.3460486,113.55298 47.5929848,112.572434 C47.5929848,110.068709 47.2503153,109.135762 46.9171644,108.659768 C46.6601623,108.193295 46.0604907,107.936258 45.6416724,106.908113 C45.3941889,106.222682 45.2323727,105.280215 45.2323727,103.728477 C45.2799657,102.148179 46.6601623,99.2731788 46.6316065,97.607202 C46.6316065,96.9979305 46.5078647,96.7218543 46.2318254,96.5885762 L45.7654142,96.3315397 L46.0033791,95.8555464 C46.2508626,95.3509934 46.3746044,94.8178808 46.3746044,94.3133278 C46.3746044,93.4279801 46.0319349,92.5997517 45.6797468,91.9714404 C45.3085215,91.352649 45.0039264,90.990894 45.0039264,90.990894 L44.1948457,90.1245861 L45.3751517,90.057947 C45.5464864,90.0484272 45.6797468,90.0103477 45.7178212,90.0008278 C45.6797468,89.8580298 45.4893749,89.4772351 45.2418913,89.0964404 C44.9944078,88.6394868 44.6231825,88.192053 44.6231825,87.5542219 C44.6041453,87.259106 44.7374057,86.9068709 45.0039264,86.7069536 C45.1752612,86.5641556 45.1942984,86.4308775 45.1942984,86.2119205 C45.2323727,85.6883278 44.6707755,84.7553808 44.0425481,84.0413907 C43.5570997,83.4321192 43.0145397,82.9561258 42.8907979,82.8133278 C40.1304048,81.290149 36.9987864,78.2913907 36.9702306,78.2533113 L33.4102753,74.5691225 C33.4388311,76.4540563 33.5054613,79.8431291 33.5054613,82.9751656 C33.5054613,85.2313742 33.4864241,87.3352649 33.3817195,88.620447 L33.3436451,88.7822848 L33.229422,88.906043 C32.7058992,89.553394 32.4298598,90.9147351 32.448897,92.428394 C32.448897,95.4366722 33.3341265,98.9495033 33.3436451,98.9495033 L33.3912381,99.0827815 L31.858744,106.517798 L31.5731861,106.632036 C30.8592913,106.936672 30.5451776,107.326987 30.4880661,108.117136 C30.4785475,108.183775 30.4785475,108.231374 30.4785475,108.288493 C30.4880661,109.050083 30.821217,109.564156 31.5731861,109.878311 L31.906337,110.021109 L31.906337,137.26697 L31.7825952,137.409768 C31.0211075,138.237997 30.5451776,138.409354 30.4785475,139.075745 C30.3452871,139.884934 30.2786569,140.237169 30.135878,140.522765 C30.1263594,140.560844 30.088285,140.617964 30.040692,140.684603 C30.040692,142.074503 30.1073222,145.282699 30.1073222,152.175083 C30.1073222,152.175083 30.183471,155.659354 30.2976941,157.220613 C30.3928801,157.258692 30.4404731,157.325331 30.4880661,157.40149 C30.5642148,157.563328 30.5451776,157.639487 30.5451776,157.696606 C30.5261404,158.029801 30.4785475,158.048841 30.3928801,158.286838 C30.2976941,158.477235 30.1549152,158.734272 30.0121362,159.019868 C29.6980225,159.610099 29.3267972,160.333609 28.9270162,161.057119 C28.5557909,161.761589 28.2036028,162.42798 27.9180449,162.942053 C29.0031649,162.808775 30.6594008,162.494619 31.8301882,162.066225 L35.1236228,159.076987 L35.3235133,159.057947 C36.4752635,159.019868 37.9125717,157.782285 39.2451753,156.259106 C40.5777788,154.764487 41.7390477,153.12707 42.8527235,152.317881 C43.8236204,151.451573 44.1758085,149.576159 44.3090688,147.31995 C44.423292,145.025662 44.3947362,142.388659 44.8611475,139.980132 L44.9087405,139.751656 L45.0229636,139.665977 L45.0515194,139.646937 C45.0895938,139.618377 45.1276682,139.513659 45.1847798,139.389901 C45.2799657,139.161424 45.3941889,138.818709 45.5464864,138.390315 C45.8130072,137.600166 46.1556767,136.505381 46.4507532,135.362997 C47.069462,133.116308 47.6215406,130.631623 47.6025034,129.955712 L47.6025034,129.946192 Z M67.0299598,139.037666 C67.0299598,139.789735 66.9633296,140.551325 66.8491064,141.293874 C66.2970278,144.254553 64.4313828,148.433775 64.4123456,148.462334 L64.402827,148.500414 L64.3647526,148.548013 C64.3647526,148.567053 61.3854318,152.831954 60.1956072,155.821192 C58.7963734,159.400662 58.1871832,165.702815 58.2062204,165.721854 L58.1776646,166.02649 L57.8921067,166.150248 C57.8730695,166.169288 51.8953906,168.93957 48.5734003,171.367136 C45.6321538,173.547185 42.6242772,175.451159 41.9294196,177.459851 L41.824715,177.783526 L41.4630084,177.812086 C41.4439712,177.812086 36.6180425,178.507036 33.7434262,179.230546 C32.8201223,179.439983 32.0395974,179.71606 31.8968184,179.839818 C31.4970373,180.334851 31.0496633,180.668046 30.5261404,180.696606 C29.5933179,180.610927 29.2220927,179.925497 28.7652,179.468543 C28.2987888,178.95447 27.8894891,178.592715 27.3754849,178.602235 C26.947148,178.602235 26.2808462,178.840232 25.2718749,179.801738 C24.9672798,180.544288 24.1867549,180.896523 23.3395997,181.125 C22.3972586,181.353477 21.2359898,181.439156 19.979535,181.439156 C16.4290984,181.439156 12.1838041,180.763245 11.2129072,180.610927 C10.7179402,180.848924 10.1468244,180.877483 9.49004117,180.887003 C7.93850986,180.877483 5.92056731,180.553808 4.79737287,180.563328 C4.53085215,180.553808 4.31192442,180.582368 4.24529424,180.601407 L3.94069914,181.10596 L3.40765771,180.658526 C2.76991172,180.087334 1.94179378,179.325745 1.69431026,179.144868 L0.780524951,178.554636 L1.79901483,178.183361 C1.79901483,178.183361 2.62713276,177.850166 3.60754825,177.412252 C4.57844514,176.964818 5.68260238,176.355546 6.10142065,175.917632 L6.15853223,175.889073 C6.15853223,175.889073 6.15853223,175.879553 6.17756943,175.879553 C6.19660662,175.831954 6.22516241,175.736755 6.28227399,175.612997 C6.36794137,175.36548 6.50120172,175.032285 6.63446208,174.603891 C6.92001999,173.737583 7.24365229,172.566639 7.59584037,171.243377 C8.26214216,168.596854 8.97603693,165.369619 9.46148538,162.827815 C9.47100397,154.412252 9.98500821,150.090232 9.98500821,145.673013 C9.98500821,143.454884 9.84222926,141.217715 9.47100397,138.380795 C9.30918783,137.352649 8.89036956,129.555877 8.20503058,123.967715 L8.20503058,123.910596 C8.20503058,114.771523 8.71903481,105.423013 8.71903481,99.8919702 C8.71903481,98.8447848 8.69047902,97.9308775 8.66192323,97.1883278 L8.62384884,96.674255 L9.15689027,96.5885762 C10.1753801,96.5219371 10.65131,95.7984272 10.8607191,95.4176325 C10.8797563,95.3890728 10.8987935,95.3605132 10.9083121,95.3319536 L10.5751612,88.0968543 L9.46148538,85.7835265 L9.60426433,75.254553 L9.60426433,75.2355132 C9.79463627,73.7980132 10.8321633,72.3414735 10.9844609,72.093957 C11.1272398,71.875 11.2319444,70.9134934 11.2129072,69.9139073 C11.2129072,68.5430464 11.0891655,67.0293874 11.0320539,66.5914735 L9.46148538,63.9735099 L9.46148538,27.2649007 L9.7089689,27.1125828 C10.3371963,26.6365894 10.7274588,26.3509934 10.8987935,26.1891556 C11.0320539,26.0082781 10.9844609,26.1034768 11.0225353,25.9321192 C11.0225353,25.6750828 10.9083121,25.084851 10.9083121,24.0281457 C10.9083121,23.0761589 10.9463865,22.571606 10.9559051,22.3812086 C10.9463865,22.3621689 10.9463865,22.3621689 10.9463865,22.352649 C10.7750518,22.2288907 10.5275682,21.9718543 10.1277872,21.4958609 C9.84222926,21.5244205 9.3948552,21.5529801 8.92844395,21.5815397 C8.89988816,21.6196192 8.89036956,21.6576987 8.85229517,21.705298 C8.71903481,21.848096 8.51914428,21.924255 8.40492111,21.924255 C7.97658425,21.848096 8.06225162,21.7909768 7.88139828,21.705298 C7.85284249,21.6862583 7.8242867,21.6576987 7.77669372,21.6196192 L7.47209861,21.6196192 C7.36739405,21.5910596 7.36739405,21.6386589 7.11039193,21.5149007 C7.01520596,21.4482616 6.84387121,21.2959437 6.84387121,21.0293874 C6.8914642,20.7628311 6.96761297,20.6485927 7.03424315,20.6009934 C6.72964805,20.267798 6.43457154,19.9346026 6.2727554,19.7251656 L1.5610499,15.2413079 L1.54201271,15.1841887 C1.06608286,14.4321192 0.780524951,14.089404 0.599671608,13.9275662 C0.456892654,13.7847682 0.43785546,13.8990066 0.104704567,13.5277318 C-0.0285557909,13.2706954 0.0190371939,13.0993377 0,12.8899007 C0,12.6138245 0.0190371939,12.1854305 0.0190371939,11.3952815 C0.0285557909,10.0053808 -0.0380743878,9.64362583 0.304595103,9.13907285 C0.609190205,8.76779801 0.809080741,8.76779801 1.54201271,7.57781457 L1.69431026,7.32077815 L9.35678081,7.32077815 C9.86126645,6.94950331 10.5275682,6.82574503 11.4413535,6.59726821 C12.4979178,6.36879139 13.7829284,6.17839404 15.1726436,6.00703642 C17.8664065,5.66432119 20.664874,5.47392384 21.6072151,5.47392384 L29.2125741,5.71192053 C36.9226376,5.71192053 39.7211051,4.95985099 43.785546,4.95985099 C45.5845608,4.95985099 47.6025034,5.11216887 50.3724151,5.55960265 L50.753159,5.60720199 L50.8293078,5.98799669 C51.1339029,7.17798013 51.9239464,8.01572848 52.7425457,8.68211921 C53.4469219,9.27235099 54.1798539,9.63410596 54.6748209,10.0720199 C54.8556743,10.0529801 55.1507508,10.0339404 55.4934203,10.0339404 C56.4643172,10.0339404 57.9206625,10.205298 59.2627847,11.1096854 C64.0791947,14.3940397 66.6777717,22.2384106 66.6968089,26.3890728 C66.6968089,30.5302152 67.6486686,34.3952815 67.6486686,37.4797185 C67.6486686,39.2694536 67.3345549,40.8592715 66.1923233,42.0111755 L60.8809461,51.9879967 C58.8630036,55.7483444 54.1037051,61.5078642 52.4855436,63.4118377 C52.4855436,63.4308775 52.4855436,63.4499172 52.5331366,63.4975166 C52.5807296,63.5927152 52.6854342,63.7355132 52.8282131,63.8687914 C53.0947338,64.1734272 53.5421079,64.5161424 54.1322609,64.8493377 C55.2840111,65.5538079 56.9783214,66.1725993 58.996264,66.3725166 L59.0153011,66.3725166 L59.0438569,66.3820364 C60.3574233,66.5914735 60.9666135,67.6576987 60.9285391,68.6287252 C60.8999833,70.5231788 59.4246008,72.6365894 59.396045,72.6937086 L59.348452,72.7698675 L59.2723033,72.8365066 C59.2437475,72.8555464 59.1295243,72.9697848 59.1485615,73.2744205 C59.1295243,73.8551325 59.5293054,74.7880795 59.8814935,75.0451159 C59.9766794,75.1498344 60.0623468,75.1593543 60.0623468,75.1593543 C60.0623468,75.1498344 60.1099398,75.1879139 60.2812745,74.9118377 L60.6429812,74.321606 L61.1474669,74.8261589 C62.3182543,75.9780629 62.9369631,76.6730132 63.270114,77.1870861 C63.6127835,77.6440397 63.717488,78.0724338 63.6984508,78.2533113 L63.6984508,78.2628311 C63.6984508,78.2628311 63.6984508,78.2913907 63.717488,78.3009106 C63.8412298,78.4437086 64.2029365,78.7673841 65.0500916,79.3671358 L65.3356495,79.5765728 L65.2499822,79.9288079 C65.2499822,79.9383278 64.0791947,84.8029801 64.0791947,89.8009106 C64.0791947,92.2951159 64.3837898,94.8274007 65.2214264,96.740894 C65.4498727,97.2644868 66.1161745,97.8261589 66.7824763,98.3497517 C67.4582966,98.8923841 68.2197844,99.3969371 68.276896,100.387003 C68.276896,100.777318 68.1150798,101.139073 67.8200033,101.472268 L67.8200033,108.193295 C67.8200033,112.753311 68.6386027,117.103891 68.6671585,121.083195 C68.6671585,124.177152 68.1150798,127.090232 66.1828047,129.584437 C66.1066559,129.651076 66.0209885,129.955712 66.0209885,130.460265 C66.0209885,132.202401 67.0109226,135.696192 67.0299598,139.037666 Z M188.116032,113.334023 C188.106513,115.257036 188.249292,118.731788 188.868001,120.178808 L189.105966,120.75952 L188.496776,120.949917 C187.335507,121.292632 187.135616,121.711507 186.821503,122.501656 C186.554982,123.253725 186.345573,124.31995 185.403232,125.281457 C185.308046,125.548013 185.174785,126.357202 185.117674,127.366308 C185.051043,128.499172 185.022488,129.955712 185.022488,131.583609 C185.022488,138.00952 185.507936,146.720199 185.507936,146.748758 L185.526973,147.33899 L184.955858,147.33899 C184.717893,147.31995 183.470956,147.672185 182.347762,148.214818 C181.186493,148.75745 180.034743,149.538079 179.634962,150.166391 L179.482664,150.442467 L162.996454,150.442467 L162.853675,150.166391 C162.41582,149.48096 162.139781,149.062086 162.00652,148.871689 C161.87326,148.75745 161.882778,148.75745 161.87326,148.75745 C161.854223,148.76697 161.835185,148.77649 161.825667,148.75745 C161.606739,148.75745 161.054661,148.881209 160.064726,148.881209 C158.294267,148.928808 157.846893,149.49048 157.294815,150.21399 C156.790329,150.90894 156.190657,152.013245 154.705756,152.013245 L154.61057,152.013245 L154.553459,152.003725 C154.505866,151.956126 151.326654,151.394454 149.708493,149.671358 L138.486067,149.671358 L138.33377,149.404801 C137.876877,148.671772 137.600838,148.433775 137.296243,148.138659 C137.010685,147.853063 136.763201,147.37707 136.801275,146.777318 C136.810794,146.472682 136.90598,146.425083 136.963092,146.310844 C137.010685,146.225166 137.086833,146.129967 137.162982,146.034768 C137.343836,145.834851 137.553245,145.606374 137.772172,145.358858 C138.190991,144.930464 138.638365,144.511589 138.952478,144.197434 L138.952478,134.791805 L139.218999,134.639487 C139.856745,134.182533 140.199415,133.915977 140.342194,133.763659 C140.465935,133.601821 140.418342,133.69702 140.43738,133.468543 C140.43738,133.278146 140.408824,132.906871 140.408824,132.354719 L140.389787,132.354719 C140.389787,132.326159 140.370749,132.27856 140.342194,132.192881 C140.313638,132.050083 140.218452,131.840646 140.142303,131.612169 C139.932894,131.145695 139.675892,130.545944 139.371297,129.946192 C138.819218,128.765728 138.000619,127.480546 137.772172,127.347268 L137.296243,127.023593 L137.629393,126.566639 C138.314732,125.624172 138.53366,124.795944 138.53366,124.024834 C138.53366,122.87293 138.010137,121.949503 137.772172,121.587748 C137.676986,121.44495 137.648431,121.397351 137.648431,121.397351 L137.553245,121.292632 L137.543726,121.140315 C137.410466,120.397765 137.372391,119.617136 137.372391,118.826987 C137.372391,114.238411 138.990553,108.897765 138.971516,106.156043 C138.971516,106.051325 138.971516,105.965646 138.952478,105.870447 L138.952478,105.556291 L139.199962,105.394454 C139.856745,104.975579 140.189896,103.604719 140.43738,101.862583 C140.722937,100.120447 140.97994,98.0451159 141.893725,96.2268212 C143.397663,93.3327815 146.548319,89.6581126 146.957618,89.1535596 C147.157509,88.7156457 147.205102,87.2876656 147.861885,85.3265728 C148.556743,83.2417219 149.955976,80.5 153.078076,77.1109272 C153.401709,75.5496689 155.981248,62.6312086 158.503677,58.7375828 C158.646456,58.5852649 158.627418,58.6328642 158.665493,58.5662252 C158.703567,58.5471854 158.75116,58.509106 158.827309,58.4615066 C158.932013,58.3663079 159.065274,58.2520695 159.236609,58.1187914 C159.588797,57.8712748 160.036171,57.5285596 160.502582,57.1953642 C161.140328,56.709851 161.778074,56.2624172 162.082669,56.0149007 C162.215929,55.1961921 163.072603,52.8543046 167.850939,48.4180464 C167.632011,47.6183775 167.137044,45.5906457 167.137044,43.3344371 C167.137044,41.906457 167.327416,40.3642384 167.984199,38.9838576 L168.031792,38.8696192 L168.155534,38.7744205 C171.268115,36.5658113 173.114723,31.482202 178.026319,26.8936258 L178.026319,17.1548013 L162.139781,17.0024834 C159.779169,19.2491722 153.487376,19.477649 153.45882,27.7504139 L153.45882,28.3025662 L152.906742,28.3025662 C152.421293,28.2930464 150.974466,28.7595199 149.79416,29.4925497 C148.57578,30.2255795 147.671513,31.2346854 147.700069,32.0343543 L147.700069,43.7437914 C147.642957,44.8956954 146.776765,46.0951987 144.739785,49.4937914 L144.378079,50.0649834 L143.883112,49.6080298 C142.836066,48.656043 142.502915,47.7897351 142.521952,47.0567053 C142.521952,46.504553 142.655213,46.1142384 142.626657,45.8191225 C142.626657,45.4288079 142.560027,45.0289735 141.408276,44.200745 L141.208386,44.057947 L141.189349,43.8199503 C141.189349,43.8199503 140.751493,40.8116722 140.389787,38.9267384 C140.294601,38.384106 140.285082,37.8509934 140.199415,37.4416391 C140.151822,37.013245 140.037598,36.8133278 139.96145,36.7847682 L139.599743,36.5467715 L139.771078,36.1374172 C139.771078,36.1183775 141.132237,32.557947 141.1132,29.3687914 C141.132237,27.7504139 140.751493,26.2843543 139.885301,25.3990066 C139.399852,24.9230132 139.095257,24.7040563 138.53366,24.3137417 L138.286177,24.151904 L138.286177,10.4147351 L138.409918,10.2433775 C138.409918,10.2433775 138.733551,9.81498344 139.095257,9.16763245 C139.447445,8.52028146 139.771078,7.70157285 139.771078,7.05422185 C139.771078,6.94950331 139.752041,6.88286424 139.723485,6.7781457 L139.637817,6.14983444 L140.294601,6.14983444 C160.683435,6.14983444 162.511006,6.31167219 182.547652,6.31167219 L183.090213,6.31167219 L183.090213,14.2607616 C183.10925,14.9366722 183.337696,15.2222682 183.699403,15.6982616 C184.051591,16.1361755 184.546558,16.7740066 184.546558,17.7735927 L184.546558,44.1626656 L184.356186,44.343543 C182.966471,45.4668874 182.547652,47.4279801 182.547652,49.2557947 C182.547652,51.3311258 183.071175,53.1018212 183.071175,53.1018212 L183.166361,53.4921358 L182.852248,53.7110927 C180.796231,55.1866722 179.054327,59.0136589 177.664612,62.7644868 C176.303453,66.3820364 175.275444,69.8472682 173.961878,71.3514073 L173.961878,78.129553 L173.628727,78.272351 C173.628727,78.272351 172.191419,78.8721026 170.582776,79.8907285 C168.983652,80.8998344 167.279823,82.3373344 166.737263,83.8129139 C166.451705,84.5078642 166.337482,85.4408113 166.337482,86.4023179 C166.337482,88.2872517 166.737263,90.1245861 166.737263,90.1245861 L166.832449,90.5815397 L166.432668,90.7624172 C164.728839,91.4097682 162.396783,94.8654801 160.37884,98.9495033 C158.322823,103.043046 156.466697,107.764901 155.324465,111.106374 C154.562977,113.295944 154.096566,115.02856 154.144159,115.199917 L154.144159,119.112583 L153.573043,119.169702 L153.839564,119.464818 L153.811008,119.426738 L153.839564,119.455298 C153.811008,119.493377 153.763415,119.598096 153.687266,119.712334 C153.573043,120.00745 153.382671,120.426325 153.154225,120.968957 C152.725888,122.044702 152.164291,123.548841 151.555101,125.262417 C150.317683,128.68005 148.813745,132.868791 147.538253,136.029387 C146.805321,137.876242 146.167575,139.323262 145.605978,140.18005 C145.958166,140.665563 146.167575,140.998758 146.310354,141.141556 C146.453133,141.265315 146.443614,141.255795 146.453133,141.255795 C146.47217,141.246275 146.491207,141.246275 146.491207,141.255795 C146.653023,141.265315 147.100397,141.170116 147.814292,141.170116 C148.50915,141.170116 148.861338,141.008278 149.870309,140.494205 C150.869762,139.951573 152.3737,139.075745 155.134093,137.704884 C155.800395,137.447848 156.361992,137.628725 157.428075,137.495447 C158.456084,137.400248 159.921948,137.105132 162.00652,136.153146 C162.254004,136.048427 162.967899,135.201159 163.719868,133.992136 C164.481355,132.783113 165.376104,131.240894 166.461224,129.727235 C168.488685,126.842715 171.134855,123.910596 174.704329,123.625 C174.932775,122.139901 175.837042,119.007864 177.388573,117.522765 L177.874021,117.056291 L178.226209,117.665563 C178.49273,118.122517 178.721176,118.427152 178.987697,118.807947 C181.253123,117.741722 181.862313,116.723096 182.243057,115.590232 C182.652357,114.409768 182.680913,112.934189 183.927849,111.534768 L184.089665,111.344371 L188.163625,111.344371 L188.116032,111.925083 L188.116032,113.334023 Z M265.882969,102.586093 C265.911525,100.59644 266.092378,93.294702 266.092378,87.4780629 C266.092378,84.2984272 266.035266,81.5376656 265.902006,80.4428808 C265.435595,79.9288079 265.283297,79.2243377 265.121481,78.415149 C264.959665,77.4536424 264.864479,76.3207781 264.750256,75.1688742 C264.559884,72.8745861 264.131547,70.4850993 263.16065,69.6663907 C262.256383,68.857202 261.361635,68.638245 260.324108,68.4002483 C259.2961,68.1622517 258.163387,67.8671358 257.173453,66.8199503 C256.088333,65.620447 255.193584,63.6403146 254.593913,61.9743377 L254.336911,68.4859272 L254.336911,68.7620033 L254.117983,68.9333609 C253.099493,69.6378311 252.871047,70.7421358 252.490303,71.9225993 C252.185708,72.9697848 251.538443,74.1502483 250.015468,74.4453642 C249.977393,75.7019868 249.79654,79.2243377 249.311092,81.6709437 C249.130238,82.5753311 248.939866,83.3274007 248.549604,83.8605132 C248.463936,84.384106 248.444899,85.1076159 248.444899,85.9263245 C248.444899,88.6014073 248.77805,92.2665563 248.77805,94.8845199 C248.759013,95.9221854 248.730457,96.7599338 248.549604,97.4072848 L248.521048,97.607202 C249.311092,97.5215232 250.186802,97.4739238 251.138662,97.4739238 C252.461747,97.4739238 253.918092,97.5786424 255.355401,97.8737583 C259.534065,98.8067053 261.847084,101.681705 264.702663,102.567053 C265.026295,102.586093 265.302334,102.586093 265.549818,102.586093 L265.882969,102.586093 Z M284.425196,98.5211093 L284.472789,98.7686258 C284.748828,101.100993 284.910644,108.774007 284.910644,116.44702 C284.910644,124.35803 284.748828,132.116722 284.272898,134.049255 L284.225305,134.230132 L284.044452,134.37293 C283.72082,134.582368 283.17826,135.534354 282.692811,136.848096 C282.207363,138.180877 281.731433,139.837334 281.169836,141.58899 C280.103753,144.949503 278.885372,148.576573 277.086357,150.518626 L277.086357,158.772351 L276.829355,158.953228 C276.086905,159.419702 275.449159,161.409354 274.935155,163.484685 C274.35452,165.474338 273.87859,167.587748 272.72684,168.844371 L272.72684,173.985099 L272.507912,174.165977 C272.031982,174.499172 271.689313,174.746689 271.280013,175.117964 L271.280013,181.781871 L271.070604,181.943709 C270.413821,182.429222 270.175856,182.733858 269.909335,183.038493 C269.661852,183.343129 269.166885,183.647765 268.58625,183.628725 C268.338767,183.628725 268.072246,183.495447 267.948504,183.343129 C267.900911,183.29553 267.881874,183.238411 267.824763,183.181291 C267.701021,183.238411 267.4345,183.343129 267.053756,183.543046 L266.21612,184 L266.21612,174.946606 L261.913714,160.914321 L261.913714,156.544702 C261.94227,154.992964 260.31459,153.479305 258.448945,151.63245 C256.630893,149.766556 254.67958,147.472268 254.67958,144.073675 L254.67958,143.835679 L254.850915,143.683361 C254.850915,143.683361 255.355401,143.112169 256.212074,142.026904 C257.030674,140.941639 258.153868,139.361341 259.277063,137.371689 C261.523451,133.401904 263.845989,127.832781 264.055398,121.425911 L264.055398,121.406871 C264.102991,121.197434 263.674654,120.483444 262.779906,119.750414 C261.87564,118.988825 260.619185,118.132036 259.200914,117.275248 C256.30726,115.514073 252.766342,113.686258 250.139209,112.201159 C248.549604,111.277732 247.350261,110.563742 246.722033,109.906871 L244.123456,109.906871 L245.341837,113.55298 L245.341837,121.340232 C246.227066,121.578228 246.931442,122.235099 247.578707,122.834851 C248.349713,123.586921 249.111201,124.272351 249.710873,124.37707 C250.015468,124.405629 250.481879,124.776904 250.47236,125.214818 C250.424767,125.624172 250.253433,125.843129 250.063061,126.147765 C249.844133,126.433361 249.596649,126.718957 249.377722,127.061672 C248.863717,127.737583 248.36875,128.527732 248.206934,129.35596 L248.121267,129.822434 L247.635818,129.793874 C247.616781,129.793874 243.209671,129.527318 239.62116,129.527318 C237.803108,129.517798 236.165909,129.584437 235.604312,129.765315 C228.693811,132.078642 220.926635,135.010762 220.907598,135.010762 L220.469743,135.163079 L220.250815,134.772765 C219.327511,133.325745 219.222807,132.602235 219.146658,132.107202 C219.099065,131.650248 219.099065,131.374172 218.204317,130.012831 L217.97587,129.698675 L218.223354,129.38452 C220.840968,125.81457 221.488233,125.205298 223.33484,123.529801 C223.363396,122.634934 223.534731,119.579056 224.657925,117.665563 C225.733527,115.904387 227.941841,115.342715 228.741404,114.600166 C229.017443,114.362169 229.074554,114.200331 229.074554,114.038493 C229.141185,113.867136 228.741404,113.495861 227.875211,112.934189 L227.60869,112.743791 L227.637246,112.410596 C227.637246,112.391556 228.370178,106.194123 228.884182,104.24255 C228.960331,104.071192 228.979368,103.956954 229.045999,103.833195 C228.836589,103.214404 228.322585,101.519868 228.322585,99.8443709 C228.322585,98.8067053 228.512957,97.7404801 229.236371,96.8932119 C229.702782,96.3410596 230.150156,96.1125828 230.521381,95.8174669 L230.521381,89.5629139 L230.768865,89.3915563 C231.806392,88.620447 231.911096,88.5823675 231.987245,87.5066225 C231.968208,87.2400662 231.911096,87.2305464 231.882541,87.1924669 C231.863503,87.1639073 231.758799,87.0877483 231.530352,86.9925497 C231.054423,86.8307119 230.388121,86.1928808 230.435714,85.0219371 C230.435714,84.6982616 230.46427,84.3365066 230.521381,83.8890728 C230.721272,83.0322848 230.787902,82.3373344 230.787902,81.7566225 C230.787902,80.3667219 230.416677,79.4528146 230.416677,78.1581126 C230.416677,77.5774007 230.492825,76.9586093 230.702234,76.2350993 C231.425648,74.0074503 232.520287,73.1125828 233.472146,71.2847682 C233.462628,71.2847682 233.881446,70.4470199 234.281227,69 C234.690527,67.5434603 235.109345,65.4966887 235.109345,63.1833609 L235.109345,62.8692053 L235.375866,62.7073675 C236.946434,61.8029801 237.355734,59.6514901 237.593699,56.8716887 C237.841182,54.0918874 237.898294,50.8075331 239.221379,47.8944536 C240.506389,45.1432119 241.44873,42.5252483 243.181115,40.8307119 C243.209671,40.6498344 243.228708,40.5070364 243.228708,40.3356788 C243.247745,39.317053 242.724222,38.4317053 242.695667,37.3083609 C242.695667,36.7847682 242.847964,36.2040563 243.257264,35.6899834 C243.76175,35.0711921 244.275754,34.8522351 244.666016,34.5475993 C244.9135,33.6336921 246.236585,29.178394 247.788116,26.4176325 C248.692383,24.8278146 248.692383,23.9139073 250.605621,22.1336921 L250.605621,15.8600993 L250.834067,15.6982616 C251.747852,15.0128311 251.700259,14.879553 251.909669,14.4606788 C252.138115,13.9846854 252.547415,13.4039735 253.870499,12.5662252 L253.965685,12.4900662 L254.117983,12.4615066 C254.822359,12.3758278 255.098398,12.0807119 255.355401,11.5285596 C255.56481,10.9668874 255.621921,10.1196192 255.621921,9.20571192 C255.621921,8.68211921 255.612403,8.14900662 255.612403,7.57781457 C255.612403,6.54014901 255.669514,5.50248344 256.069295,4.61713576 C256.507151,3.72226821 257.420936,3.10347682 258.744021,3.11299669 C260.543036,3.11299669 261.656712,4.39817881 262.227828,5.84519868 C262.837018,7.29221854 263.074983,8.99627483 263.236799,10.3100166 C263.370059,11.1668046 263.474764,11.8712748 263.56995,12.0331126 C266.492159,18.3352649 267.739095,19.1634934 268.310211,20.0583609 C268.557695,20.3629967 268.681436,20.772351 268.662399,21.2197848 L268.662399,25.5227649 C268.643362,27.2744205 269.937891,31.6916391 271.280013,35.5186258 C272.574543,39.3932119 273.87859,42.763245 273.87859,42.763245 L273.916665,42.8013245 L278.447517,60.6891556 C278.904409,61.0794702 279.266116,61.4221854 279.723009,61.7268212 L279.941937,61.8696192 L279.941937,68.1622517 C281.14128,69.285596 281.522024,70.1709437 281.502986,70.942053 C281.502986,71.5798841 281.322133,71.9797185 281.350689,72.2462748 C281.350689,72.5509106 281.4078,72.9412252 282.607144,73.7980132 L282.845109,73.9693709 L282.845109,82.442053 L282.416772,82.5277318 C282.397735,82.6419702 282.397735,82.7942881 282.397735,82.9751656 C282.397735,85.4027318 283.263927,92.5235927 283.901673,96.2744205 C284.073008,97.3596854 284.272898,98.2069536 284.33001,98.4544702 L284.425196,98.5211093 Z M249.672798,141.341474 C249.596649,142.131623 249.130238,142.3125 248.863717,142.807533 C248.549604,143.274007 248.216453,144.026076 248.216453,145.625414 C248.206934,148.186258 249.530019,148.690811 249.672798,150.299669 L249.672798,163.836921 L249.434833,164.017798 C248.730457,164.512831 248.387788,164.788907 248.245009,164.903146 L248.245009,164.912666 C248.245009,164.998344 248.273564,165.141142 248.273564,165.360099 C248.273564,165.521937 248.245009,165.750414 248.206934,165.988411 L248.140304,166.464404 L226.428384,166.464404 L226.276087,166.188328 C225.990529,165.664735 225.733527,165.3125 225.352783,164.865066 L218.223354,164.103477 C216.833639,165.645695 214.58725,167.073675 212.740642,167.730546 L212.654975,167.759106 L212.578826,167.759106 C207.12467,167.759106 204.0692,168.016142 200.842396,168.016142 C199.338458,168.349338 195.502463,170.672185 192.504105,170.691225 L192.26614,170.691225 L192.085287,170.510348 C190.943055,169.272765 190.63846,167.911424 190.657497,166.76904 C190.657497,165.731374 190.895462,164.817467 190.857388,164.350993 L190.857388,158.581954 L191.104871,158.420116 C191.714061,158.001242 192.047212,157.848924 192.427956,157.363411 C192.713514,157.011175 192.856293,156.392384 192.856293,155.706954 C192.856293,154.326573 192.342289,152.822434 192.342289,152.812914 L192.19951,152.422599 L192.551698,152.175083 C193.865264,151.261175 194.645789,150.899421 195.245461,149.671358 C195.502463,149.195364 195.578612,148.500414 195.578612,147.814983 C195.578612,146.396523 195.216905,144.978063 195.216905,144.978063 L195.121719,144.597268 L195.426314,144.387831 C196.083097,143.959437 196.387692,143.826159 196.749399,143.340646 C197.006401,143.00745 197.14918,142.445778 197.120624,141.817467 C197.14918,140.551325 196.67325,139.161424 196.67325,139.161424 L196.644695,139.075745 L196.644695,138.990066 C196.682769,138.475993 196.939771,138.104719 197.244366,137.400248 C197.539443,136.752897 197.891631,135.981788 198.091521,135.334437 C198.472265,134.106374 198.57697,132.526076 198.57697,131.012417 C198.57697,127.9375 198.091521,125.05298 198.091521,125.05298 L198.091521,124.957781 C198.072484,124.224752 197.882112,123.853477 197.615591,123.387003 C197.339552,122.93005 196.939771,122.415977 196.67325,121.625828 C195.597649,118.56995 195.245461,114.828642 195.245461,111.211093 C195.245461,103.995033 196.644695,97.1788079 196.644695,97.1597682 L196.644695,97.1121689 L205.287581,74.1788079 C205.268543,74.0074503 205.163839,73.9217715 204.906837,73.6837748 C204.621279,73.4648179 204.116793,73.1221026 203.86931,72.5128311 C203.764605,72.2081954 203.736049,71.9225993 203.736049,71.6846026 C203.755087,71.1610099 203.840754,70.8849338 203.840754,70.3613411 L203.840754,70.1233444 L204.012089,69.9615066 C204.012089,69.9519868 204.526093,69.4664735 205.030578,68.6668046 C205.506508,67.8576159 206.020513,66.7818709 206.020513,65.6680464 C206.020513,64.9159768 205.991957,64.4590232 205.991957,64.0211093 C205.991957,63.7831126 205.991957,63.5641556 206.020513,63.25 C206.191847,62.317053 207.143707,60.9842715 208.14316,59.1183775 C209.133094,57.3000828 210.103991,55.1390728 210.341956,53.1399007 C210.399067,52.6163079 210.408586,51.9879967 210.408586,51.3501656 C210.408586,50.093543 210.341956,48.9606788 210.341956,48.9035596 C210.351474,48.5703642 210.475216,48.3133278 210.646551,47.799255 C210.817885,47.3042219 211.084406,46.647351 211.39852,45.8762417 C212.036266,44.343543 212.940533,42.3729305 213.949504,40.3166391 C215.938891,36.2802152 218.356614,31.9772351 220.42215,29.9495033 L220.42215,24.8278146 L220.669633,24.6659768 C220.955191,24.5041391 221.964162,23.6663907 221.878495,23.2475166 L221.878495,23.1999172 C221.830902,22.8952815 221.868977,23 221.745235,22.8667219 C221.659567,22.7524834 221.402565,22.5335265 221.09797,22.1717715 L213.445018,22.1717715 L213.292721,21.8956954 C212.921495,21.2388245 212.769198,20.915149 212.283749,20.4391556 C211.750708,19.8965232 210.941627,19.6775662 210.046879,19.6775662 C208.14316,19.6775662 206.115699,20.553394 205.125764,20.6009934 C204.859244,20.5153146 203.755087,21.4292219 202.822264,23.5902318 C201.889441,25.6846026 200.9471,28.8642384 200.261761,33.0053808 C199.538348,37.3845199 198.862528,39.7549669 198.158151,41.1448675 C197.472813,42.5252483 196.435285,42.9155629 195.626205,42.8679636 C195.350165,42.8679636 195.093163,42.839404 194.84568,42.839404 C194.226971,42.8679636 193.779597,42.8870033 192.980035,44.1245861 L192.627847,44.6957781 L192.142398,44.2578642 C191.485615,43.6771523 190.667016,42.9155629 190.390976,42.7346854 L190.02927,42.4966887 L190.191086,42.0682947 C190.714609,40.6498344 190.904981,39.6597682 190.904981,38.8886589 C190.924018,37.3559603 190.181567,36.5658113 190.143493,34.8712748 C190.219642,33.5099338 191.476096,32.3294702 192.323252,31.5012417 L192.323252,4.70281457 L192.827737,4.68377483 C193.28463,4.64569536 194.455417,4.62665563 197.244366,4.62665563 C202.822264,4.62665563 215.082217,4.68377483 241.553435,4.68377483 L241.85803,4.68377483 L242.029365,4.95033113 C242.419627,5.62624172 242.695667,6.02607616 242.828927,6.17839404 C242.952669,6.28311258 242.924113,6.26407285 242.933632,6.26407285 L242.981225,6.26407285 C243.114485,6.28311258 243.381006,6.21647351 243.799824,6.21647351 C243.89501,6.21647351 243.999714,6.21647351 244.113938,6.22599338 L244.618423,6.28311258 L244.618423,8.16804636 L244.5042,8.31084437 C243.209671,9.76738411 242.695667,14.8509934 238.526521,19.0682947 C238.583633,19.5728477 238.707375,20.6485927 238.707375,21.7909768 C238.707375,22.571606 238.650263,23.3807947 238.46941,24.1138245 C237.755515,26.8555464 237.003546,27.3220199 234.19556,30.0066225 C234.281227,30.4921358 234.424006,31.5774007 234.424006,32.7197848 C234.424006,33.4813742 234.338339,34.3096026 234.147967,35.0331126 C233.767223,36.223096 232.872475,36.6229305 232.329915,37.0037252 C231.787355,37.4130795 231.387573,37.7272351 231.27335,39.240894 C231.27335,39.2504139 230.483307,44.7338576 229.750375,48.227649 C229.017443,51.6833609 227.227947,53.692053 227.256502,56.3385762 C227.256502,56.709851 227.27554,57.1287252 227.370726,57.5571192 L227.389763,57.6142384 L226.951907,71.8178808 L226.723461,71.9797185 C225.762083,72.5889901 225.17193,75.0260762 224.534184,77.7582781 C223.886919,80.4238411 223.125431,83.3940397 221.193156,85.4027318 L221.193156,90.3340232 L221.155082,90.419702 C220.641078,91.9333609 219.679699,92.6854305 218.918211,93.5326987 C218.090094,94.3799669 217.36668,95.2938742 216.852676,97.321606 L216.852676,113.353063 L212.531233,125.80505 C212.578826,126.271523 212.721605,128.051738 212.721605,129.946192 C212.721605,131.069536 212.674012,132.22144 212.512196,133.221026 C211.798301,137.97144 208.190753,143.987997 207.372153,145.254139 C207.381672,145.377897 207.381672,145.501656 207.381672,145.625414 C207.372153,147.215232 206.23944,149.899834 206.030031,150.423427 C205.944364,151.451573 205.135283,152.889073 204.706946,153.698262 C205.287581,154.240894 205.439878,154.440811 205.858696,154.421772 C205.896771,154.421772 205.953882,154.412252 206.17281,154.174255 C206.334626,153.955298 206.544035,153.564983 206.820075,153.136589 L207.067558,152.698675 L207.533969,152.927152 C208.428718,153.355546 209.22828,153.479305 210.018323,153.479305 C211.617448,153.498344 213.292721,152.889073 215.510554,152.860513 C215.815149,152.784354 215.87226,152.689156 216.024558,152.451159 C216.129263,152.222682 216.224449,151.775248 216.300597,151.270695 C216.424339,150.24255 216.586155,148.79553 217.699831,147.567467 C218.813507,146.406043 220.517336,145.758692 222.125979,145.244619 C223.696547,144.768626 225.248078,144.359272 225.733527,143.997517 C228.579587,141.988825 230.740309,141.408113 232.539324,140.579884 C234.338339,139.751656 235.880351,138.73303 237.812626,135.591474 L238.174333,135.010762 L238.6693,135.458195 C239.164267,135.943709 239.573567,136.343543 240.001904,136.867136 L247.245556,136.867136 L247.407372,137.133692 C248.159341,138.409354 249.615687,139.313742 249.672798,141.341474 Z" id="client-blizzard" fill="#0566B0" fill-rule="nonzero"></path>
    </g>
</svg>