<?xml version="1.0" encoding="UTF-8"?>
<svg width="400px" height="103px" viewBox="0 0 400 103" version="1.1" xmlns="http://www.w3.org/2000/svg" xmlns:xlink="http://www.w3.org/1999/xlink">
    <!-- Generator: Sketch 49.3 (51167) - http://www.bohemiancoding.com/sketch -->
    <title>client-activision</title>
    <desc>Created with Sketch.</desc>
    <defs></defs>
    <g id="Client-Logos" stroke="none" stroke-width="1" fill="none" fill-rule="evenodd">
        <path d="M305.581703,58.5138626 C305.581703,67.1018393 312.561448,74.0739113 321.17282,74.0739113 C329.763274,74.0739113 336.729073,67.1018393 336.729073,58.5138626 C336.729073,49.9258859 329.763274,42.9747092 321.17282,42.9747092 C312.561448,42.9747092 305.581703,49.9258859 305.581703,58.5138626 Z M321.17282,89.8080876 C303.845483,89.8080876 289.809295,75.8082229 289.809295,58.5138626 C289.809295,41.2264674 303.845483,27.1987422 321.17282,27.1987422 C338.444375,27.1987422 352.508454,41.2264674 352.508454,58.5138626 C352.508454,75.8082229 338.444375,89.8080876 321.17282,89.8080876 Z M35.5192971,61.5227887 L30.7917582,45.9697052 L26.0572465,61.5227887 L35.5192971,61.5227887 Z M62.294739,89.0906816 L45.3090681,89.0906816 L41.0556776,77.7932783 L21.2320887,77.7932783 L16.9786982,89.0906816 L0,89.0906816 L31.133424,0 L62.294739,89.0906816 Z M270.92703,88.8677982 L270.92703,28.0624155 L286.880731,28.0624155 L286.880731,88.8677982 L270.92703,88.8677982 Z M214.503364,88.8677982 L214.503364,28.0693806 L230.471011,28.0693806 L230.471011,88.8677982 L214.503364,88.8677982 Z M255.600879,41.2612929 C255.600879,41.2612929 252.644424,41.2612929 251.807691,42.438396 C247.366036,48.7975385 268.326186,58.1029213 268.326186,75.2022586 C268.326186,84.1663511 260.649165,88.8677982 252.993062,88.8677982 L235.059094,88.8677982 L235.059094,75.4390722 L246.020291,75.4390722 C247.791375,75.4390722 251.208033,75.3137003 252.058711,72.492832 C253.829795,66.6003516 235.756371,57.0511902 235.756371,42.438396 C235.756371,31.3499459 243.789004,28.0693806 249.220793,28.0693806 L265.850852,28.0693806 L265.850852,41.2612929 L255.600879,41.2612929 Z M214.245372,22.8664458 L184.067218,103 L153.854199,22.8664458 L128.598822,22.8664458 L128.550012,88.9374493 L112.052435,88.9374493 L112.087299,22.8664458 L75.5081407,22.8664458 L84.0009762,6.89545577 L165.652128,6.89545577 L184.067218,54.9268326 L202.454416,6.89545577 L281.51867,6.89545577 L290.241607,22.8664458 L214.245372,22.8664458 Z M88.7145696,27.2683933 C96.5171007,27.2683933 103.6363,30.1240871 109.109926,34.8394644 L98.7762786,46.5547741 C96.0708434,44.2702191 92.5495938,42.9120233 88.7145696,42.9120233 C80.0822787,42.9120233 73.0676707,49.8980254 73.0676707,58.5277928 C73.0676707,67.1575602 80.0822787,74.1574926 88.7145696,74.1574926 C92.6123488,74.1574926 96.1754349,72.7296457 98.9227068,70.3824047 L109.263327,82.1046795 C103.76181,86.896673 96.5868284,89.7593319 88.7145696,89.7593319 C71.4360423,89.7593319 57.4277447,75.7873276 57.4277447,58.5277928 C57.4277447,41.2612929 71.4360423,27.2683933 88.7145696,27.2683933 Z M400,28.2852989 L400,91.333446 L371.209427,63.1735191 L371.209427,88.8677982 L355.16508,88.8051123 L355.16508,26.4116852 L384.07419,51.2771166 L384.07419,28.2852989 L400,28.2852989 Z M137.684343,28.0902759 L153.645016,28.0902759 L153.645016,88.8886935 L137.684343,88.8886935 L137.684343,28.0902759 Z" id="client-activision" fill="#000000" fill-rule="nonzero"></path>
    </g>
</svg>