<?xml version="1.0" encoding="UTF-8"?>
<svg width="400px" height="66px" viewBox="0 0 400 66" version="1.1" xmlns="http://www.w3.org/2000/svg" xmlns:xlink="http://www.w3.org/1999/xlink">
    <!-- Generator: Sketch 49.3 (51167) - http://www.bohemiancoding.com/sketch -->
    <title>client-elemental</title>
    <desc>Created with Sketch.</desc>
    <defs></defs>
    <g id="Client-Logos" stroke="none" stroke-width="1" fill="none" fill-rule="evenodd">
        <g id="client-elemental">
            <path d="M64.6541853,12.1021107 L1.08119878,12.1021107 C0.485037786,12.1021107 0,11.6166393 0,11.0165844 L0,5.49849232 C0,2.46052632 2.4522189,0 5.47807381,0 L64.6541853,0 C65.2503463,0 65.7353841,0.485471491 65.7353841,1.08552632 L65.7353841,11.0165844 C65.7353841,11.6166393 65.2503463,12.1021107 64.6541853,12.1021107 Z M64.6541853,39.0503015 L1.08119878,39.0503015 C0.485037786,39.0503015 0,38.56483 0,37.9632675 L0,28.0322094 C0,27.4321546 0.485037786,26.9481908 1.08119878,26.9481908 L64.6541853,26.9481908 C65.2503463,26.9481908 65.7353841,27.4321546 65.7353841,28.0322094 L65.7353841,37.9632675 C65.7353841,38.56483 65.2503463,39.0503015 64.6541853,39.0503015 Z M64.6541853,65.9969846 L1.08119878,65.9969846 C0.485037786,65.9969846 0,65.5115132 0,64.9114583 L0,54.9788925 C0,54.3803454 0.485037786,53.8948739 1.08119878,53.8948739 L64.6541853,53.8948739 C65.2503463,53.8948739 65.7353841,54.3788377 65.7353841,54.9788925 L65.7353841,64.9114583 C65.7353841,65.5115132 65.2503463,65.9969846 64.6541853,65.9969846 Z M134.176768,64.912966 L134.176768,1.08703399 C134.176768,0.486979167 134.661806,0.00150767544 135.259469,0.00150767544 L140.755563,0.00150767544 C143.781418,0.00150767544 146.232135,2.46354167 146.232135,5.5 L146.232135,64.912966 C146.232135,65.5115132 145.747097,66 145.150936,66 L135.259469,66 C134.661806,65.9984923 134.176768,65.5115132 134.176768,64.912966 Z M107.33751,64.912966 L107.33751,1.08703399 C107.33751,0.486979167 107.821047,0.00150767544 108.418709,0.00150767544 L118.311678,0.00150767544 C118.907839,0.00150767544 119.391375,0.486979167 119.391375,1.08703399 L119.391375,64.912966 C119.391375,65.5115132 118.907839,66 118.311678,66 L108.418709,66 C107.821047,65.9984923 107.33751,65.5115132 107.33751,64.912966 Z M80.4967508,64.912966 L80.4967508,1.08703399 C80.4967508,0.486979167 80.9802869,0.00150767544 81.5779496,0.00150767544 L91.4694167,0.00150767544 C92.0670794,0.00150767544 92.5506155,0.486979167 92.5506155,1.08703399 L92.5506155,64.912966 C92.5506155,65.5115132 92.0670794,66 91.4694167,66 L81.5779496,66 C80.9817886,65.9984923 80.4967508,65.5115132 80.4967508,64.912966 Z" id="Combined-Shape" fill="#00A9EC"></path>
            <path d="M170.185193,48.1687226 L172.125344,48.1687226 L172.125344,59.0375548 L170.500542,59.0375548 L170.500542,50.3412829 L165.992544,55.7342379 L161.481543,50.3412829 L161.481543,59.0375548 L159.855239,59.0375548 L159.855239,48.1687226 L161.780374,48.1687226 L165.992544,53.1968202 L170.185193,48.1687226 Z M201.864317,48.1702303 C202.950021,48.1702303 203.819485,49.044682 203.819485,50.131716 L203.819485,59.0375548 L202.197687,59.0375548 L202.197687,55.2336897 L194.618784,55.2336897 L194.618784,59.0375548 L192.995484,59.0375548 L192.995484,50.131716 C192.995484,49.044682 193.866449,48.1702303 194.947648,48.1702303 L201.864317,48.1702303 Z M202.197687,53.6038925 L202.197687,50.131716 C202.197687,49.950795 202.044517,49.8000274 201.864317,49.8000274 L194.946147,49.8000274 C194.76895,49.8000274 194.617282,49.950795 194.617282,50.131716 L194.617282,53.6038925 L202.197687,53.6038925 Z M227.380608,49.7985197 C227.200408,49.7985197 227.047239,49.9523026 227.047239,50.1332237 L227.047239,57.0760691 C227.047239,57.2569901 227.200408,57.40625 227.380608,57.40625 L236.222412,57.40625 L236.222412,59.0405702 L227.380608,59.0405702 C226.297908,59.0405702 225.423939,58.1631031 225.423939,57.0760691 L225.423939,50.1332237 C225.423939,49.0431743 226.297908,48.1672149 227.380608,48.1672149 L236.222412,48.1672149 L236.222412,49.7985197 L227.380608,49.7985197 Z M268.781512,48.1687226 L268.781512,59.0375548 L267.159713,59.0375548 L267.159713,54.4210526 L259.324026,54.4210526 L259.324026,59.0375548 L257.699224,59.0375548 L257.699224,48.1687226 L259.324026,48.1687226 L259.324026,52.7882401 L267.159713,52.7882401 L267.159713,48.1687226 L268.781512,48.1687226 Z M294.84591,48.1672149 L296.46921,48.1672149 L296.46921,59.0375548 L294.84591,59.0375548 L294.84591,48.1672149 Z M331.863454,48.1687226 L333.486753,48.1687226 L333.486753,59.0375548 L331.561619,59.0375548 L324.28455,50.3412829 L324.28455,59.0375548 L322.656746,59.0375548 L322.656746,48.1687226 L324.584883,48.1687226 L331.863454,56.8665022 L331.863454,48.1687226 Z M365.452696,49.7985197 L357.151492,49.7985197 L357.151492,52.7882401 L363.829396,52.7882401 L363.829396,54.4180373 L357.151492,54.4180373 L357.151492,57.40625 L365.452696,57.40625 L365.452696,59.0405702 L355.52669,59.0405702 L355.52669,48.1672149 L365.452696,48.1672149 L365.452696,49.7985197 Z M398.318135,50.7664474 L396.694835,50.7664474 L396.694835,50.131716 C396.694835,49.950795 396.541666,49.7985197 396.361466,49.7985197 L389.4478,49.7985197 C389.2676,49.7985197 389.117434,49.950795 389.117434,50.131716 L389.117434,52.4550439 C389.117434,52.6359649 389.2676,52.7882401 389.4478,52.7882401 L396.361466,52.7882401 C397.44717,52.7882401 398.318135,53.6626919 398.318135,54.7527412 L398.318135,57.0775768 C398.318135,58.1646107 397.44717,59.0390625 396.361466,59.0390625 L389.4478,59.0390625 C388.366601,59.0390625 387.492632,58.1646107 387.492632,57.0775768 L387.492632,56.4458607 L389.117434,56.4458607 L389.117434,57.0775768 C389.117434,57.2600055 389.2676,57.4077577 389.4478,57.4077577 L396.361466,57.4077577 C396.541666,57.4077577 396.694835,57.2600055 396.694835,57.0775768 L396.694835,54.7527412 C396.694835,54.5703125 396.541666,54.419545 396.361466,54.419545 L389.4478,54.419545 C388.366601,54.419545 387.492632,53.5435855 387.492632,52.4550439 L387.492632,50.131716 C387.492632,49.0431743 388.366601,48.1687226 389.4478,48.1687226 L396.361466,48.1687226 C397.44717,48.1687226 398.318135,49.0431743 398.318135,50.131716 L398.318135,50.7664474 Z M181.24946,16.7608279 L162.139272,16.7608279 L162.139272,23.6433662 L177.510315,23.6433662 L177.510315,27.3974781 L162.139272,27.3974781 L162.139272,34.2800164 L181.24946,34.2800164 L181.24946,38.0326206 L158.400126,38.0326206 L158.400126,13.006716 L181.24946,13.006716 L181.24946,16.7608279 Z M230.220257,16.7608279 L211.108567,16.7608279 L211.108567,23.6433662 L226.481111,23.6433662 L226.481111,27.3974781 L211.108567,27.3974781 L211.108567,34.2800164 L230.220257,34.2800164 L230.220257,38.0326206 L207.369421,38.0326206 L207.369421,13.006716 L230.220257,13.006716 L230.220257,16.7608279 Z M258.52514,13.0052083 L262.98959,13.0052083 L262.98959,38.0326206 L259.248942,38.0326206 L259.248942,18.0121985 L250.426661,30.4203673 L241.604379,18.0121985 L241.604379,38.0326206 L237.865233,38.0326206 L237.865233,13.0052083 L242.298148,13.0052083 L250.426661,24.582648 L258.52514,13.0052083 Z M293.485402,16.7608279 L274.373712,16.7608279 L274.373712,23.6433662 L289.746256,23.6433662 L289.746256,27.3974781 L274.373712,27.3974781 L274.373712,34.2800164 L293.485402,34.2800164 L293.485402,38.0326206 L270.634566,38.0326206 L270.634566,13.006716 L293.485402,13.006716 L293.485402,16.7608279 Z M319.13384,13.0052083 L322.869982,13.0052083 L322.869982,38.0326206 L318.438569,38.0326206 L303.247726,18.0121985 L303.247726,38.0326206 L299.510082,38.0326206 L299.510082,13.0052083 L303.941495,13.0052083 L319.13384,33.0286458 L319.13384,13.0052083 Z M351.270972,13.0052083 L351.270972,16.7608279 L341.457591,16.7608279 L341.457591,38.0326206 L337.721449,38.0326206 L337.721449,16.7608279 L327.908068,16.7608279 L327.908068,13.0052083 L351.270972,13.0052083 Z M373.525647,13.0052083 C376.01841,13.0052083 378.027638,15.0239857 378.027638,17.526727 L378.027638,38.0326206 L374.289994,38.0326206 L374.289994,29.274534 L359.186248,29.274534 L359.186248,38.0326206 L355.447102,38.0326206 L355.447102,17.526727 C355.447102,15.0239857 357.459333,13.0052083 359.947592,13.0052083 L373.525647,13.0052083 Z M374.288492,25.5204221 L374.288492,17.526727 C374.288492,17.1075932 373.943109,16.7593202 373.524145,16.7593202 L359.94609,16.7593202 C359.530129,16.7593202 359.184746,17.1075932 359.184746,17.526727 L359.184746,25.5204221 L374.288492,25.5204221 Z M400,34.2966009 L400,38.0507127 L384.223508,38.0507127 L384.223508,12.9886239 L387.962654,12.9886239 L387.962654,34.2966009 L400,34.2966009 Z M202.56109,34.2966009 L202.56109,38.0507127 L186.786099,38.0507127 L186.786099,12.9886239 L190.526747,12.9886239 L190.526747,34.2966009 L202.56109,34.2966009 Z" fill="#646368" fill-rule="nonzero"></path>
        </g>
    </g>
</svg>